<?xml version="1.0" standalone="no"?>
<!DOCTYPE svg PUBLIC "-//W3C//DTD SVG 1.1//EN" "http://www.w3.org/Graphics/SVG/1.1/DTD/svg11.dtd" >
<svg xmlns="http://www.w3.org/2000/svg">
<metadata>
This is a custom SVG webfont generated by Font Squirrel.
Copyright   : Copyright c The Foundry 2001 All rights reserved
Designer    : The Foundry
Foundry URL : wwwfoundrytypescouk
</metadata>
<defs>
<font id="webfonthbiDL9z7" horiz-adv-x="1280" >
<font-face units-per-em="2048" ascent="1638" descent="-410" />
<missing-glyph horiz-adv-x="585" />
<glyph unicode=" "  horiz-adv-x="585" />
<glyph unicode="&#x09;" horiz-adv-x="585" />
<glyph unicode="&#xa0;" horiz-adv-x="585" />
<glyph unicode="!" horiz-adv-x="759" d="M557 1366l-41 -926h-274l-47 926h362zM567 170q0 -78 -55 -133t-133 -55t-132 55t-54 133t55 132t131 54q78 0 133 -54t55 -132z" />
<glyph unicode="&#x22;" horiz-adv-x="849" d="M766 897h-268v502h268v-502zM350 897h-268v502h268v-502z" />
<glyph unicode="#" horiz-adv-x="1103" d="M1036 1094l-20 -140h-193l-32 -231h190l-20 -141h-191l-45 -338h-158l47 338h-194l-41 -338h-162l45 338h-192l20 141h195l30 231h-190l20 140h191l43 307h156l-43 -307h194l39 307h162l-43 -307h192zM668 954h-197l-33 -231h199z" />
<glyph unicode="$" d="M1110 582q0 -154 -125 -265q-106 -94 -323 -124l-21 -201l-149 4l16 190q-18 -2 -43 -2q-102 0 -307 33l59 258q133 -27 289 -26q254 0 254 100q0 61 -174 121q-109 37 -193 78q-199 94 -198 299q0 158 119.5 254t330.5 106l19 182h151l-18 -182q113 -4 243 -35l-53 -244 q-119 23 -217 23q-219 0 -219 -88q0 -18 14 -33q31 -31 141.5 -66.5t196.5 -74.5q207 -96 207 -307z" />
<glyph unicode="%" horiz-adv-x="1576" d="M1536 350q0 -162 -99.5 -267.5t-250.5 -105.5q-152 0 -249 102.5t-97 260.5q0 162 100 266.5t252 104.5q147 0 245.5 -103.5t98.5 -257.5zM1337 1313l-983 -1340l-118 88l976 1340zM737 1047q0 -164 -98 -268.5t-252 -104.5q-152 0 -249 102.5t-97 259.5 q0 160 100.5 265.5t251.5 105.5q147 0 245.5 -103t98.5 -257zM1311 334v16q0 80 -33 127t-88 47t-88 -46t-33 -122q0 -86 34 -138t89 -52q119 0 119 168zM512 1030v14q0 80 -33 127.5t-88 47.5q-53 0 -87 -45.5t-34 -120.5q0 -88 34 -139.5t89 -51.5q119 0 119 168z" />
<glyph unicode="&#x26;" horiz-adv-x="1554" d="M1540 221l-147 -248l-27 13q-141 66 -293 149l-18 10q-211 -166 -492 -165q-217 0 -356 110.5t-139 284.5q0 182 149 309q66 55 170 111q-80 129 -80 245q0 160 121 260.5t309 100.5q160 0 259.5 -84t99.5 -219q0 -213 -308 -377q84 -100 242 -217q43 63 66 145h278 q-23 -96 -51.5 -160.5t-69.5 -123.5q88 -47 148 -76q111 -51 119 -58zM795 1077q0 90 -86 90q-45 0 -76 -33.5t-31 -80.5q0 -68 53 -131q140 63 140 155zM831 303q-186 127 -299 277q-123 -59 -122 -168q0 -78 58 -125t155 -47q118 0 208 63z" />
<glyph unicode="'" horiz-adv-x="432" d="M350 897h-268v502h268v-502z" />
<glyph unicode="(" horiz-adv-x="782" d="M700 -203l-215 -145q-168 168 -271 416.5t-103 476.5q0 440 372 864l217 -152l-20 -30q-104 -158 -160.5 -338t-56.5 -357q0 -164 47 -335q53 -195 190 -400z" />
<glyph unicode=")" horiz-adv-x="782" d="M674 545q0 -227 -104.5 -475t-270.5 -418l-217 145q82 121 125 215q115 250 115 520q0 174 -56 355q-47 154 -182 370l215 152q375 -426 375 -864z" />
<glyph unicode="*" horiz-adv-x="909" d="M827 1198l-14 -201l-235 31l151 -201l-180 -88l-90 217l-103 -233l-168 119l140 186l-246 -31l16 201l230 -27l-150 199l178 96l93 -219l100 232l176 -121l-139 -187z" />
<glyph unicode="+" d="M1151 432h-401v-383h-220v383h-403v219h403v381h220v-381h401v-219z" />
<glyph unicode="," horiz-adv-x="663" d="M506 313l-117 -549h-205v549h322z" />
<glyph unicode="-" horiz-adv-x="657" d="M608 424h-561v254h561v-254z" />
<glyph unicode="." horiz-adv-x="745" d="M559 170q0 -78 -54 -133t-132 -55t-133.5 55t-55.5 133t55.5 132t133.5 54t132 -54t54 -132z" />
<glyph unicode="/" horiz-adv-x="1187" d="M1012 1405l-701 -1501l-137 63l700 1503z" />
<glyph unicode="0" d="M1165 711q0 -334 -154.5 -538t-408.5 -204q-242 0 -391.5 193.5t-149.5 505.5q0 330 155 532.5t407 202.5q244 0 393 -190.5t149 -501.5zM803 662q0 215 -52.5 341.5t-142.5 126.5q-186 0 -186 -419q0 -465 190 -465q90 0 140.5 109.5t50.5 306.5z" />
<glyph unicode="1" horiz-adv-x="1282" d="M913 0h-342v1055l-313 -154l-117 219l500 285l272 -92v-1313z" />
<glyph unicode="2" d="M1141 0h-973l-66 229l29 25l156 125q197 158 340 317q123 137 123 254q0 170 -209 170q-125 0 -324 -73l-92 245q41 23 115 45q219 70 389 70q209 0 329 -94q150 -117 150 -312q0 -199 -178 -405q-59 -68 -316 -291l-30 -26h557v-279z" />
<glyph unicode="3" d="M1118 449q0 -219 -241.5 -342t-669.5 -123h-33v252q573 23 574 231q0 158 -322 158h-33q-25 -2 -41 -2h-37v231q88 2 211 29q190 41 191 147q0 98 -156 98q-115 0 -309 -61l-80 233q119 43 203 64q154 37 280 37q182 0 288 -82t106 -221q0 -106 -71 -194.5t-187 -127.5 q158 -27 242.5 -112.5t84.5 -214.5z" />
<glyph unicode="4" d="M1204 242h-190v-242h-322v242h-602l-63 227l714 946l273 -90v-827h190v-256zM692 498v446l-334 -446h334z" />
<glyph unicode="5" d="M1102 498q0 -125 -70.5 -232.5t-189.5 -159.5q-291 -127 -680 -133l-12 252q156 12 237 27q346 59 346 240q0 156 -246 192q-68 10 -194 12l-57 201l90 471h749v-264h-493l-33 -172q553 -51 553 -434z" />
<glyph unicode="6" d="M1171 444q0 -205 -141 -340t-354 -135q-240 0 -398.5 170t-158.5 428q0 342 274.5 568.5t722.5 257.5l25 -246q-20 -2 -68 -8q-182 -27 -323 -97q-98 -49 -175 -118q-82 -76 -122 -191q49 57 108 86q92 45 197 45q182 0 297.5 -118t115.5 -302zM844 416q0 78 -51.5 129 t-126.5 51q-117 0 -205 -96q8 -115 67.5 -183.5t149.5 -68.5q72 0 119 47t47 121z" />
<glyph unicode="7" d="M1165 1139l-630 -1194l-330 131l563 1028h-625v266h990z" />
<glyph unicode="8" d="M1186 399q0 -180 -171 -305t-419 -125q-221 0 -361.5 104.5t-140.5 272.5q0 209 271 373q-201 129 -201 323q0 166 143.5 261.5t388.5 95.5q195 0 310.5 -88t115.5 -238q0 -90 -44 -168t-158 -170q86 -45 137 -86q129 -103 129 -250zM811 1065q0 98 -145 98 q-180 0 -181 -116q0 -53 52.5 -93.5t117.5 -70.5q156 82 156 182zM825 365q0 63 -100 129q-41 27 -115 61q-176 -102 -176 -205q0 -55 50.5 -90t131.5 -35q90 0 149.5 40.5t59.5 99.5z" />
<glyph unicode="9" d="M1161 803q0 -342 -274.5 -569.5t-722.5 -256.5l-23 246q563 68 686 414q-51 -57 -108 -86q-90 -43 -199 -43q-180 0 -295.5 117.5t-115.5 302.5q0 205 141 339t354 134q240 0 398.5 -170t158.5 -428zM819 872q-6 111 -66.5 181.5t-150.5 70.5q-72 0 -119 -48t-47 -120 q0 -78 50.5 -129t127.5 -51q117 0 205 96z" />
<glyph unicode=":" horiz-adv-x="745" d="M559 813q0 -76 -54 -131t-132 -55t-133.5 54t-55.5 132t55.5 133t133.5 55t132 -55t54 -133zM559 170q0 -78 -54 -133t-132 -55t-133.5 55t-55.5 133t55.5 132t133.5 54t132 -54t54 -132z" />
<glyph unicode=";" horiz-adv-x="745" d="M559 813q0 -76 -54 -131t-132 -55t-133.5 54t-55.5 132t55.5 133t133.5 55t132 -55t54 -133zM539 313l-115 -549h-205v549h320z" />
<glyph unicode="&#x3c;" d="M1067 141l-856 580v14l856 543v-104l-592 -381l592 -385v-267z" />
<glyph unicode="=" d="M1153 627h-1024v211h1024v-211zM1153 264h-1024v211h1024v-211z" />
<glyph unicode="&#x3e;" d="M1067 684l-856 -543v105l592 383l-592 385v264l856 -580v-14z" />
<glyph unicode="?" horiz-adv-x="1089" d="M1001 1053q0 -145 -104 -266t-293 -193v-152h-262l-33 316q164 41 258.5 110.5t94.5 147.5q0 113 -158 112q-119 0 -293 -63l-23 -8l-106 229q240 117 500 117q193 0 306 -95t113 -255zM674 170q0 -78 -54.5 -133t-130.5 -55q-78 0 -133 55t-55 133t55.5 132t132.5 54 q76 0 130.5 -54t54.5 -132z" />
<glyph unicode="@" horiz-adv-x="1730" d="M1626 856q0 -260 -219 -403q-156 -102 -434 -103q-25 0 -47 2l16 88q-96 -90 -207 -90q-102 0 -164.5 75t-62.5 198q0 178 103.5 315t236.5 137q123 0 196 -102l15 78h223l-100 -541q285 70 284 340q0 182 -141 292.5t-373 110.5q-285 0 -471 -172t-186 -436 q0 -240 173 -381t421 -141q195 0 373 88q72 37 170 102l94 -114q-98 -74 -211 -129q-207 -100 -436 -101q-344 0 -560.5 191.5t-216.5 498.5q0 317 243 530.5t601 213.5q299 0 489.5 -153.5t190.5 -393.5zM1010 799q-41 111 -113 110q-57 0 -96 -71q-55 -102 -56 -211 q0 -102 70 -103q51 0 98 39q27 20 62 60z" />
<glyph unicode="A" horiz-adv-x="1533" d="M1528 0h-381l-127 334h-537l-123 -334h-354l567 1366h377zM926 578l-178 462l-170 -462h348z" />
<glyph unicode="B" horiz-adv-x="1314" d="M1239 385q0 -172 -145.5 -278.5t-380.5 -106.5h-576v1366h522q94 0 195 -14q147 -20 233.5 -107.5t86.5 -210.5q0 -131 -95 -219q-66 -59 -200 -94q143 -23 223 -76q137 -90 137 -260zM819 985q0 76 -63 111q-45 25 -170 24h-101v-291h88q125 0 179 33q67 41 67 123z M862 438q0 94 -82 135q-53 27 -198 27h-97v-344h76q78 0 135 8q74 10 120 59t46 115z" />
<glyph unicode="C" horiz-adv-x="1380" d="M1358 119q-164 -90 -291 -121q-117 -29 -233 -29q-336 0 -547 194.5t-211 506.5q0 317 230.5 524t586.5 207q96 0 202.5 -18.5t219.5 -61.5l-84 -248q-27 8 -72 19q-115 27 -225 26q-219 0 -355.5 -118.5t-136.5 -311.5q0 -182 119 -301t299 -119q72 0 154 19 q104 23 217 80z" />
<glyph unicode="D" horiz-adv-x="1544" d="M1470 705q0 -360 -278 -558q-131 -92 -293 -120q-154 -27 -432 -27h-330v1366h432q217 0 371 -20q238 -33 384 -209t146 -432zM1096 707q0 190 -129 299q-66 55 -136 73q-82 23 -251 23h-86v-832h53q156 0 262 33q131 41 209 150t78 254z" />
<glyph unicode="E" horiz-adv-x="1224" d="M1122 0h-985v1366h948v-262h-589v-277h557v-254h-557v-297h626v-276z" />
<glyph unicode="F" horiz-adv-x="1126" d="M1065 1108h-571v-293h540v-254h-540v-561h-357v1366h928v-258z" />
<glyph unicode="G" horiz-adv-x="1452" d="M1356 72q-61 -25 -103 -39q-182 -61 -393 -62q-350 0 -567 192.5t-217 502.5q0 324 234.5 526.5t609.5 202.5q109 0 214 -19.5t222 -60.5l-84 -250q-47 16 -80 25q-125 31 -244 30q-225 0 -363.5 -124t-138.5 -326q0 -188 123 -306t322 -118q61 0 121 16v397h344v-587z " />
<glyph unicode="H" horiz-adv-x="1523" d="M1386 0h-354v592h-538v-592h-357v1366h357v-518h538v518h354v-1366z" />
<glyph unicode="I" horiz-adv-x="636" d="M500 0h-363v1366h363v-1366z" />
<glyph unicode="J" horiz-adv-x="778" d="M647 428q0 -86 -16 -149q-45 -170 -232 -240q-152 -57 -338 -70l-55 264q135 27 195 58q92 49 92 198v877h354v-938z" />
<glyph unicode="K" horiz-adv-x="1411" d="M1405 0h-447l-460 682v-682h-361v1366h361v-573l440 573h422l-510 -627z" />
<glyph unicode="L" horiz-adv-x="1118" d="M1090 0h-953v1366h361v-1090h592v-276z" />
<glyph unicode="M" horiz-adv-x="1748" d="M1720 0h-342l-96 807l-268 -807h-299l-287 807l-76 -807h-325l176 1366h370l308 -866l282 866h363z" />
<glyph unicode="N" horiz-adv-x="1499" d="M1362 0h-342l-553 760v-760h-330v1366h330l565 -780v780h330v-1366z" />
<glyph unicode="O" horiz-adv-x="1599" d="M1524 702q0 -317 -210 -525t-530 -208q-309 0 -508.5 196.5t-199.5 502.5q0 322 208 527.5t531 205.5q307 0 508 -198t201 -501zM1145 678q0 184 -100.5 303t-256.5 119q-152 0 -244.5 -109.5t-92.5 -285.5q0 -188 97 -307t249 -119q156 0 252 110.5t96 288.5z" />
<glyph unicode="P" horiz-adv-x="1216" d="M1178 985q0 -201 -139.5 -314.5t-381.5 -113.5h-163v-557h-357v1366h520q131 0 220 -16q137 -25 219 -124.5t82 -240.5zM813 969q0 150 -213 149h-106v-323h98q102 0 161.5 47t59.5 127z" />
<glyph unicode="Q" horiz-adv-x="1587" d="M1511 698q0 -281 -179 -486.5t-421 -205.5q-4 0 -16 2h-25q164 -49 287 -59q70 -6 156 -6q57 0 139 8l31 -264q-156 -14 -219 -15q-502 0 -845 287t-343 707q0 322 209 530.5t528 208.5q301 0 499.5 -201t198.5 -506zM1139 641q0 12 -2 45q-12 188 -105.5 302t-236.5 114 q-154 0 -248 -114t-94 -300q0 -213 94 -342t250 -129q154 0 248 117t94 307z" />
<glyph unicode="R" horiz-adv-x="1318" d="M1313 0h-414l-233 477q-41 84 -142 84h-30v-561h-357v1366h510q109 0 195 -10q152 -18 244 -111.5t92 -228.5q0 -127 -90.5 -222.5t-233.5 -119.5q35 -8 98 -37q51 -37 80 -90zM813 969q0 82 -61 123q-45 31 -158 30h-100v-325h86q233 0 233 172z" />
<glyph unicode="S" horiz-adv-x="1177" d="M1110 440q0 -213 -172 -339t-463 -126q-221 0 -405 54l53 272l41 -6q178 -27 262 -27q305 0 305 135q0 47 -41 77t-151 65q-201 63 -287 127q-147 109 -148 297q0 197 165 312.5t444 115.5q156 0 334 -43l-46 -256q-135 20 -237 20q-297 0 -297 -114q0 -23 16 -46 q37 -41 189 -92q211 -70 301 -137q137 -103 137 -289z" />
<glyph unicode="T" horiz-adv-x="1206" d="M1194 1106h-408v-1106h-356v1106h-416v260h1180v-260z" />
<glyph unicode="U" horiz-adv-x="1511" d="M1382 643q0 -207 -41 -326q-55 -160 -215.5 -252t-384.5 -92q-289 0 -460 142q-86 70 -118 169t-32 291v791h354v-793q0 -92 7 -129q14 -66 59 -110q70 -70 199 -70q166 0 243 92q59 68 60 277v733h329v-723z" />
<glyph unicode="V" horiz-adv-x="1447" d="M1440 1366l-533 -1366h-375l-526 1366h373l358 -1018l355 1018h348z" />
<glyph unicode="W" horiz-adv-x="2056" d="M2048 1366l-379 -1366h-358l-281 856l-289 -856h-344l-391 1366h352l240 -907l299 907h295l307 -907l219 907h330z" />
<glyph unicode="X" horiz-adv-x="1378" d="M1370 0h-432l-252 485l-289 -485h-391l473 715l-430 651h428l211 -408l232 408h395l-422 -641z" />
<glyph unicode="Y" horiz-adv-x="1355" d="M1348 1366l-492 -776v-590h-354v590l-496 776h428l254 -498l270 498h390z" />
<glyph unicode="Z" horiz-adv-x="1234" d="M1180 0h-1125v262l633 846h-622v258h1085v-229l-631 -854h660v-283z" />
<glyph unicode="[" horiz-adv-x="841" d="M745 -317h-614v1683h614v-242h-274v-1200h274v-241z" />
<glyph unicode="\" horiz-adv-x="1187" d="M1012 -33l-138 -63l-700 1501l137 65z" />
<glyph unicode="]" horiz-adv-x="841" d="M711 -317h-615v241h275v1200h-275v242h615v-1683z" />
<glyph unicode="^" d="M1208 578h-104l-381 591l-385 -591h-266l579 856h15z" />
<glyph unicode="_" d="M1120 -307h-962v123h962v-123z" />
<glyph unicode="`" horiz-adv-x="532" d="M532 1241l-71 -137l-461 180l84 182z" />
<glyph unicode="a" horiz-adv-x="1097" d="M1069 27q-119 -51 -217 -52q-180 0 -223 136q-152 -135 -301 -136q-109 0 -184.5 76t-75.5 185q0 303 534 403v10q0 59 -21.5 83t-74.5 24q-37 0 -80 -11q-29 -6 -70 -20q-61 -20 -131 -55l-28 -15l-99 197q256 162 510 162q160 0 246 -82q74 -70 74 -246v-410 q0 -23 17.5 -45t53.5 -22q-8 0 33 4l21 2zM604 287v176q-225 -55 -225 -170q0 -31 22.5 -52.5t55.5 -21.5q57 0 147 68z" />
<glyph unicode="b" horiz-adv-x="1251" d="M1176 530q0 -242 -122 -397.5t-311 -155.5q-109 0 -194 58q-45 31 -103 102v-137h-315v1466h326v-608q174 160 331 160q174 0 281 -134.5t107 -353.5zM838 487q0 106 -52.5 177t-132.5 71q-104 0 -196 -112v-267q94 -115 192 -114q82 0 135.5 69.5t53.5 175.5z" />
<glyph unicode="c" horiz-adv-x="1034" d="M1006 137q-86 -63 -158 -94q-143 -63 -287 -63q-219 0 -352 137t-133 364q0 238 152.5 386.5t396.5 148.5q158 0 338 -82l-86 -213q-63 27 -105 35q-61 12 -108 12q-111 0 -178.5 -71.5t-67.5 -186.5t60.5 -189.5t154.5 -74.5q59 0 137 26q43 14 115 54z" />
<glyph unicode="d" horiz-adv-x="1251" d="M1120 0h-313v166q-86 -98 -156 -137q-100 -55 -202 -56q-166 0 -269.5 135.5t-103.5 352.5q0 246 123 401.5t317 155.5q94 0 176 -47q45 -25 101 -84v579h327v-1466zM793 367v268q-88 115 -197 115q-82 0 -131 -66t-49 -178q0 -111 51 -180.5t133 -69.5q97 0 193 111z " />
<glyph unicode="e" horiz-adv-x="1120" d="M1065 150q-106 -80 -246.5 -128.5t-263.5 -48.5q-213 0 -346 138.5t-133 361.5q0 238 149.5 390.5t380.5 152.5q215 0 331 -137.5t116 -391.5v-57h-629q25 -207 211 -207q63 0 164 35q61 20 147 70zM731 627q-8 197 -137 196q-137 0 -170 -205z" />
<glyph unicode="f" horiz-adv-x="819" d="M891 1456l-47 -221q-66 8 -103 8q-119 0 -165 -50t-46 -181v-25h265v-211h-265v-776h-327v776h-189v211h189v64q0 176 55 262q113 176 401 176q41 0 101 -6q68 -7 131 -27z" />
<glyph unicode="g" horiz-adv-x="1183" d="M1198 -113q0 -170 -169 -275.5t-443 -105.5q-250 0 -400.5 82t-150.5 217q0 180 227 220q-49 10 -86 24q-51 20 -51 51q0 16 37 64q10 12 112 149l19 25q-162 115 -162 289q0 170 133 279.5t340 109.5q100 0 189 -29h346v-217h-174q45 -59 45 -147q0 -150 -122 -250.5 t-302 -100.5q-14 0 -94 7l-9 -11l-14 -22q-6 -10 -31 -41q113 -33 269 -53l202 -27q289 -39 289 -238zM711 637q0 84 -39 135t-103 51q-59 0 -95 -44t-36 -115q0 -86 37 -138.5t100 -52.5q136 0 136 164zM866 -166q0 43 -51 60q-41 12 -184 30q-82 10 -164 29 q-121 -33 -121 -113q0 -57 74 -92t194 -35q113 0 182.5 34t69.5 87z" />
<glyph unicode="h" horiz-adv-x="1234" d="M1112 0h-332v565q0 88 -19.5 121t-70.5 33q-113 0 -229 -127v-592h-330v1466h330v-618q190 170 362 170q188 0 260 -144q29 -57 29 -190v-684z" />
<glyph unicode="i" horiz-adv-x="585" d="M473 1262q0 -76 -53 -128.5t-127 -52.5t-126 52.5t-52 128.5q0 74 52 126t126 52t127 -52t53 -126zM457 0h-326v987h326v-987z" />
<glyph unicode="j" horiz-adv-x="614" d="M500 1262q0 -74 -52.5 -127.5t-125.5 -53.5q-74 0 -127.5 52.5t-53.5 128.5q0 74 53.5 126t127.5 52t126 -52t52 -126zM485 72q0 -213 -55 -320q-66 -129 -246 -198q-90 -35 -213 -48l-61 234q104 31 166.5 79t73.5 118q8 51 8 135v915h327v-915z" />
<glyph unicode="k" horiz-adv-x="1173" d="M1161 0h-399l-301 494v-494h-330v1466h330v-862l278 383h398l-346 -438z" />
<glyph unicode="l" horiz-adv-x="593" d="M463 0h-332v1466h332v-1466z" />
<glyph unicode="m" horiz-adv-x="1777" d="M1655 0h-316l-2 602q0 115 -77 115q-53 0 -121 -49q-57 -41 -88 -82v-586h-316v551q0 90 -12 123q-16 43 -68 43q-45 0 -107.5 -40t-101.5 -91v-586h-315v987h305v-139q172 170 350 170q190 0 246 -180q186 180 359 180q106 0 178 -64q61 -53 78 -153q8 -49 8 -178v-623z " />
<glyph unicode="n" horiz-adv-x="1214" d="M1090 0h-328v510q0 57 -4 113q-6 94 -88 94q-98 0 -213 -129v-588h-326v987h313v-151q170 182 371 182q129 0 202 -81t73 -325v-612z" />
<glyph unicode="o" horiz-adv-x="1204" d="M1128 506q0 -229 -149.5 -380t-378.5 -151t-376.5 142.5t-147.5 365.5q0 236 150.5 386.5t385.5 150.5q223 0 369.5 -145.5t146.5 -368.5zM782 494q0 121 -52 197.5t-134 76.5q-78 0 -127 -70.5t-49 -185.5q0 -121 52 -198.5t134 -77.5t129 69.5t47 188.5z" />
<glyph unicode="p" horiz-adv-x="1257" d="M1176 530q0 -242 -122 -397.5t-311 -155.5q-176 0 -286 154v-604h-326v1460h301v-151q80 78 148 118q104 63 208 64q174 0 281 -134.5t107 -353.5zM838 487q0 106 -52.5 177t-132.5 71q-104 0 -196 -112v-267q94 -115 192 -114q82 0 135.5 69.5t53.5 175.5z" />
<glyph unicode="q" horiz-adv-x="1257" d="M1126 -473h-327v625q-66 -80 -142 -123q-96 -55 -202 -56q-166 0 -269.5 135.5t-103.5 352.5q0 246 123 401.5t317 155.5q164 0 293 -148v117h311v-1460zM799 367v268q-88 115 -197 115q-82 0 -131 -66t-49 -178q0 -111 51 -180.5t133 -69.5q97 0 193 111z" />
<glyph unicode="r" horiz-adv-x="860" d="M848 987l-57 -276q-37 6 -54 6q-147 0 -276 -289v-428h-330v987h315v-207q117 225 308 226q55 -1 94 -19z" />
<glyph unicode="s" horiz-adv-x="966" d="M897 322q0 -160 -137 -251t-375 -91q-158 0 -315 36l51 230q121 -18 221 -19q207 0 207 74q0 35 -62 55q-213 74 -290 140q-90 76 -91 194q0 145 128 233.5t337 88.5q147 0 287 -33l-45 -213q-123 23 -199 22q-170 0 -170 -65q0 -37 66 -59l160 -58q82 -31 143 -86 q84 -75 84 -198z" />
<glyph unicode="t" horiz-adv-x="833" d="M778 18q-129 -43 -260 -43q-143 0 -233 56q-104 63 -105 260v487h-186v209h186v326h330v-326h268v-209h-268v-436q0 -63 40 -88t107 -25q37 0 121 13v-224z" />
<glyph unicode="u" horiz-adv-x="1214" d="M1075 0h-323v154q-27 -33 -72 -68q-139 -106 -272 -106q-90 0 -163 45t-104 127q-27 74 -26 260v575h329v-573q0 -129 95 -129q111 0 213 127v575h323v-987z" />
<glyph unicode="v" horiz-adv-x="1146" d="M1133 987l-373 -987h-369l-377 987h363l219 -653l223 653h314z" />
<glyph unicode="w" horiz-adv-x="1658" d="M1645 987l-306 -987h-344l-164 621l-169 -621h-347l-301 987h330l166 -618l164 618h340l164 -618l161 618h306z" />
<glyph unicode="x" horiz-adv-x="1132" d="M1120 0h-397l-172 295l-174 -295h-363l348 520l-313 467h387l148 -260l139 260h350l-307 -467z" />
<glyph unicode="y" horiz-adv-x="1146" d="M1133 987l-418 -1096q-8 -23 -31 -75q-51 -115 -102 -178q-111 -137 -336 -138q-98 0 -219 33l53 234q88 -12 119 -13q121 0 196 154l17 33l-398 1046h361l219 -653l225 653h314z" />
<glyph unicode="z" horiz-adv-x="1036" d="M967 0h-891v242l418 491h-402v254h864v-217l-421 -500h432v-270z" />
<glyph unicode="{" horiz-adv-x="819" d="M750 -317h-299q-102 0 -170 65q-74 70 -74 184v301q0 225 -148 238v231q147 12 148 246v170q0 113 76 182q70 66 170 66h297v-242h-129q-51 0 -68 -49q-10 -31 -10 -110v-154q0 -117 -47 -170q-23 -25 -90 -53q66 -29 90 -58q47 -57 47 -176v-270q0 -162 78 -162h129 v-239z" />
<glyph unicode="|" horiz-adv-x="593" d="M467 -342h-340v1708h340v-1708z" />
<glyph unicode="}" horiz-adv-x="819" d="M760 471q-147 -12 -148 -238v-301q0 -115 -70.5 -182t-172.5 -67h-299v239h129q78 0 77 162v270q0 119 48 176q25 29 90 58q-68 29 -90 53q-47 53 -48 170v154q0 80 -10 110q-16 49 -67 49h-129v242h297q100 0 172.5 -67.5t72.5 -180.5v-170q0 -233 148 -246v-231z" />
<glyph unicode="~" d="M1055 1479q-53 -92 -107 -140q-82 -74 -172 -73q-49 0 -170 43q-37 14 -100 32q-35 8 -70 9q-61 0 -100 -29l-76 -76l-37 23q63 104 117 151q74 63 162 64q35 0 64.5 -8.5t107.5 -34.5q113 -39 160 -39q96 0 182 102z" />
<glyph unicode="&#xa1;" horiz-adv-x="759" d="M559 862q0 -78 -55 -133t-133 -55t-132.5 55t-54.5 133t55.5 132.5t131.5 54.5q78 0 133 -54.5t55 -132.5zM557 -334h-362l38 924h275z" />
<glyph unicode="&#xa2;" d="M1096 434l-56 -39q-90 -59 -196 -92q-70 -20 -162 -27l-20 -188h-146l21 197q-53 12 -99 30q-127 51 -200.5 176t-73.5 287q0 219 129 362.5t350 168.5l19 184h145l-21 -184q49 -4 111 -21q74 -18 154 -57l-86 -213q-53 23 -103 33q-74 14 -108 14q-111 0 -179.5 -71.5 t-68.5 -186.5t61.5 -189.5t155.5 -74.5q57 0 137 26q41 14 115 54z" />
<glyph unicode="&#xa3;" horiz-adv-x="1339" d="M1257 1346l-94 -250q-111 33 -196 32q-223 0 -262 -204l-15 -76h465v-254h-506q-8 -76 -20 -129q-33 -129 -109 -189h719v-276h-1120l-64 242q104 8 155.5 62t72.5 177l18 113h-219v254h256l22 119q82 436 562 436q157 0 335 -57z" />
<glyph unicode="&#xa4;" d="M1262 141q-174 -170 -461 -170q-236 0 -387.5 117t-196.5 334h-199v209h179q-4 18 -4 59t4 58h-179v215h213q61 209 215 321q145 104 349 105q246 0 460 -158l-157 -197q-145 98 -283 99q-152 0 -223 -170h444v-215h-487q-4 -14 -4 -58q0 -45 4 -59h487v-209h-467 q53 -199 238 -199q141 0 297 103z" />
<glyph unicode="&#xa5;" d="M1274 1366l-295 -494h215v-208h-342l-37 -66v-43h379v-207h-379v-348h-344v348h-377v207h377v43l-39 66h-338v208h211l-299 494h402l241 -494l244 494h381z" />
<glyph unicode="&#xa6;" horiz-adv-x="593" d="M467 1366h-340v-739h340v739zM467 -342h-340v748h340v-748z" />
<glyph unicode="&#xa7;" horiz-adv-x="1171" d="M1075 598q0 -182 -164 -276q117 -92 117 -216q0 -164 -136 -257t-380 -93q-223 0 -387 51l55 224q131 -33 273 -33q217 0 217 88q0 47 -103 82q-160 53 -276 113q-215 109 -215 305q0 180 176 274q-109 72 -109 201q0 156 136.5 245t371.5 89q172 0 375 -49l-49 -220 q-121 29 -291 29q-188 0 -188 -78q0 -14 10 -30q27 -33 151 -74q197 -66 299 -142q117 -86 117 -233zM774 545q0 47 -46 77.5t-146 71.5l-107 43q-86 -20 -86 -102q0 -47 45 -78q63 -43 168 -84l92 -37q80 35 80 109z" />
<glyph unicode="&#xa8;" horiz-adv-x="776" d="M776 1278q0 -59 -42 -102t-103 -43q-59 0 -102.5 43t-43.5 102q0 61 43 103t103 42q61 0 103 -42t42 -103zM291 1278q0 -59 -43 -102t-103 -43q-59 0 -102 43t-43 102t43 102t102 43t102.5 -42t43.5 -103z" />
<glyph unicode="&#xa9;" horiz-adv-x="1652" d="M1550 684q0 -301 -212 -513t-511 -212t-512 212t-213 513q0 299 213 511t512 212t511 -212t212 -511zM1456 684q0 260 -184.5 443.5t-444.5 183.5t-444 -183.5t-184 -443.5t184 -444.5t444 -184.5t444.5 184.5t184.5 444.5zM1178 360l-17 -8q-172 -86 -319 -86 q-209 0 -341 115t-132 297q0 188 143 310t367 122q135 0 256 -45l16 -6l-55 -158l-17 4q-25 6 -43 13q-76 14 -135 14q-123 0 -197.5 -66.5t-74.5 -175.5q0 -102 64.5 -169.5t164.5 -67.5q35 0 92.5 13t126.5 46q-4 0 15 6z" />
<glyph unicode="&#xaa;" horiz-adv-x="673" d="M645 780l-4 -2l-31 -12q-45 -18 -98 -18q-106 0 -129 77q-92 -78 -174 -77q-66 0 -110 47t-44 116q0 182 310 246q0 59 -54 60q-31 0 -84 -19q-33 -12 -92 -41l-2 -2l-61 127l2 2q156 98 299 98q100 0 144 -48t44 -154v-224q0 -25 5 -41t32 -16q2 0 35 4zM631 526h-561 v125h561v-125zM365 944v96q-49 -10 -85 -38.5t-36 -55.5q0 -41 39 -41q35 0 82 39z" />
<glyph unicode="&#xab;" horiz-adv-x="976" d="M891 211l-178 -102l-281 405l281 383l164 -94l-164 -289zM498 211l-172 -105l-279 408l279 389l172 -100l-172 -289z" />
<glyph unicode="&#xac;" d="M1085 0h-159v432h-731v115h890v-547z" />
<glyph unicode="&#xad;" d="M1151 432h-1024v219h1024v-219z" />
<glyph unicode="&#x2212;" d="M1151 432h-1024v219h1024v-219z" />
<glyph unicode="&#xae;" horiz-adv-x="1652" d="M1550 684q0 -301 -212 -513t-511 -212t-512 212t-213 513q0 299 213 511t512 212t511 -212t212 -511zM1456 684q0 260 -184.5 443.5t-444.5 183.5t-444 -183.5t-184 -443.5t184 -444.5t444 -184.5t444.5 184.5t184.5 444.5zM1241 285h-287l-145 288q-14 37 -57 37h-4 v-325h-254v805h325q150 0 223 -35q115 -55 115 -174q0 -66 -48 -124.5t-120 -72.5l-10 -2l12 -6q10 -2 39 -21q31 -31 35 -39zM899 854q0 82 -111 82h-40v-176h32q119 0 119 94z" />
<glyph unicode="&#xaf;" horiz-adv-x="974" d="M776 1184h-577v196h577v-196z" />
<glyph unicode="&#x2c9;" horiz-adv-x="974" d="M776 1184h-577v196h577v-196z" />
<glyph unicode="&#xb0;" d="M922 1110q0 -117 -83 -199t-200 -82q-119 0 -201 82t-82 199q0 115 83 197t200 82t200 -82t83 -197zM793 1110q0 63 -46.5 109.5t-109.5 46.5t-107.5 -45t-44.5 -111t45 -112t109 -46q63 0 108.5 47.5t45.5 110.5z" />
<glyph unicode="&#xb1;" d="M1104 629h-410v-410h-108v410h-410v108h410v410h108v-410h410v-108zM1104 0h-928v109h928v-109z" />
<glyph unicode="&#xb2;" horiz-adv-x="737" d="M621 723h-512l-41 133l131 102q74 57 129 114.5t55 103.5q0 55 -78 55q-53 0 -170 -41l-59 151q129 63 272 64q109 0 174 -47q82 -59 82 -160q0 -86 -80 -172q-35 -37 -153 -133h250v-170z" />
<glyph unicode="&#xb3;" horiz-adv-x="716" d="M606 954q0 -113 -126 -173t-337 -60h-39v156q276 10 277 84q0 49 -133 49h-76v139q51 2 111 16q84 20 84 52q0 31 -54 30q-47 0 -163 -35l-52 138q162 55 260 55q94 0 154.5 -42t60.5 -116q0 -47 -28.5 -90t-75.5 -51q137 -25 137 -152z" />
<glyph unicode="&#xb4;" horiz-adv-x="530" d="M530 1284l-458 -178l-72 137l446 227z" />
<glyph unicode="&#xb5;" horiz-adv-x="1214" d="M1075 0h-303v172q-33 -41 -92 -86q-133 -100 -258 -106v-216h-307v1223h327v-573q0 -129 95 -129q115 0 215 127v575h323v-987z" />
<glyph unicode="&#x3bc;" horiz-adv-x="1214" d="M1075 0h-303v172q-33 -41 -92 -86q-133 -100 -258 -106v-216h-307v1223h327v-573q0 -129 95 -129q115 0 215 127v575h323v-987z" />
<glyph unicode="&#xb6;" d="M1094 -242h-185v1448h-98v-1448h-184v830q-205 0 -320 98q-123 104 -123 303q0 154 95.5 254t250.5 115q92 8 209 8h355v-1608z" />
<glyph unicode="&#xb7;" horiz-adv-x="745" d="M559 682q0 -76 -54 -131t-132 -55t-133.5 54t-55.5 132t55.5 133t133.5 55t132 -55t54 -133z" />
<glyph unicode="&#x22c5;" horiz-adv-x="745" d="M559 682q0 -76 -54 -131t-132 -55t-133.5 54t-55.5 132t55.5 133t133.5 55t132 -55t54 -133z" />
<glyph unicode="&#x2219;" horiz-adv-x="745" d="M559 682q0 -76 -54 -131t-132 -55t-133.5 54t-55.5 132t55.5 133t133.5 55t132 -55t54 -133z" />
<glyph unicode="&#xb8;" horiz-adv-x="974" d="M469 -367l-154 70l138 274l204 -43z" />
<glyph unicode="&#xb9;" horiz-adv-x="696" d="M498 721h-213v465l-138 -64l-77 135l272 148l156 -51v-633z" />
<glyph unicode="&#xba;" horiz-adv-x="737" d="M678 1071q0 -139 -88 -231t-223 -92q-133 0 -220.5 87t-87.5 220q0 145 88.5 237t227.5 92q131 0 217 -88t86 -225zM664 526h-590v125h590v-125zM469 1065q0 70 -29.5 114t-74.5 44q-98 0 -99 -148v-12q0 -66 31 -108t74 -42q98 0 98 152z" />
<glyph unicode="&#xbb;" horiz-adv-x="976" d="M928 514l-277 -408l-172 105l172 303l-172 289l172 100zM545 514l-281 -405l-178 102l178 303l-164 289l164 94z" />
<glyph unicode="&#xbc;" horiz-adv-x="1433" d="M1241 1303l-913 -1340l-168 100l917 1346zM1325 111h-92v-111h-182v111h-310l-39 129l361 448l170 -45v-383h92v-149zM471 721h-213v465l-137 -64l-78 135l272 148l156 -51v-633zM1051 260v209l-158 -209h158z" />
<glyph unicode="&#xbd;" horiz-adv-x="1433" d="M1368 0h-512l-41 133l131 103q74 57 129 114.5t55 102.5q0 55 -77 55q-53 0 -170 -41l-60 151q129 63 273 64q109 0 174 -47q82 -59 82 -160q0 -86 -80 -172q-35 -37 -154 -133h250v-170zM1210 1303l-913 -1340l-168 100l918 1346zM440 721h-213v465l-137 -64l-78 135 l273 148l155 -51v-633z" />
<glyph unicode="&#xbe;" horiz-adv-x="1433" d="M1288 1303l-913 -1340l-168 100l917 1346zM606 954q0 -113 -126 -173t-337 -60h-39v156q276 10 277 84q0 49 -133 49h-76v139q51 2 111 16q84 20 84 52q0 31 -54 30q-47 0 -163 -35l-52 138q162 55 260 55q94 0 154.5 -42t60.5 -116q0 -47 -28.5 -90t-75.5 -51 q137 -25 137 -152zM1329 111h-92v-111h-182v111h-310l-38 129l360 448l170 -45v-383h92v-149zM1055 260v207l-158 -207h158z" />
<glyph unicode="&#xbf;" horiz-adv-x="1089" d="M782 899q0 -78 -55 -133t-133 -55q-76 0 -130 55t-54 133t54 132t130 54q78 0 133 -54t55 -132zM1001 -219q-244 -115 -499 -115q-193 0 -306.5 95.5t-113.5 254.5q0 145 105.5 266t291.5 191v152h262l31 -314q-162 -41 -256 -110.5t-94 -147.5q0 -113 158 -112 q125 0 292 61l23 8z" />
<glyph unicode="&#xc0;" horiz-adv-x="1533" d="M1061 1661l-55 -164l-531 137l68 217zM1528 0h-381l-127 334h-537l-123 -334h-354l567 1366h377zM926 578l-178 462l-170 -462h348z" />
<glyph unicode="&#xc1;" horiz-adv-x="1533" d="M1061 1634l-537 -137l-49 160l516 194zM1528 0h-381l-127 334h-537l-123 -334h-354l567 1366h377zM926 578l-178 462l-170 -462h348z" />
<glyph unicode="&#xc2;" horiz-adv-x="1533" d="M1176 1651l-80 -154l-324 129l-334 -129l-80 154l414 202zM1528 0h-381l-127 334h-537l-123 -334h-354l567 1366h377zM926 578l-178 462l-170 -462h348z" />
<glyph unicode="&#xc3;" horiz-adv-x="1533" d="M1176 1679q-156 -137 -281 -137q-53 0 -139 27l-80 24q-14 4 -47 4q-72 0 -166 -63l-105 139q135 129 263 129q59 0 145 -30.5t121 -30.5q78 0 184 74zM1528 0h-381l-127 334h-537l-123 -334h-354l567 1366h377zM926 578l-178 462l-170 -462h348z" />
<glyph unicode="&#xc4;" horiz-adv-x="1533" d="M1204 1667q0 -63 -45 -107t-108 -44t-108.5 44t-45.5 107q0 66 45 110t109 44q63 0 108 -45.5t45 -108.5zM637 1667q0 -63 -45 -107t-109 -44q-63 0 -107 44t-44 107t44 108.5t107 45.5q66 0 110 -44t44 -110zM1528 0h-381l-127 334h-537l-123 -334h-354l567 1366h377z M926 578l-178 462l-170 -462h348z" />
<glyph unicode="&#xc5;" horiz-adv-x="1533" d="M985 1671q0 -90 -63.5 -153.5t-153.5 -63.5t-154.5 63.5t-64.5 153.5t64.5 154.5t154.5 64.5t153.5 -64.5t63.5 -154.5zM1528 0h-381l-127 334h-537l-123 -334h-354l567 1366h377zM868 1671q0 41 -29.5 71t-70.5 30q-43 0 -72.5 -30t-29.5 -71t29.5 -70.5t72.5 -29.5 q41 0 70.5 29.5t29.5 70.5zM926 578l-178 462l-170 -462h348z" />
<glyph unicode="&#xc6;" horiz-adv-x="2056" d="M1954 0h-903v334h-459l-189 -334h-397l838 1366h1071v-262h-504v-277h469v-254h-469v-297h543v-276zM1051 578v555l-318 -555h318z" />
<glyph unicode="&#xc7;" horiz-adv-x="1380" d="M1358 119q-164 -90 -291 -121q-86 -20 -186 -29l-160 -397l-182 51l102 365q-268 61 -416.5 240.5t-148.5 441.5q0 317 230.5 524t586.5 207q96 0 202.5 -18.5t219.5 -61.5l-84 -248q-27 8 -72 19q-115 27 -225 26q-219 0 -355.5 -118.5t-136.5 -311.5q0 -182 119 -301 t299 -119q72 0 154 19q104 23 217 80z" />
<glyph unicode="&#xc8;" horiz-adv-x="1224" d="M922 1661l-54 -164l-532 137l67 217zM1122 0h-985v1366h948v-262h-589v-277h557v-254h-557v-297h626v-276z" />
<glyph unicode="&#xc9;" horiz-adv-x="1224" d="M922 1634l-535 -137l-51 160l516 194zM1122 0h-985v1366h948v-262h-589v-277h557v-254h-557v-297h626v-276z" />
<glyph unicode="&#xca;" horiz-adv-x="1224" d="M1038 1651l-80 -154l-323 129l-336 -129l-78 154l414 202zM1122 0h-985v1366h948v-262h-589v-277h557v-254h-557v-297h626v-276z" />
<glyph unicode="&#xcb;" horiz-adv-x="1224" d="M1065 1667q0 -63 -44 -107t-108 -44q-63 0 -108 44t-45 107q0 66 45 110t108 44t107.5 -45.5t44.5 -108.5zM500 1667q0 -63 -45 -107t-109 -44q-63 0 -108 44t-45 107t45 108.5t108 45.5t108.5 -45.5t45.5 -108.5zM1122 0h-985v1366h948v-262h-589v-277h557v-254h-557 v-297h626v-276z" />
<glyph unicode="&#xcc;" horiz-adv-x="638" d="M612 1661l-55 -164l-530 137l67 217zM500 0h-363v1366h363v-1366z" />
<glyph unicode="&#xcd;" horiz-adv-x="638" d="M612 1634l-534 -137l-51 160l516 194zM500 0h-363v1366h363v-1366z" />
<glyph unicode="&#xce;" horiz-adv-x="636" d="M727 1651l-80 -154l-323 129l-334 -129l-80 154l414 202zM500 0h-363v1366h363v-1366z" />
<glyph unicode="&#xcf;" horiz-adv-x="636" d="M756 1667q0 -63 -45 -107t-109 -44q-63 0 -108 44t-45 107t45 108.5t108 45.5t108.5 -45.5t45.5 -108.5zM188 1667q0 -63 -45 -107t-108 -44t-107.5 44t-44.5 107t44 108.5t108 45.5q66 0 109.5 -44t43.5 -110zM500 0h-363v1366h363v-1366z" />
<glyph unicode="&#xd0;" horiz-adv-x="1544" d="M1468 705q0 -360 -278 -558q-131 -92 -293 -120q-154 -27 -432 -27h-330v582h-172v237h172v547h432q217 0 371 -20q238 -33 384 -209t146 -432zM1094 707q0 190 -129 299q-66 55 -136 73q-82 23 -251 23h-86v-283h288v-237h-288v-312h53q156 0 262 33q131 41 209 150 t78 254z" />
<glyph unicode="&#xd1;" horiz-adv-x="1499" d="M1157 1679q-156 -137 -280 -137q-53 0 -140 27l-80 24q-12 4 -47 4q-72 0 -166 -63l-104 139q135 129 262 129q59 0 145.5 -30.5t122.5 -30.5q74 0 185 74zM1362 0h-342l-553 760v-760h-330v1366h330l565 -780v780h330v-1366z" />
<glyph unicode="&#xd2;" horiz-adv-x="1599" d="M1092 1661l-54 -164l-532 137l69 217zM1524 702q0 -317 -210 -525t-530 -208q-309 0 -508.5 196.5t-199.5 502.5q0 322 208 527.5t531 205.5q307 0 508 -198t201 -501zM1145 678q0 184 -100.5 303t-256.5 119q-152 0 -244.5 -109.5t-92.5 -285.5q0 -188 97 -307t249 -119 q156 0 252 110.5t96 288.5z" />
<glyph unicode="&#xd3;" horiz-adv-x="1599" d="M1092 1634l-535 -137l-51 160l518 194zM1524 702q0 -317 -210 -525t-530 -208q-309 0 -508.5 196.5t-199.5 502.5q0 322 208 527.5t531 205.5q307 0 508 -198t201 -501zM1145 678q0 184 -100.5 303t-256.5 119q-152 0 -244.5 -109.5t-92.5 -285.5q0 -188 97 -307 t249 -119q156 0 252 110.5t96 288.5z" />
<glyph unicode="&#xd4;" horiz-adv-x="1599" d="M1208 1651l-80 -154l-323 129l-336 -129l-78 154l414 202zM1524 702q0 -317 -210 -525t-530 -208q-309 0 -508.5 196.5t-199.5 502.5q0 322 208 527.5t531 205.5q307 0 508 -198t201 -501zM1145 678q0 184 -100.5 303t-256.5 119q-152 0 -244.5 -109.5t-92.5 -285.5 q0 -188 97 -307t249 -119q156 0 252 110.5t96 288.5z" />
<glyph unicode="&#xd5;" horiz-adv-x="1599" d="M1208 1679q-156 -137 -280 -137q-55 0 -140 27q-90 29 -126 28q-72 0 -166 -63l-105 139q135 129 262 129q59 0 145.5 -30.5t121.5 -30.5q78 0 184 74zM1524 702q0 -317 -210 -525t-530 -208q-309 0 -508.5 196.5t-199.5 502.5q0 322 208 527.5t531 205.5q307 0 508 -198 t201 -501zM1145 678q0 184 -100.5 303t-256.5 119q-152 0 -244.5 -109.5t-92.5 -285.5q0 -188 97 -307t249 -119q156 0 252 110.5t96 288.5z" />
<glyph unicode="&#xd6;" horiz-adv-x="1599" d="M1237 1667q0 -63 -45 -107t-109 -44q-63 0 -108 44t-45 107q0 66 45 110t108 44t108.5 -45.5t45.5 -108.5zM670 1667q0 -63 -45 -107t-109 -44q-63 0 -108.5 44t-45.5 107t45.5 108.5t108.5 45.5t108.5 -45.5t45.5 -108.5zM1524 702q0 -317 -210 -525t-530 -208 q-309 0 -508.5 196.5t-199.5 502.5q0 322 208 527.5t531 205.5q307 0 508 -198t201 -501zM1145 678q0 184 -100.5 303t-256.5 119q-152 0 -244.5 -109.5t-92.5 -285.5q0 -188 97 -307t249 -119q156 0 252 110.5t96 288.5z" />
<glyph unicode="&#xd7;" d="M1198 172l-178 -178l-379 377l-379 -377l-178 178l377 379l-379 379l178 178l381 -377l379 377l178 -178l-377 -379z" />
<glyph unicode="&#xd8;" horiz-adv-x="1599" d="M1524 700q0 -315 -210 -523t-530 -208q-262 0 -458 152l-144 -144l-104 107l143 143q-145 190 -145 441q0 322 208 527.5t531 205.5q250 0 438 -139l144 143l110 -105l-143 -141q160 -191 160 -459zM1010 1018q-94 82 -222 82q-152 0 -244.5 -109.5t-92.5 -285.5 q0 -121 38 -209zM1147 674q0 117 -47 221l-527 -526q92 -90 224 -90q156 0 253 110.5t97 284.5z" />
<glyph unicode="&#xd9;" horiz-adv-x="1511" d="M1049 1661l-54 -164l-532 137l67 217zM1382 643q0 -207 -41 -326q-55 -160 -215.5 -252t-384.5 -92q-289 0 -460 142q-86 70 -118 169t-32 291v791h354v-793q0 -92 7 -129q14 -66 59 -110q70 -70 199 -70q166 0 243 92q59 68 60 277v733h329v-723z" />
<glyph unicode="&#xda;" horiz-adv-x="1511" d="M1049 1634l-535 -137l-51 160l516 194zM1382 643q0 -207 -41 -326q-55 -160 -215.5 -252t-384.5 -92q-289 0 -460 142q-86 70 -118 169t-32 291v791h354v-793q0 -92 7 -129q14 -66 59 -110q70 -70 199 -70q166 0 243 92q59 68 60 277v733h329v-723z" />
<glyph unicode="&#xdb;" horiz-adv-x="1511" d="M1163 1651l-78 -154l-323 129l-336 -129l-78 154l414 202zM1382 643q0 -207 -41 -326q-55 -160 -215.5 -252t-384.5 -92q-289 0 -460 142q-86 70 -118 169t-32 291v791h354v-793q0 -92 7 -129q14 -66 59 -110q70 -70 199 -70q166 0 243 92q59 68 60 277v733h329v-723z " />
<glyph unicode="&#xdc;" horiz-adv-x="1511" d="M1192 1667q0 -63 -44 -107t-108 -44q-63 0 -108 44t-45 107t44 108.5t107 45.5q66 0 110 -44t44 -110zM625 1667q0 -63 -44 -107t-108 -44q-63 0 -108.5 44t-45.5 107q0 66 45.5 110t108.5 44t107.5 -45.5t44.5 -108.5zM1382 643q0 -207 -41 -326q-55 -160 -215.5 -252 t-384.5 -92q-289 0 -460 142q-86 70 -118 169t-32 291v791h354v-793q0 -92 7 -129q14 -66 59 -110q70 -70 199 -70q166 0 243 92q59 68 60 277v733h329v-723z" />
<glyph unicode="&#xdd;" horiz-adv-x="1355" d="M971 1634l-535 -137l-51 160l516 194zM1348 1366l-492 -776v-590h-354v590l-496 776h428l254 -498l270 498h390z" />
<glyph unicode="&#xde;" horiz-adv-x="1216" d="M1178 721q0 -201 -139.5 -314.5t-381.5 -113.5h-163v-293h-357v1366h357v-264h163q131 0 220 -17q137 -25 219 -124t82 -240zM813 705q0 150 -213 149h-106v-324h98q102 0 161.5 47.5t59.5 127.5z" />
<glyph unicode="&#xdf;" horiz-adv-x="1277" d="M1210 328q0 -154 -129 -250t-336 -96q-100 0 -206 28l59 232q78 -16 109 -17q74 0 118.5 29t44.5 76q0 37 -22.5 69.5t-118.5 122.5q-129 121 -129 195q0 53 66 141q53 72 79 127q31 63 31 109q0 61 -38 99t-97 38q-162 0 -182 -189q-8 -76 -8 -147v-895h-328v895 q0 129 24 244q35 162 178.5 259t348.5 97q186 0 299.5 -92t113.5 -244q0 -68 -20 -119q-4 -14 -31 -61q-31 -55 -41 -70l-45 -67q-23 -33 -22 -56q0 -41 101 -136t138 -161q43 -75 43 -161z" />
<glyph unicode="&#xe0;" horiz-adv-x="1097" d="M836 1241l-72 -137l-461 180l84 182zM1069 27q-119 -51 -217 -52q-180 0 -223 136q-152 -135 -301 -136q-109 0 -184.5 76t-75.5 185q0 303 534 403v10q0 59 -21.5 83t-74.5 24q-37 0 -80 -11q-29 -6 -70 -20q-61 -20 -131 -55l-28 -15l-99 197q256 162 510 162 q160 0 246 -82q74 -70 74 -246v-410q0 -23 17.5 -45t53.5 -22q-8 0 33 4l21 2zM604 287v176q-225 -55 -225 -170q0 -31 22.5 -52.5t55.5 -21.5q57 0 147 68z" />
<glyph unicode="&#xe1;" horiz-adv-x="1097" d="M834 1284l-459 -178l-72 137l447 227zM1069 27q-119 -51 -217 -52q-180 0 -223 136q-152 -135 -301 -136q-109 0 -184.5 76t-75.5 185q0 303 534 403v10q0 59 -21.5 83t-74.5 24q-37 0 -80 -11q-29 -6 -70 -20q-61 -20 -131 -55l-28 -15l-99 197q256 162 510 162 q160 0 246 -82q74 -70 74 -246v-410q0 -23 17.5 -45t53.5 -22q-8 0 33 4l21 2zM604 287v176q-225 -55 -225 -170q0 -31 22.5 -52.5t55.5 -21.5q57 0 147 68z" />
<glyph unicode="&#xe2;" horiz-adv-x="1097" d="M948 1231l-82 -135l-303 147l-295 -147l-78 137l373 233zM1069 27q-119 -51 -217 -52q-180 0 -223 136q-152 -135 -301 -136q-109 0 -184.5 76t-75.5 185q0 303 534 403v10q0 59 -21.5 83t-74.5 24q-37 0 -80 -11q-29 -6 -70 -20q-61 -20 -131 -55l-28 -15l-99 197 q256 162 510 162q160 0 246 -82q74 -70 74 -246v-410q0 -23 17.5 -45t53.5 -22q-8 0 33 4l21 2zM604 287v176q-225 -55 -225 -170q0 -31 22.5 -52.5t55.5 -21.5q57 0 147 68z" />
<glyph unicode="&#xe3;" horiz-adv-x="1097" d="M948 1305q-156 -150 -272 -150q-53 0 -109 25l-37 16q-45 20 -90 21q-68 0 -147 -68l-103 121q133 137 256 137q53 0 134 -33q59 -25 100 -24q86 0 168 75zM1069 27q-119 -51 -217 -52q-180 0 -223 136q-152 -135 -301 -136q-109 0 -184.5 76t-75.5 185q0 303 534 403v10 q0 59 -21.5 83t-74.5 24q-37 0 -80 -11q-29 -6 -70 -20q-61 -20 -131 -55l-28 -15l-99 197q256 162 510 162q160 0 246 -82q74 -70 74 -246v-410q0 -23 17.5 -45t53.5 -22q-8 0 33 4l21 2zM604 287v176q-225 -55 -225 -170q0 -31 22.5 -52.5t55.5 -21.5q57 0 147 68z" />
<glyph unicode="&#xe4;" horiz-adv-x="1097" d="M956 1278q0 -59 -42 -102t-103 -43q-59 0 -102 43t-43 102q0 61 43 103t102 42q61 0 103 -42t42 -103zM471 1278q0 -59 -43 -102t-102 -43t-102.5 43t-43.5 102t43 102t103 43q59 0 102 -42t43 -103zM1069 27q-119 -51 -217 -52q-180 0 -223 136q-152 -135 -301 -136 q-109 0 -184.5 76t-75.5 185q0 303 534 403v10q0 59 -21.5 83t-74.5 24q-37 0 -80 -11q-29 -6 -70 -20q-61 -20 -131 -55l-28 -15l-99 197q256 162 510 162q160 0 246 -82q74 -70 74 -246v-410q0 -23 17.5 -45t53.5 -22q-8 0 33 4l21 2zM604 287v176q-225 -55 -225 -170 q0 -31 22.5 -52.5t55.5 -21.5q57 0 147 68z" />
<glyph unicode="&#xe5;" horiz-adv-x="1097" d="M766 1282q0 -82 -57.5 -139.5t-137.5 -57.5q-82 0 -139 57.5t-57 139.5q0 80 57 137.5t137 57.5q82 0 139.5 -57.5t57.5 -137.5zM1069 27q-119 -51 -217 -52q-180 0 -223 136q-152 -135 -301 -136q-109 0 -184.5 76t-75.5 185q0 303 534 403v10q0 59 -21.5 83t-74.5 24 q-37 0 -80 -11q-29 -6 -70 -20q-61 -20 -131 -55l-28 -15l-99 197q256 162 510 162q160 0 246 -82q74 -70 74 -246v-410q0 -23 17.5 -45t53.5 -22q-8 0 33 4l21 2zM653 1282q0 35 -23.5 58.5t-58.5 23.5t-59.5 -23.5t-24.5 -58.5t25 -58.5t59 -23.5q35 0 58.5 23.5 t23.5 58.5zM604 287v176q-225 -55 -225 -170q0 -31 22.5 -52.5t55.5 -21.5q57 0 147 68z" />
<glyph unicode="&#xe6;" horiz-adv-x="1587" d="M1532 141q-244 -166 -469 -166q-240 0 -367 179q-207 -176 -372 -177q-109 0 -181.5 74t-72.5 182q0 176 188 281q113 63 330 94l14 2q0 49 -6 76q-14 66 -98 66q-104 0 -297 -97l-99 193q276 170 521 170q145 0 208 -94q119 96 271 96q209 0 321 -146q63 -82 84 -190 q14 -72 15 -213v-51h-592q16 -197 196 -197q121 0 295 103zM1223 623q-4 201 -131 200q-72 0 -116 -57t-46 -154zM633 293q-20 72 -23 141q-227 -37 -227 -149q0 -74 78 -74q51 0 172 82z" />
<glyph unicode="&#xe7;" horiz-adv-x="1034" d="M1006 137q-84 -61 -158 -94q-90 -41 -195 -59l-129 -332l-164 39l82 295q-168 39 -267 173t-99 324q0 238 152.5 385.5t396.5 147.5q158 0 338 -82l-86 -213q-63 27 -105 35q-61 12 -108 12q-111 0 -178.5 -71.5t-67.5 -186.5t60.5 -189.5t154.5 -74.5q59 0 137 26 q43 14 115 54z" />
<glyph unicode="&#xe8;" horiz-adv-x="1120" d="M838 1241l-72 -137l-461 180l84 182zM1065 150q-106 -80 -246.5 -128.5t-263.5 -48.5q-213 0 -346 138.5t-133 361.5q0 238 149.5 390.5t380.5 152.5q215 0 331 -137.5t116 -391.5v-57h-629q25 -207 211 -207q63 0 164 35q61 20 147 70zM731 627q-8 197 -137 196 q-137 0 -170 -205z" />
<glyph unicode="&#xe9;" horiz-adv-x="1120" d="M836 1284l-459 -178l-72 137l447 227zM1065 150q-106 -80 -246.5 -128.5t-263.5 -48.5q-213 0 -346 138.5t-133 361.5q0 238 149.5 390.5t380.5 152.5q215 0 331 -137.5t116 -391.5v-57h-629q25 -207 211 -207q63 0 164 35q61 20 147 70zM731 627q-8 197 -137 196 q-137 0 -170 -205z" />
<glyph unicode="&#xea;" horiz-adv-x="1120" d="M950 1231l-82 -135l-303 147l-295 -147l-77 137l372 233zM1065 150q-106 -80 -246.5 -128.5t-263.5 -48.5q-213 0 -346 138.5t-133 361.5q0 238 149.5 390.5t380.5 152.5q215 0 331 -137.5t116 -391.5v-57h-629q25 -207 211 -207q63 0 164 35q61 20 147 70zM731 627 q-8 197 -137 196q-137 0 -170 -205z" />
<glyph unicode="&#xeb;" horiz-adv-x="1120" d="M958 1278q0 -59 -42 -102t-103 -43q-59 0 -102 43t-43 102q0 61 43 103t102 42q61 0 103 -42t42 -103zM473 1278q0 -59 -43 -102t-102 -43t-102.5 43t-43.5 102t43 102t103 43q59 0 102 -42t43 -103zM1065 150q-106 -80 -246.5 -128.5t-263.5 -48.5q-213 0 -346 138.5 t-133 361.5q0 238 149.5 390.5t380.5 152.5q215 0 331 -137.5t116 -391.5v-57h-629q25 -207 211 -207q63 0 164 35q61 20 147 70zM731 627q-8 197 -137 196q-137 0 -170 -205z" />
<glyph unicode="&#xec;" horiz-adv-x="585" d="M559 1241l-72 -137l-460 180l84 182zM457 0h-326v987h326v-987z" />
<glyph unicode="&#xed;" horiz-adv-x="585" d="M559 1284l-459 -178l-71 137l446 227zM457 0h-326v987h326v-987z" />
<glyph unicode="&#xee;" horiz-adv-x="585" d="M672 1231l-82 -135l-303 147l-295 -147l-78 137l373 233zM457 0h-326v987h326v-987z" />
<glyph unicode="&#xef;" horiz-adv-x="585" d="M680 1278q0 -59 -42 -102t-103 -43q-59 0 -102.5 43t-43.5 102q0 61 43 103t103 42q61 0 103 -42t42 -103zM195 1278q0 -59 -43 -102t-103 -43q-59 0 -102 43t-43 102t43 102t102 43t102.5 -42t43.5 -103zM457 0h-326v987h326v-987z" />
<glyph unicode="&#xf0;" horiz-adv-x="1103" d="M498 -25q-213 0 -340 158q-121 150 -121 375q0 217 110 356q125 158 357 158q80 0 182 -33q-35 98 -76 131l-235 -69l-53 159l110 31q-113 41 -289 66l35 196q369 -37 551 -157l201 61l63 -170l-135 -39q143 -193 143 -477q0 -332 -122 -531q-135 -215 -381 -215z M715 707q-102 76 -209 75q-80 0 -129 -63q-55 -72 -55 -207q0 -137 55 -211q47 -63 121 -63q90 0 145 94q72 119 72 362v13z" />
<glyph unicode="&#xf1;" horiz-adv-x="1214" d="M989 1305q-156 -150 -272 -150q-53 0 -109 25l-37 16q-45 20 -90 21q-68 0 -147 -68l-103 121q133 137 256 137q53 0 134 -33q59 -25 100 -24q86 0 168 75zM1090 0h-328v510q0 57 -4 113q-6 94 -88 94q-98 0 -213 -129v-588h-326v987h313v-151q170 182 371 182 q129 0 202 -81t73 -325v-612z" />
<glyph unicode="&#xf2;" horiz-adv-x="1204" d="M868 1241l-71 -137l-461 180l84 182zM1128 506q0 -229 -149.5 -380t-378.5 -151t-376.5 142.5t-147.5 365.5q0 236 150.5 386.5t385.5 150.5q223 0 369.5 -145.5t146.5 -368.5zM782 494q0 121 -52 197.5t-134 76.5q-78 0 -127 -70.5t-49 -185.5q0 -121 52 -198.5 t134 -77.5t129 69.5t47 188.5z" />
<glyph unicode="&#xf3;" horiz-adv-x="1204" d="M866 1284l-458 -178l-72 137l446 227zM1128 506q0 -229 -149.5 -380t-378.5 -151t-376.5 142.5t-147.5 365.5q0 236 150.5 386.5t385.5 150.5q223 0 369.5 -145.5t146.5 -368.5zM782 494q0 121 -52 197.5t-134 76.5q-78 0 -127 -70.5t-49 -185.5q0 -121 52 -198.5 t134 -77.5t129 69.5t47 188.5z" />
<glyph unicode="&#xf4;" horiz-adv-x="1204" d="M981 1231l-82 -135l-303 147l-295 -147l-78 137l373 233zM1128 506q0 -229 -149.5 -380t-378.5 -151t-376.5 142.5t-147.5 365.5q0 236 150.5 386.5t385.5 150.5q223 0 369.5 -145.5t146.5 -368.5zM782 494q0 121 -52 197.5t-134 76.5q-78 0 -127 -70.5t-49 -185.5 q0 -121 52 -198.5t134 -77.5t129 69.5t47 188.5z" />
<glyph unicode="&#xf5;" horiz-adv-x="1204" d="M981 1305q-156 -150 -272 -150q-53 0 -109 25l-37 16q-45 20 -90 21q-68 0 -147 -68l-103 121q133 137 256 137q53 0 133 -33q59 -25 101 -24q86 0 168 75zM1128 506q0 -229 -149.5 -380t-378.5 -151t-376.5 142.5t-147.5 365.5q0 236 150.5 386.5t385.5 150.5 q223 0 369.5 -145.5t146.5 -368.5zM782 494q0 121 -52 197.5t-134 76.5q-78 0 -127 -70.5t-49 -185.5q0 -121 52 -198.5t134 -77.5t129 69.5t47 188.5z" />
<glyph unicode="&#xf6;" horiz-adv-x="1204" d="M989 1278q0 -59 -42 -102t-103 -43q-59 0 -102.5 43t-43.5 102q0 61 43 103t103 42q61 0 103 -42t42 -103zM504 1278q0 -59 -43 -102t-103 -43q-59 0 -102 43t-43 102t43 102t102 43t102.5 -42t43.5 -103zM1128 506q0 -229 -149.5 -380t-378.5 -151t-376.5 142.5 t-147.5 365.5q0 236 150.5 386.5t385.5 150.5q223 0 369.5 -145.5t146.5 -368.5zM782 494q0 121 -52 197.5t-134 76.5q-78 0 -127 -70.5t-49 -185.5q0 -121 52 -198.5t134 -77.5t129 69.5t47 188.5z" />
<glyph unicode="&#xf7;" d="M834 995q0 -76 -54.5 -131t-132.5 -55t-133 54.5t-55 131.5q0 78 55 133.5t133 55.5t132.5 -55.5t54.5 -133.5zM834 174q0 -78 -54.5 -133t-132.5 -55t-133 55t-55 133t55 132t133 54t132.5 -54t54.5 -132zM1153 475h-1024v219h1024v-219z" />
<glyph unicode="&#xf8;" horiz-adv-x="1206" d="M1130 506q0 -229 -150.5 -380t-379.5 -151q-182 0 -328 103l-102 -101l-94 99l98 98q-96 129 -96 311q0 231 151.5 383t384.5 152q176 0 322 -105l100 101l92 -94l-98 -101q100 -139 100 -315zM721 707q-55 61 -123 61q-78 0 -127 -70.5t-49 -185.5q0 -33 8 -88zM784 498 q0 41 -6 77l-289 -284q53 -55 119 -55q82 0 129 70.5t47 191.5z" />
<glyph unicode="&#xf9;" horiz-adv-x="1214" d="M870 1241l-71 -137l-461 180l84 182zM1083 0h-323v154q-27 -33 -72 -68q-139 -106 -272 -106q-90 0 -163 45t-103 127q-27 74 -27 260v575h330v-573q0 -129 94 -129q111 0 213 127v575h323v-987z" />
<glyph unicode="&#xfa;" horiz-adv-x="1214" d="M868 1284l-458 -178l-72 137l446 227zM1083 0h-323v154q-27 -33 -72 -68q-139 -106 -272 -106q-90 0 -163 45t-103 127q-27 74 -27 260v575h330v-573q0 -129 94 -129q111 0 213 127v575h323v-987z" />
<glyph unicode="&#xfb;" horiz-adv-x="1214" d="M983 1231l-82 -135l-303 147l-295 -147l-78 137l373 233zM1083 0h-323v154q-27 -33 -72 -68q-139 -106 -272 -106q-90 0 -163 45t-103 127q-27 74 -27 260v575h330v-573q0 -129 94 -129q111 0 213 127v575h323v-987z" />
<glyph unicode="&#xfc;" horiz-adv-x="1214" d="M991 1278q0 -59 -42 -102t-103 -43q-59 0 -102.5 43t-43.5 102q0 61 43 103t103 42q61 0 103 -42t42 -103zM506 1278q0 -59 -43 -102t-103 -43q-59 0 -102 43t-43 102t43 102t102 43t102.5 -42t43.5 -103zM1083 0h-323v154q-27 -33 -72 -68q-139 -106 -272 -106 q-90 0 -163 45t-103 127q-27 74 -27 260v575h330v-573q0 -129 94 -129q111 0 213 127v575h323v-987z" />
<glyph unicode="&#xfd;" horiz-adv-x="1146" d="M838 1284l-459 -178l-72 137l447 227zM1133 987l-418 -1096q-8 -23 -31 -75q-51 -115 -102 -178q-111 -137 -336 -138q-98 0 -219 33l53 234q88 -12 119 -13q121 0 196 154l17 33l-398 1046h361l219 -653l225 653h314z" />
<glyph unicode="&#xfe;" horiz-adv-x="1257" d="M1176 530q0 -242 -122 -397.5t-311 -155.5q-178 0 -284 152v-602h-328v1939h301v-630q80 78 148 118q104 63 208 64q174 0 281 -134.5t107 -353.5zM838 487q0 106 -52.5 177t-132.5 71q-104 0 -194 -110v-271q92 -113 190 -112q82 0 135.5 69.5t53.5 175.5z" />
<glyph unicode="&#xff;" horiz-adv-x="1146" d="M961 1278q0 -59 -42 -102t-104 -43q-59 0 -102 43t-43 102q0 61 43 103t102 42q61 0 103.5 -42t42.5 -103zM475 1278q0 -59 -43 -102t-102 -43t-102.5 43t-43.5 102t43 102t103 43q59 0 102 -42t43 -103zM1133 987l-418 -1096q-8 -23 -31 -75q-51 -115 -102 -178 q-111 -137 -336 -138q-98 0 -219 33l53 234q88 -12 119 -13q121 0 196 154l17 33l-398 1046h361l219 -653l225 653h314z" />
<glyph unicode="&#x152;" horiz-adv-x="2009" d="M1905 0h-920q-229 0 -356 16q-250 33 -401.5 210t-151.5 438q0 170 74.5 316t210 238.5t311.5 120.5q162 27 461 27h735v-264h-537v-275h504v-256h-504v-295h574v-276zM971 272v830q-141 -4 -226 -29q-133 -37 -213.5 -146.5t-80.5 -252.5q0 -188 122 -297 q68 -61 154 -82q80 -21 244 -23z" />
<glyph unicode="&#x153;" horiz-adv-x="1738" d="M1686 471l-3 -25v-24h-596q25 -195 209 -195q121 0 279 99l108 -187q-100 -72 -216.5 -115.5t-241.5 -43.5q-188 0 -320 124q-43 -37 -71 -55q-119 -74 -256 -74q-217 0 -359.5 143.5t-142.5 362.5q0 227 143 381t356 154q207 0 343 -139q141 141 354 141q221 0 336 -180 q82 -129 82 -277q0 -41 -4 -90zM1380 621q-6 184 -129 184q-59 0 -105 -55.5t-56 -141.5zM780 489q0 117 -54 197t-134 80q-78 0 -128 -74t-50 -186q0 -113 55 -191.5t135 -78.5t128 69t48 184z" />
<glyph unicode="&#x178;" horiz-adv-x="1355" d="M1114 1667q0 -63 -45 -107t-108 -44t-108.5 44t-45.5 107t45 108.5t109 45.5q66 0 109.5 -44t43.5 -110zM547 1667q0 -63 -45 -107t-109 -44q-63 0 -107 44t-44 107t44 108.5t107 45.5q66 0 110 -44t44 -110zM1348 1366l-492 -776v-590h-354v590l-496 776h428l254 -498 l270 498h390z" />
<glyph unicode="&#x2c6;" horiz-adv-x="974" d="M866 1231l-82 -135l-303 147l-295 -147l-77 137l372 233z" />
<glyph unicode="&#x2dc;" horiz-adv-x="974" d="M866 1305q-156 -150 -272 -150q-53 0 -109 25l-36 16q-45 20 -91 21q-68 0 -147 -68l-102 121q133 137 256 137q53 0 133 -33q59 -25 100 -24q86 0 168 75z" />
<glyph unicode="&#x2000;" horiz-adv-x="944" />
<glyph unicode="&#x2001;" horiz-adv-x="1890" />
<glyph unicode="&#x2002;" horiz-adv-x="944" />
<glyph unicode="&#x2003;" horiz-adv-x="1890" />
<glyph unicode="&#x2004;" horiz-adv-x="628" />
<glyph unicode="&#x2005;" horiz-adv-x="471" />
<glyph unicode="&#x2006;" horiz-adv-x="313" />
<glyph unicode="&#x2007;" horiz-adv-x="313" />
<glyph unicode="&#x2008;" horiz-adv-x="235" />
<glyph unicode="&#x2009;" horiz-adv-x="376" />
<glyph unicode="&#x200a;" horiz-adv-x="104" />
<glyph unicode="&#x2010;" horiz-adv-x="657" d="M608 424h-561v254h561v-254z" />
<glyph unicode="&#x2011;" horiz-adv-x="657" d="M608 424h-561v254h561v-254z" />
<glyph unicode="&#x2012;" horiz-adv-x="657" d="M608 424h-561v254h561v-254z" />
<glyph unicode="&#x2013;" horiz-adv-x="1116" d="M1069 453h-1022v198h1022v-198z" />
<glyph unicode="&#x2014;" horiz-adv-x="2138" d="M2091 453h-2044v198h2044v-198z" />
<glyph unicode="&#x2018;" horiz-adv-x="593" d="M430 852h-319l114 547h205v-547z" />
<glyph unicode="&#x2019;" horiz-adv-x="593" d="M485 1399l-116 -547h-205v547h321z" />
<glyph unicode="&#x201a;" horiz-adv-x="663" d="M506 313l-117 -549h-205v549h322z" />
<glyph unicode="&#x201c;" horiz-adv-x="1003" d="M838 899h-318l115 500h203v-500zM426 899h-315l114 500h201v-500z" />
<glyph unicode="&#x201d;" horiz-adv-x="1003" d="M481 1399l-112 -500h-205v500h317zM893 1399l-115 -500h-203v500h318z" />
<glyph unicode="&#x201e;" horiz-adv-x="1003" d="M481 313l-112 -501h-205v501h317zM893 313l-115 -501h-203v501h318z" />
<glyph unicode="&#x2022;" horiz-adv-x="1366" d="M967 694q0 -117 -83 -200.5t-200 -83.5q-119 0 -202 82.5t-83 201.5q0 115 83 199t198 84q121 0 204 -82t83 -201z" />
<glyph unicode="&#x2026;" horiz-adv-x="2039" d="M1855 170q0 -78 -55 -133t-133 -55t-132 55t-54 133t55 132t131 54q78 0 133 -54t55 -132zM1208 170q0 -78 -55 -133t-133 -55t-132 55t-54 133t55 132t131 54q78 0 133 -54t55 -132zM559 170q0 -78 -54 -133t-132 -55t-133.5 55t-55.5 133t55.5 132t133.5 54t132 -54 t54 -132z" />
<glyph unicode="&#x202f;" horiz-adv-x="376" />
<glyph unicode="&#x2039;" horiz-adv-x="591" d="M506 211l-178 -102l-281 405l281 383l164 -94l-164 -289z" />
<glyph unicode="&#x203a;" horiz-adv-x="583" d="M535 514l-279 -408l-170 105l170 303l-170 289l170 100z" />
<glyph unicode="&#x205f;" horiz-adv-x="471" />
<glyph unicode="&#x20ac;" d="M1262 141q-174 -170 -461 -170q-236 0 -387.5 117t-196.5 334h-199v209h179q-4 18 -4 59t4 58h-179v215h213q61 209 215 321q145 104 349 105q246 0 460 -158l-157 -197q-145 98 -283 99q-152 0 -223 -170h444v-215h-487q-4 -14 -4 -58q0 -45 4 -59h487v-209h-467 q53 -199 238 -199q141 0 297 103z" />
<glyph unicode="&#x2122;" horiz-adv-x="1738" d="M1712 590h-229l-47 385l-131 -385h-199l-139 385l-37 -385h-219l100 778h242l161 -442l146 442h237zM733 1208h-231v-618h-238v618h-237v160h706v-160z" />
<glyph unicode="&#xe000;" horiz-adv-x="985" d="M0 985h985v-985h-985v985z" />
<glyph unicode="&#xfb01;" horiz-adv-x="1404" d="M1292 1262q0 -76 -53 -128.5t-127 -52.5t-126 52.5t-52 128.5q0 74 52 126t126 52t127 -52t53 -126zM1276 0h-326v987h326v-987zM891 1456l-47 -221q-66 8 -103 8q-119 0 -165 -50t-46 -181v-25h265v-211h-265v-776h-327v776h-189v211h189v64q0 176 55 262 q113 176 401 176q41 0 101 -6q68 -7 131 -27z" />
<glyph unicode="&#xfb02;" horiz-adv-x="1413" d="M1282 0h-332v1466h332v-1466zM891 1456l-47 -221q-66 8 -103 8q-119 0 -165 -50t-46 -181v-25h265v-211h-265v-776h-327v776h-189v211h189v64q0 176 55 262q113 176 401 176q41 0 101 -6q68 -7 131 -27z" />
<glyph unicode="&#xfb03;" horiz-adv-x="2224" d="M2111 1262q0 -76 -53 -128.5t-127 -52.5t-126 52.5t-52 128.5q0 74 52 126t126 52t127 -52t53 -126zM2095 0h-326v987h326v-987zM1710 1456l-47 -221q-66 8 -103 8q-119 0 -165 -50t-46 -181v-25h265v-211h-265v-776h-327v776h-189v211h189v64q0 176 55 262 q113 176 401 176q41 0 101 -6q68 -7 131 -27zM891 1456l-47 -221q-66 8 -103 8q-119 0 -165 -50t-46 -181v-25h265v-211h-265v-776h-327v776h-189v211h189v64q0 176 55 262q113 176 401 176q41 0 101 -6q68 -7 131 -27z" />
<glyph unicode="&#xfb04;" horiz-adv-x="2232" d="M2101 0h-332v1466h332v-1466zM1710 1456l-47 -221q-66 8 -103 8q-119 0 -165 -50t-46 -181v-25h265v-211h-265v-776h-327v776h-189v211h189v64q0 176 55 262q113 176 401 176q41 0 101 -6q68 -7 131 -27zM891 1456l-47 -221q-66 8 -103 8q-119 0 -165 -50t-46 -181v-25 h265v-211h-265v-776h-327v776h-189v211h189v64q0 176 55 262q113 176 401 176q41 0 101 -6q68 -7 131 -27z" />
</font>
</defs>
</svg>
