<?xml version="1.0" standalone="no"?>
<!DOCTYPE svg PUBLIC "-//W3C//DTD SVG 1.1//EN" "http://www.w3.org/Graphics/SVG/1.1/DTD/svg11.dtd" >
<svg xmlns="http://www.w3.org/2000/svg">
<metadata>
This is a custom SVG webfont generated by Font Squirrel.
Copyright   : Copyright c The Foundry 2001 All rights reserved
Designer    : The Foundry
Foundry URL : wwwfoundrytypescouk
</metadata>
<defs>
<font id="webfont1fSIt6tb" horiz-adv-x="1024" >
<font-face units-per-em="2048" ascent="1638" descent="-410" />
<missing-glyph horiz-adv-x="434" />
<glyph unicode=" "  horiz-adv-x="434" />
<glyph unicode="&#x09;" horiz-adv-x="434" />
<glyph unicode="&#xa0;" horiz-adv-x="434" />
<glyph unicode="!" horiz-adv-x="606" d="M375 1366l-10 -1022h-129l-15 1022h154zM401 88q0 -41 -28.5 -69.5t-69.5 -28.5t-69.5 28.5t-28.5 69.5t28.5 69.5t69.5 28.5t69.5 -28.5t28.5 -69.5z" />
<glyph unicode="&#x22;" horiz-adv-x="575" d="M494 1010h-144v385h144v-385zM223 1010h-141v385h141v-385z" />
<glyph unicode="#" horiz-adv-x="927" d="M860 1047l-16 -113h-172l-31 -193h176l-16 -108h-176l-56 -408h-112l57 408h-160l-55 -408h-115l58 408h-174l18 108h170l29 193h-170l16 113h168l51 366h115l-51 -366h157l54 366h112l-51 -366h174zM555 934h-156l-28 -193h155z" />
<glyph unicode="$" horiz-adv-x="1026" d="M915 535q0 -141 -114.5 -236.5t-306.5 -116.5l-25 -190h-119l27 186q-137 4 -271 37l29 119q127 -29 258 -29l64 467l-47 21q-145 63 -206 128.5t-61 159.5q0 133 107.5 218t290.5 98l24 174h119l-25 -176q115 -8 197 -31l-22 -113q-84 16 -191 23l-55 -400q18 -8 47 -22 q51 -23 156 -86q124 -92 124 -231zM524 1272q-223 -29 -223 -170q0 -86 150 -162q6 -4 26 -14zM756 516q0 113 -189 201l-55 -404q244 41 244 203z" />
<glyph unicode="%" horiz-adv-x="1337" d="M1290 338q0 -158 -89 -261.5t-226 -103.5q-131 0 -212 97.5t-81 255.5q0 166 86 268t225 102q133 0 215 -99t82 -259zM655 1036q0 -158 -89 -261t-226 -103q-131 0 -212 97t-81 255q0 166 86 268.5t225 102.5q133 0 215 -99.5t82 -259.5zM1155 1341l-870 -1378l-99 62 l871 1380zM1165 338q0 115 -48 182.5t-130 67.5t-131 -67.5t-49 -182.5q0 -119 48 -186.5t132 -67.5t131 67.5t47 186.5zM530 1036q0 115 -48 182.5t-130 67.5t-131 -67.5t-49 -182.5q0 -119 48 -186.5t132 -67.5t131 67.5t47 186.5z" />
<glyph unicode="&#x26;" horiz-adv-x="1310" d="M1260 94l-76 -112l-21 12q-125 76 -254 170q-72 -66 -125 -98q-143 -86 -313 -86q-174 0 -288.5 106.5t-114.5 267.5q0 129 77 240q55 78 195 176l20 14q-88 133 -88 297q0 133 91.5 220.5t228.5 87.5q123 0 198.5 -70t75.5 -184q0 -129 -102 -228q-88 -86 -213 -157 q8 -10 18 -29q43 -66 142 -172q131 -143 198 -191q68 80 111 254h129q-18 -104 -66 -215q-31 -72 -73 -125q45 -39 127 -96q76 -53 123 -82zM717 1130q0 57 -39 94.5t-98 37.5q-72 0 -116 -52.5t-44 -138.5q0 -41 14 -98q10 -41 49 -113q234 120 234 270zM809 248l-16 14 l-78 70q-94 84 -195 211q-47 59 -86 129q-213 -131 -213 -293q0 -115 82 -191.5t207 -76.5q78 0 164 40t135 97z" />
<glyph unicode="'" horiz-adv-x="305" d="M223 1010h-141v385h141v-385z" />
<glyph unicode="(" horiz-adv-x="641" d="M524 -190l-86 -68q-147 168 -238 404.5t-91 445.5q0 236 110 467q92 193 219 332l86 -68q-68 -100 -104 -166q-154 -276 -154 -592q0 -201 70 -401q41 -119 168 -322z" />
<glyph unicode=")" horiz-adv-x="641" d="M532 543q0 -236 -110 -467q-92 -195 -217 -334l-88 70q66 96 104 163q154 276 154 594q0 201 -70 402q-41 119 -168 321l-20 33l86 66q147 -168 238 -403.5t91 -444.5z" />
<glyph unicode="*" d="M713 1149l-6 -117l-228 4l131 -205l-108 -53l-111 207l-110 -215l-103 70l129 196l-239 -16l6 119l233 -2l-129 202l103 56l110 -211l111 211l98 -70l-121 -188z" />
<glyph unicode="+" d="M989 477h-411v-411h-136v411h-409v135h409v410h136v-410h411v-135z" />
<glyph unicode="," horiz-adv-x="524" d="M354 178l-51 -409h-113v409h164z" />
<glyph unicode="-" horiz-adv-x="620" d="M553 485h-485v121h485v-121z" />
<glyph unicode="." horiz-adv-x="579" d="M387 88q0 -41 -28.5 -69.5t-69.5 -28.5t-70 28.5t-29 69.5t29 69.5t70 28.5t69.5 -28.5t28.5 -69.5z" />
<glyph unicode="/" d="M899 1503l-655 -1683l-119 45l653 1683z" />
<glyph unicode="0" horiz-adv-x="1026" d="M979 694q0 -330 -127 -524.5t-342 -194.5q-213 0 -338 187.5t-125 503.5q0 332 127 529.5t340 197.5q215 0 340 -188.5t125 -510.5zM825 659q0 104 -20 222q-68 385 -297 385q-139 0 -221 -149.5t-82 -403.5q0 -279 86 -444t231 -165q139 0 221 149.5t82 405.5z" />
<glyph unicode="1" horiz-adv-x="1026" d="M672 0h-154v1217l-354 -183l-55 103l446 254l117 -52v-1339z" />
<glyph unicode="2" horiz-adv-x="1026" d="M946 0h-848l-20 102l24 21q162 135 324 305q98 102 182 213q139 182 140 350q0 125 -72 195.5t-199 70.5q-154 0 -344 -86l-45 109q49 25 129 53q166 59 299 60q178 0 286.5 -102.5t108.5 -270.5q0 -119 -43 -217q-147 -338 -549 -651l-18 -15h645v-137z" />
<glyph unicode="3" horiz-adv-x="1026" d="M891 459q0 -250 -268 -371q-231 -104 -500 -104h-23q-18 2 -32 2v116q303 4 481 97.5t178 249.5q0 150 -141 208q-102 43 -291 43h-84v113q225 0 352 74t127 205q0 76 -59.5 122t-157.5 46q-94 0 -213 -39l-121 -45l-49 108q223 104 406 105q162 0 255 -75t93 -204 q0 -246 -281 -336q150 -14 239 -100t89 -215z" />
<glyph unicode="4" horiz-adv-x="1026" d="M983 358h-164v-358h-145v358h-608l-29 121l659 916l123 -45v-863h164v-129zM674 487v650l-461 -650h461z" />
<glyph unicode="5" horiz-adv-x="1026" d="M893 504q0 -231 -225.5 -376.5t-583.5 -145.5h-35v116h12q283 0 477.5 112t194.5 275q0 78 -48 146.5t-128 103.5q-133 59 -373 74l-37 109l91 448h653v-135h-537l-57 -289q139 -18 209 -35q184 -45 285.5 -149t101.5 -254z" />
<glyph unicode="6" horiz-adv-x="1026" d="M963 406q0 -186 -120 -311.5t-296 -125.5q-205 0 -338 163t-133 411q0 150 57 299t154 256q219 242 624 280l11 -123q-311 -47 -484 -202q-84 -76 -141 -181q-51 -94 -70 -215q147 166 344 166q170 0 281 -118.5t111 -298.5zM803 397q0 129 -70.5 208t-185.5 79 q-90 0 -182.5 -57.5t-137.5 -143.5q10 -166 100.5 -276.5t213.5 -110.5q117 0 189.5 84t72.5 217z" />
<glyph unicode="7" horiz-adv-x="1026" d="M973 1245l-703 -1263l-135 73l672 1178h-717v133h866z" />
<glyph unicode="8" horiz-adv-x="1026" d="M969 346q0 -164 -139.5 -268.5t-356.5 -104.5q-190 0 -303 91.5t-113 242.5q0 139 119 260q78 78 209 152l-102 69q-160 125 -160 271q0 147 124 239.5t320 92.5q158 0 255.5 -80t97.5 -211q0 -211 -273 -363q137 -78 197 -129q125 -108 125 -262zM762 1090 q0 78 -61.5 128t-161.5 50q-111 0 -187 -56.5t-76 -138.5q0 -147 252 -266l25 14q209 122 209 269zM807 342q0 104 -131 199q-37 27 -80 53l-23 14l-53 29l-20 10q-289 -158 -289 -340q0 -92 75.5 -147.5t200.5 -55.5q133 0 226.5 70t93.5 168z" />
<glyph unicode="9" horiz-adv-x="1026" d="M952 819q0 -150 -57 -300t-156 -257q-217 -238 -624 -280l-11 124q307 43 484 203q84 76 141 178q55 96 70 215q-150 -166 -342 -165q-170 0 -282 119.5t-112 299.5q0 186 120 311.5t296 125.5q205 0 339 -162t134 -412zM799 879q-10 166 -100.5 276.5t-213.5 110.5 q-117 0 -189.5 -84t-72.5 -217q0 -129 71 -208t185 -79q90 0 182.5 57.5t137.5 143.5z" />
<glyph unicode=":" horiz-adv-x="579" d="M387 870q0 -41 -28.5 -69.5t-69.5 -28.5t-70 28.5t-29 69.5t30 70t69 29q41 0 69.5 -29t28.5 -70zM387 88q0 -41 -28.5 -69.5t-69.5 -28.5t-70 28.5t-29 69.5t29 69.5t70 28.5t69.5 -28.5t28.5 -69.5z" />
<glyph unicode=";" horiz-adv-x="559" d="M387 870q0 -41 -28.5 -69.5t-69.5 -28.5t-70 28.5t-29 69.5t30 70t69 29q41 0 69.5 -29t28.5 -70zM389 178l-51 -409h-113v409h164z" />
<glyph unicode="&#x3c;" d="M940 141l-856 580v14l856 543v-104l-592 -381l592 -385v-267z" />
<glyph unicode="=" d="M989 623h-956v135h956v-135zM989 334h-956v135h956v-135z" />
<glyph unicode="&#x3e;" d="M940 684l-856 -543v105l592 383l-592 385v264l856 -580v-14z" />
<glyph unicode="?" horiz-adv-x="940" d="M838 1085q0 -258 -365 -467l-14 -8v-266h-127l-23 334q373 145 373 383q0 201 -238 201q-164 0 -325 -86l-58 102q197 119 414 119q166 0 264.5 -85.5t98.5 -226.5zM494 88q0 -41 -29 -69.5t-70 -28.5t-69.5 28.5t-28.5 69.5t28.5 69.5t69.5 28.5t70 -28.5t29 -69.5z" />
<glyph unicode="@" horiz-adv-x="1599" d="M1491 854q0 -231 -152.5 -368.5t-406.5 -137.5q-6 0 -23 2h-22l18 92q-121 -98 -219 -98q-100 0 -160.5 68.5t-60.5 179.5q0 190 102.5 330.5t241.5 140.5q63 0 115 -27q31 -16 80 -67l12 75h137l-102 -571q135 14 224 118.5t89 250.5q0 193 -133 313.5t-346 120.5 q-268 0 -447.5 -179t-179.5 -448q0 -240 158.5 -394.5t406.5 -154.5q172 0 324 76q76 37 174 115l76 -86q-240 -227 -578 -228q-315 0 -512.5 187.5t-197.5 486.5q0 317 220 532.5t543 215.5q274 0 446.5 -151.5t172.5 -393.5zM975 840q-66 102 -152 102q-84 0 -145.5 -98.5 t-61.5 -229.5q0 -147 105 -147q86 0 209 113z" />
<glyph unicode="A" horiz-adv-x="1312" d="M1298 0h-168l-202 502h-557l-203 -502h-154l561 1366h164zM879 625l-232 569l-229 -569h461z" />
<glyph unicode="B" horiz-adv-x="1159" d="M1057 410q0 -188 -144.5 -299t-386.5 -111h-356v1366h328q127 0 219 -16q127 -23 198.5 -106t71.5 -204q0 -219 -223 -305q137 -25 215 -110.5t78 -214.5zM831 1028q0 211 -292 211h-213v-455h178q111 0 175 23.5t108 86t44 134.5zM889 408q0 123 -90 190q-82 61 -271 61 h-202v-530h200q363 0 363 279z" />
<glyph unicode="C" horiz-adv-x="1316" d="M1276 102q-18 -10 -45 -28q-172 -104 -420 -105q-309 0 -505.5 193.5t-196.5 499.5q0 317 215 524t548 207q195 0 388 -78l-48 -121l-75 23q-143 41 -263 40q-272 0 -438 -159.5t-166 -419.5q0 -244 155 -409t406 -165q193 0 392 107z" />
<glyph unicode="D" horiz-adv-x="1439" d="M1337 690q0 -330 -258 -532q-111 -86 -236.5 -122t-322.5 -36h-350v1366h360q223 0 373 -43q186 -53 310 -234.5t124 -398.5zM1174 686q0 221 -127 375q-145 176 -465 176h-256v-1102h260q268 0 428 149.5t160 401.5z" />
<glyph unicode="E" horiz-adv-x="1026" d="M948 0h-778l2 1366h735v-131h-581v-453h551v-127h-551v-520h622v-135z" />
<glyph unicode="F" horiz-adv-x="960" d="M893 1235h-567v-453h534v-127h-534v-655h-156v1366h723v-131z" />
<glyph unicode="G" horiz-adv-x="1398" d="M1276 68q-137 -55 -238 -78q-113 -25 -213 -25q-322 0 -519 193.5t-197 507.5q0 315 216 520t549 205q178 0 381 -76l-43 -121l-73 25q-127 37 -260 36q-272 0 -439.5 -159.5t-167.5 -419.5q0 -256 159 -418t407 -162q139 0 282 49v504h156v-581z" />
<glyph unicode="H" horiz-adv-x="1394" d="M1225 0h-156v653h-743v-653h-156v1366h156v-588h743v588h156v-1366z" />
<glyph unicode="I" horiz-adv-x="497" d="M326 0h-156v1366h156v-1366z" />
<glyph unicode="J" horiz-adv-x="632" d="M469 414q0 -174 -55 -258q-92 -141 -359 -183l-28 121q152 43 211 88q76 57 75 205v979h156v-952z" />
<glyph unicode="K" horiz-adv-x="1259" d="M1227 0h-228l-673 686v-686h-156v1366h156v-621l649 621h213l-686 -643z" />
<glyph unicode="L" horiz-adv-x="948" d="M915 0h-745v1366h156v-1229h589v-137z" />
<glyph unicode="M" horiz-adv-x="1779" d="M1692 0h-162l-156 1124l-424 -1124h-129l-420 1124l-163 -1124h-150l209 1366h172l428 -1145l426 1145h168z" />
<glyph unicode="N" horiz-adv-x="1384" d="M1212 0h-155l-742 1118v-1118h-145v1366h162l743 -1118v1118h137v-1366z" />
<glyph unicode="O" horiz-adv-x="1476" d="M1368 698q0 -313 -185.5 -520t-463.5 -207q-268 0 -439 195.5t-171 501.5q0 315 183 520t466 205q268 0 439 -194t171 -501zM1206 668q0 20 -2 51q-16 240 -146 389t-325 149q-199 0 -333 -160.5t-134 -398.5q0 -256 132 -420.5t339 -164.5q205 0 337 155.5t132 399.5z " />
<glyph unicode="P" horiz-adv-x="1071" d="M1010 999q0 -176 -133 -292q-121 -104 -375 -105h-176v-602h-156v1366h301q119 0 209 -8q150 -14 240 -113t90 -246zM848 989q0 129 -94 195q-68 47 -232 47h-196v-500h168q115 0 174 17q80 23 130 89t50 152z" />
<glyph unicode="Q" horiz-adv-x="1480" d="M1372 686q0 -285 -165 -485.5t-398 -200.5q-8 0 -66 4l95 -29q150 -39 331 -38q66 0 146 8l16 -121q-113 -16 -194 -17q-258 0 -496 103q-258 113 -395 311.5t-137 460.5q0 299 187 506t460 207q272 0 444 -198t172 -511zM1210 659q0 262 -132 430t-339 168 q-201 0 -335 -159.5t-134 -401.5q0 -264 129 -430t336 -166q205 0 340 159.5t135 399.5z" />
<glyph unicode="R" horiz-adv-x="1169" d="M1135 0h-191l-268 502q-70 129 -189 129h-161v-631h-156v1366h322q137 0 221 -12q137 -20 217 -109.5t80 -224.5q0 -133 -85 -230.5t-223 -119.5q68 -18 115 -103zM848 1010q0 102 -76 168q-70 59 -237 59h-209v-483h200q100 0 162 22q72 27 116 91.5t44 142.5z" />
<glyph unicode="S" horiz-adv-x="1054" d="M965 379q0 -184 -154 -297t-405 -113q-139 0 -318 41l27 127q176 -31 264 -31q195 0 310.5 73t115.5 194q0 106 -96 172q-45 31 -232 117q-168 78 -246 143q-117 98 -116 231q0 156 136 255.5t349 99.5q70 0 139 -9q90 -10 164 -32l-29 -117q-27 6 -69 14q-76 14 -189 15 q-158 0 -247.5 -56.5t-89.5 -154.5q0 -55 26 -93q51 -68 240 -153q227 -102 313 -178q107 -94 107 -248z" />
<glyph unicode="T" horiz-adv-x="1103" d="M1075 1235h-444v-1235h-156v1235h-448v131h1048v-131z" />
<glyph unicode="U" horiz-adv-x="1386" d="M1223 506q0 -250 -147.5 -392.5t-407.5 -142.5q-229 0 -371 129q-133 121 -133 392v874h155v-874q0 -135 37 -211q82 -170 320 -170q160 0 270 77q76 53 104.5 128t28.5 219v831h144v-860z" />
<glyph unicode="V" horiz-adv-x="1261" d="M1247 1366l-540 -1366h-162l-531 1366h172l445 -1188l463 1188h153z" />
<glyph unicode="W" horiz-adv-x="1927" d="M1913 1366l-424 -1366h-178l-350 1133l-351 -1133h-176l-420 1366h164l346 -1161l361 1161h168l360 -1161l350 1161h150z" />
<glyph unicode="X" horiz-adv-x="1198" d="M1184 0h-189l-403 600l-410 -600h-168l494 721l-442 645h184l358 -526l361 526h164l-441 -645z" />
<glyph unicode="Y" horiz-adv-x="1144" d="M1130 1366l-481 -754v-612h-155v612l-480 754h179l382 -621l386 621h169z" />
<glyph unicode="Z" horiz-adv-x="1064" d="M989 0h-913v119l706 1116h-698v131h889v-117l-709 -1116h725v-133z" />
<glyph unicode="[" horiz-adv-x="671" d="M528 -233h-370v1599h370v-119h-223v-1360h223v-120z" />
<glyph unicode="\" d="M899 -135l-121 -45l-653 1683l119 45z" />
<glyph unicode="]" horiz-adv-x="671" d="M143 -233h371v1599h-371v-119h224v-1360h-224v-120z" />
<glyph unicode="^" d="M1079 578h-104l-381 591l-385 -591h-266l579 856h15z" />
<glyph unicode="_" d="M993 -307h-962v123h962v-123z" />
<glyph unicode="`" horiz-adv-x="401" d="M401 1155l-73 -88l-328 203l104 125z" />
<glyph unicode="a" horiz-adv-x="907" d="M903 10q-63 -33 -117 -33q-147 0 -157 166q-39 -37 -74 -63q-125 -96 -246 -96q-96 0 -159.5 64.5t-63.5 162.5q0 270 535 389v41q0 119 -29 165t-105 46q-53 0 -118 -29q-88 -39 -185 -112l-73 88q86 82 197.5 133t201.5 51q131 0 197 -84q53 -70 53 -237v-463 q0 -23 4 -43q10 -57 70 -58q16 0 51 8zM621 285v198q-389 -104 -390 -262q0 -47 30 -75.5t77 -28.5q131 0 283 168z" />
<glyph unicode="b" horiz-adv-x="1089" d="M999 520q0 -242 -118.5 -394.5t-307.5 -152.5q-164 0 -286 144v-117h-140v1460h140v-649q172 170 340 170q166 0 269 -128t103 -333zM850 487q0 156 -70.5 255.5t-183.5 99.5q-172 0 -309 -191v-364q131 -184 288 -185q121 0 198 107.5t77 277.5z" />
<glyph unicode="c" horiz-adv-x="905" d="M872 137q-180 -162 -372 -162q-182 0 -297 138.5t-115 359.5q0 229 126 368.5t335 139.5q139 0 276 -76l-51 -110q-131 63 -227 63q-137 0 -218 -102.5t-81 -274.5q0 -170 73.5 -270t198.5 -100q139 0 287 116z" />
<glyph unicode="d" horiz-adv-x="1105" d="M958 0h-139v143q-162 -168 -348 -168q-172 0 -277.5 132.5t-105.5 347.5q0 231 118 379.5t300 148.5q188 0 313 -176v653h139v-1460zM819 309v305q-139 238 -313 238q-115 0 -190.5 -106.5t-75.5 -268.5q0 -168 71.5 -266t192.5 -98q178 -1 315 196z" />
<glyph unicode="e" horiz-adv-x="993" d="M918 158q-37 -37 -107 -80q-164 -102 -313 -103q-186 0 -298 133.5t-112 352.5q0 227 128 374.5t323 147.5q174 0 269 -117.5t95 -330.5v-46h-657v-30q0 -164 71.5 -257t198.5 -93q98 0 191 47q55 29 143 90zM754 606q-4 119 -65.5 187.5t-164.5 68.5q-102 0 -175 -72.5 t-93 -193.5z" />
<glyph unicode="f" horiz-adv-x="593" d="M682 1458l-31 -108q-68 16 -119 16q-82 0 -139 -45q-68 -53 -67 -227v-142h245v-108h-245v-844h-142v844h-157v108h157v113q0 162 41 254q74 166 297 166q78 0 160 -27z" />
<glyph unicode="g" horiz-adv-x="1048" d="M1057 -154q0 -150 -149.5 -244t-385.5 -94q-221 0 -345 77t-124 212q0 84 54.5 151.5t166.5 108.5q-29 8 -86 31q-47 25 -47 41q0 8 4 21q12 20 39 59l47 63l43 58q-119 98 -118 278q0 158 110.5 267.5t270.5 109.5q70 0 147 -29h307v-110h-176l27 -35q51 -70 51 -180 q0 -162 -113.5 -270.5t-283.5 -108.5q-59 0 -119 20l-62 -92q16 -6 41 -14q72 -25 195 -41l141 -19q174 -23 269.5 -80t95.5 -180zM748 625q0 106 -63.5 173.5t-162.5 67.5q-100 0 -159.5 -66.5t-59.5 -178.5q0 -113 61.5 -181.5t159.5 -68.5q102 0 163 68.5t61 185.5z M901 -162q0 16 -10 41q-29 66 -201 88q-84 10 -260 45q-76 -25 -119 -47q-115 -63 -114 -158q0 -174 321 -174q168 0 275.5 57.5t107.5 147.5z" />
<glyph unicode="h" horiz-adv-x="1071" d="M932 0h-139v678q0 35 -9 70q-25 102 -151 102q-154 0 -346 -199v-651h-140v1460h140v-649q78 66 143 102q121 68 232 68q129 0 199.5 -79t70.5 -224v-678z" />
<glyph unicode="i" horiz-adv-x="434" d="M311 1284q0 -39 -26.5 -65.5t-65.5 -26.5t-65.5 26.5t-26.5 65.5t26.5 65.5t65.5 26.5t65.5 -26.5t26.5 -65.5zM289 0h-142v952h142v-952z" />
<glyph unicode="j" horiz-adv-x="425" d="M307 1284q0 -39 -27.5 -65.5t-64.5 -26.5q-39 0 -65.5 26.5t-26.5 65.5t26.5 65.5t65.5 26.5q37 0 64.5 -26.5t27.5 -65.5zM285 -90q0 -195 -78 -281q-37 -41 -84 -67q-57 -33 -150 -56l-36 105q104 37 157 94q23 25 36 58.5t13 144.5v1044h140z" />
<glyph unicode="k" horiz-adv-x="952" d="M938 0h-197l-456 489v-489h-138v1460h138v-928l434 420h194l-464 -440z" />
<glyph unicode="l" horiz-adv-x="436" d="M289 0h-142v1460h142v-1460z" />
<glyph unicode="m" horiz-adv-x="1554" d="M1415 0h-141v631q0 98 -10 139q-20 80 -115 80q-74 0 -166 -62q-82 -55 -131 -124v-664h-141v612q0 94 -6 133q-16 102 -115 103q-145 0 -303 -184v-664h-140v952h140v-139q168 168 331 168q86 0 141.5 -44t76.5 -132q180 178 342 178q154 0 208 -127q29 -68 29 -244 v-612z" />
<glyph unicode="n" horiz-adv-x="1056" d="M915 0h-141v575q0 88 -2 123q-8 154 -147 154q-164 0 -336 -188v-664h-142v952h142v-141q51 47 94 78q129 92 264 92q170 0 236 -129q33 -63 32 -221v-631z" />
<glyph unicode="o" horiz-adv-x="1050" d="M963 487q0 -219 -129 -364.5t-324 -145.5q-188 0 -305 138.5t-117 361.5q0 201 107 334q137 172 344 172q188 0 306 -138.5t118 -357.5zM813 467q0 176 -79 281.5t-212 105.5q-125 0 -205.5 -99.5t-80.5 -252.5q0 -176 80.5 -284.5t213.5 -108.5q127 0 205 98t78 260z " />
<glyph unicode="p" horiz-adv-x="1089" d="M999 520q0 -242 -118.5 -394.5t-307.5 -152.5q-164 0 -286 144v-590h-140v1425h140v-141q172 170 340 170q166 0 269 -128t103 -333zM850 487q0 156 -70.5 255.5t-183.5 99.5q-172 0 -309 -191v-364q131 -184 288 -185q121 0 198 107.5t77 277.5z" />
<glyph unicode="q" horiz-adv-x="1105" d="M958 -473h-139v616q-162 -168 -348 -168q-172 0 -277.5 132.5t-105.5 347.5q0 231 118 379.5t300 148.5q188 0 313 -176v145h139v-1425zM819 309v305q-139 238 -313 238q-115 0 -190.5 -106.5t-75.5 -268.5q0 -168 71.5 -266t192.5 -98q178 -1 315 196z" />
<glyph unicode="r" horiz-adv-x="659" d="M655 954l-39 -131q-37 16 -67 17q-63 0 -137 -73t-125 -187v-580h-140v952h140v-184q8 16 20 35q45 68 112.5 119t147.5 51q35 -1 88 -19z" />
<glyph unicode="s" horiz-adv-x="804" d="M735 276q0 -143 -137 -231q-109 -70 -295 -70q-23 0 -78 5q-70 6 -157 32l24 111q23 -4 58 -14q80 -14 145 -15q131 0 209 44t78 120q0 57 -56 104q-35 31 -149 87q-150 74 -197 108q-84 63 -84 166q0 119 99.5 190.5t263.5 71.5q25 0 88 -6q74 -6 143 -23l-28 -112 q-117 25 -197 24q-100 0 -158.5 -33.5t-58.5 -93.5q0 -41 32.5 -69.5t125.5 -73.5l67 -33q139 -68 191 -116q71 -69 71 -173z" />
<glyph unicode="t" horiz-adv-x="589" d="M541 0q-88 -20 -142 -20q-242 0 -241 225v639h-160v108h160v260h139v-260h244v-108h-244v-565q0 -70 6 -101q16 -82 141 -82q35 0 97 13v-109z" />
<glyph unicode="u" horiz-adv-x="1058" d="M918 0h-144v150q-164 -174 -364 -175q-162 0 -226 121q-37 68 -37 246v610h140v-567q0 -98 6 -147q16 -127 149 -127q162 0 332 192v649h144v-952z" />
<glyph unicode="v" horiz-adv-x="954" d="M940 952l-408 -952h-129l-389 952h160l303 -766l318 766h145z" />
<glyph unicode="w" horiz-adv-x="1445" d="M1432 952l-314 -952h-141l-252 748l-250 -748h-145l-316 952h156l242 -751l252 751h135l252 -751l243 751h138z" />
<glyph unicode="x" horiz-adv-x="950" d="M936 0h-182l-289 403l-285 -403h-166l367 506l-332 446h182l248 -342l248 342h162l-330 -446z" />
<glyph unicode="y" horiz-adv-x="950" d="M938 952l-500 -1177q-6 -18 -20 -51q-37 -78 -76 -130q-63 -86 -199 -86q-70 0 -129 23l31 102q59 -10 90 -10q55 0 89 30t67 107l106 252l-383 940h158l303 -782l316 782h147z" />
<glyph unicode="z" horiz-adv-x="870" d="M793 0h-715v111l516 712h-502v129h690v-106l-516 -715h527v-131z" />
<glyph unicode="{" horiz-adv-x="671" d="M618 -233h-112q-86 0 -142.5 67.5t-56.5 181.5v301q0 246 -147 258v107q147 12 147 266v170q0 115 56.5 181.5t144.5 66.5h110v-119h-88q-78 0 -77 -180v-154q0 -225 -138 -284q137 -59 138 -289v-270q0 -182 77 -183h88v-120z" />
<glyph unicode="|" horiz-adv-x="512" d="M336 -342h-160v1708h160v-1708z" />
<glyph unicode="}" horiz-adv-x="671" d="M512 575q-147 -12 -147 -258v-301q0 -115 -56.5 -182t-142.5 -67h-113v120h88q78 0 78 183v270q0 229 137 289q-137 59 -137 284v154q0 180 -78 180h-88v119h111q88 0 144.5 -66.5t56.5 -181.5v-170q0 -254 147 -266v-107z" />
<glyph unicode="~" d="M928 1479q-53 -92 -107 -140q-82 -74 -172 -73q-49 0 -170 43q-37 14 -100 32q-35 8 -70 9q-61 0 -100 -29l-76 -76l-37 23q63 104 117 151q74 63 162 64q35 0 64.5 -8.5t107.5 -34.5q113 -39 160 -39q96 0 182 102z" />
<glyph unicode="&#xa1;" horiz-adv-x="606" d="M401 944q0 -41 -28.5 -69.5t-69.5 -28.5t-69.5 28.5t-28.5 69.5t28.5 69.5t69.5 28.5t69.5 -28.5t28.5 -69.5zM375 -334h-154l15 1020h129z" />
<glyph unicode="&#xa2;" d="M891 451q-109 -88 -189.5 -124t-187.5 -40l-25 -185h-104l25 193q-133 35 -217 167t-84 312q0 223 117.5 362.5t318.5 153.5l24 174h105l-25 -178q47 -10 88 -24q61 -23 107 -50l-51 -106q-31 14 -86 35q-37 14 -74 18l-103 -741q2 0 19 -2q109 0 276 123zM528 1163 q-121 -10 -192.5 -111.5t-71.5 -263.5q0 -106 38 -204.5t128 -145.5z" />
<glyph unicode="&#xa3;" d="M999 1337l-49 -110q-121 41 -202 41q-129 0 -199 -74q-49 -51 -78 -131q-18 -51 -45 -238l-6 -43h489v-120h-506l-28 -209q-14 -104 -37 -187.5t-82 -134.5h721v-131h-932l-25 117q84 4 123 51q31 35 41 72q25 84 35 157l37 265h-211v120h229l19 127q70 485 450 486 q106 -1 256 -58z" />
<glyph unicode="&#xa4;" d="M670 -29q113 0 204 41t168 111l-65 84q-59 -43 -131 -79t-170 -36q-55 0 -112.5 21.5t-106.5 68.5t-85 125t-48 193h542v121h-557q-2 16 -1 32.5t1 32.5v59q0 23 4 52h553v123h-534q27 113 69.5 181t91 105t96.5 49.5t85 12.5q96 0 166.5 -36t130.5 -79l65 84 q-78 70 -169 111t-203 41q-176 0 -303.5 -115t-176.5 -354h-196v-123h180q-4 -27 -5 -47.5t-1 -69.5v-31q0 -12 2 -28h-176v-121h186q14 -119 53 -216.5t102.5 -167t149 -107.5t191.5 -38z" />
<glyph unicode="&#xa5;" d="M1044 1364l-372 -582h293v-120h-381v-109h381v-119h-381v-434h-146v434h-377v119h377v109h-377v120h299l-378 582h172l366 -571l363 571h161z" />
<glyph unicode="&#xa6;" horiz-adv-x="512" d="M336 1366h-160v-782h160v782zM176 -342h160v791h-160v-791z" />
<glyph unicode="&#xa7;" d="M938 524q0 -59 -29 -118q-39 -82 -137 -146q117 -84 117 -201q0 -135 -121 -219t-315 -84q-172 0 -318 39l29 111q139 -31 268 -31q293 0 293 162q0 51 -38 88t-142 90l-187 94q-256 129 -256 316q0 166 168 262q-43 31 -63 55q-53 63 -53 154q0 133 124.5 217t319.5 84 q156 0 307 -43l-28 -111l-21 2q-37 4 -96 19q-80 12 -148 12q-135 0 -215 -45t-80 -121q0 -57 50 -100q31 -29 118 -72l205 -102q248 -126 248 -312zM795 500q0 109 -174 194l-246 123q-125 -63 -125 -166q0 -111 129 -178l55 -29l230 -120q131 78 131 176z" />
<glyph unicode="&#xa8;" horiz-adv-x="528" d="M528 1223q0 -37 -26.5 -63.5t-63.5 -26.5t-63.5 26.5t-26.5 63.5q0 39 25.5 64.5t64.5 25.5q37 0 63.5 -25.5t26.5 -64.5zM180 1223q0 -37 -25.5 -63.5t-64.5 -26.5q-37 0 -63.5 26.5t-26.5 63.5q0 39 26.5 64.5t63.5 25.5q39 0 64.5 -25.5t25.5 -64.5z" />
<glyph unicode="&#xa9;" horiz-adv-x="1652" d="M1550 682q0 -299 -212 -511t-511 -212t-512 212t-213 511q0 301 213 513t512 212t511 -212t212 -513zM1468 682q0 266 -187 454.5t-454 188.5q-266 0 -454.5 -187.5t-188.5 -453.5t188.5 -454.5t454.5 -188.5t453.5 187.5t187.5 453.5zM1139 350q-12 -10 -39 -24 q-102 -59 -258 -60q-193 0 -314.5 114t-121.5 294q0 186 134 309t341 123q145 0 235 -45l12 -6l-32 -84l-15 4q-135 39 -200 39q-156 0 -251 -90t-95 -240q0 -145 89 -235.5t232 -90.5q104 0 231 64l13 6z" />
<glyph unicode="&#xaa;" horiz-adv-x="593" d="M563 791h-4l-14 -9q-20 -12 -58 -12q-84 0 -94 94q-94 -92 -180 -92q-59 0 -97 41t-38 105q0 164 311 235v23q0 119 -74 118q-70 0 -149 -65l-23 -19l-4 -2l-49 60l4 4q113 113 236 112q158 0 149 -198l-2 -53v-195q0 -70 17 -80q8 -4 22 -4q12 0 29 4l4 2zM557 614h-465 v80h465v-80zM389 961v110q-217 -61 -217 -149q0 -57 57 -58q74 1 160 97z" />
<glyph unicode="&#xab;" horiz-adv-x="862" d="M760 184l-96 -51l-261 363l261 358l96 -57l-182 -301zM434 182l-100 -53l-258 367l258 354l100 -55l-184 -299z" />
<glyph unicode="&#xac;" d="M956 0h-159v432h-731v115h890v-547z" />
<glyph unicode="&#xad;" d="M989 477h-956v135h956v-135z" />
<glyph unicode="&#x2212;" d="M989 477h-956v135h956v-135z" />
<glyph unicode="&#xae;" horiz-adv-x="1652" d="M1550 682q0 -299 -212 -511t-511 -212t-512 212t-213 511q0 301 213 513t512 212t511 -212t212 -513zM1468 682q0 266 -187 454.5t-454 188.5q-266 0 -454.5 -187.5t-188.5 -453.5t188.5 -454.5t454.5 -188.5t453.5 187.5t187.5 453.5zM1182 285h-146l-162 290 q-41 74 -100 74h-82v-364h-125v805h209q84 0 133 -7q90 -12 142.5 -65t52.5 -135q0 -70 -47 -129.5t-115 -73.5l-10 -2q31 -14 51 -51zM973 877q0 125 -170 124h-111v-266h105q176 1 176 142z" />
<glyph unicode="&#xaf;" horiz-adv-x="737" d="M633 1180h-529v123h529v-123z" />
<glyph unicode="&#x2c9;" horiz-adv-x="737" d="M633 1180h-529v123h529v-123z" />
<glyph unicode="&#xb0;" d="M795 1110q0 -117 -83 -199t-200 -82q-119 0 -201 82t-82 199q0 115 83 197t200 82t200 -82t83 -197zM682 1110q0 70 -51 121t-121 51t-119 -50t-49 -122t50 -123t120 -51t120 52t50 122z" />
<glyph unicode="&#xb1;" d="M975 629h-410v-410h-108v410h-410v108h410v410h108v-410h410v-108zM975 0h-928v109h928v-109z" />
<glyph unicode="&#xb2;" horiz-adv-x="643" d="M551 711h-428l-21 84q313 248 314 389q0 98 -103 98q-68 0 -168 -49l-41 94q125 63 228 64q90 0 146.5 -51.5t56.5 -141.5q0 -102 -91 -211q-33 -41 -170 -166h277v-110z" />
<glyph unicode="&#xb3;" horiz-adv-x="604" d="M512 946q0 -145 -168 -205q-94 -35 -250 -34v102q164 0 238 41q63 35 63 88q0 88 -170 88h-65v107q217 0 217 102q0 51 -76 51q-51 0 -164 -47l-39 92q117 59 213 60q180 0 181 -152q0 -109 -103 -143q55 -10 89 -52.5t34 -97.5z" />
<glyph unicode="&#xb4;" horiz-adv-x="395" d="M395 1268l-327 -199l-68 84l297 240z" />
<glyph unicode="&#xb5;" d="M147 -236v1188h140v-567q0 -98 6 -147q16 -127 149 -127q162 0 332 192v649h144v-952h-144v150q-164 -174 -364 -175q-59 0 -131 33v-244h-132z" />
<glyph unicode="&#x3bc;" d="M147 -236v1188h140v-567q0 -98 6 -147q16 -127 149 -127q162 0 332 192v649h144v-952h-144v150q-164 -174 -364 -175q-59 0 -131 33v-244h-132z" />
<glyph unicode="&#xb6;" d="M926 -242h-123v1485h-98v-1485h-123v852q-242 0 -353 99q-131 117 -131 290q0 162 99 256q92 90 256 105q78 6 180 6h293v-1608z" />
<glyph unicode="&#xb7;" horiz-adv-x="579" d="M387 682q0 -41 -28.5 -69.5t-69.5 -28.5q-39 0 -69 29.5t-30 68.5q0 41 29 69.5t70 28.5t69.5 -28.5t28.5 -69.5z" />
<glyph unicode="&#x22c5;" horiz-adv-x="579" d="M387 682q0 -41 -28.5 -69.5t-69.5 -28.5q-39 0 -69 29.5t-30 68.5q0 41 29 69.5t70 28.5t69.5 -28.5t28.5 -69.5z" />
<glyph unicode="&#x2219;" horiz-adv-x="579" d="M387 682q0 -41 -28.5 -69.5t-69.5 -28.5q-39 0 -69 29.5t-30 68.5q0 41 29 69.5t70 28.5t69.5 -28.5t28.5 -69.5z" />
<glyph unicode="&#xb8;" horiz-adv-x="737" d="M375 -219l108 -31l109 234l-156 -4z" />
<glyph unicode="&#xb9;" horiz-adv-x="600" d="M379 709h-115v538l-147 -78l-51 88l233 134l80 -33v-649z" />
<glyph unicode="&#xba;" horiz-adv-x="675" d="M596 1081q0 -135 -76 -223t-190 -88q-113 0 -181.5 84t-68.5 221q0 133 75.5 221t190.5 88q111 0 180.5 -85t69.5 -218zM582 614h-488v80h488v-80zM500 1069q0 102 -44 164.5t-120 62.5q-72 0 -117 -58t-45 -148q0 -102 46 -167t120 -65q72 0 116 57.5t44 153.5z" />
<glyph unicode="&#xbb;" horiz-adv-x="862" d="M788 485l-260 -352l-98 55l182 297l-182 316l98 53zM461 485l-262 -356l-97 55l183 301l-183 312l97 53z" />
<glyph unicode="&#xbc;" horiz-adv-x="1372" d="M506 709h-115v538l-147 -78l-51 88l233 134l80 -33v-649zM1180 1343l-873 -1380l-98 62l870 1382zM1163 162h-84v-162h-110v162h-285l-20 86l327 438l88 -33v-393h84v-98zM969 260v246l-178 -246h178z" />
<glyph unicode="&#xbd;" horiz-adv-x="1372" d="M1235 0h-428l-21 84q313 248 314 389q0 98 -103 98q-68 0 -168 -49l-41 94q125 63 228 64q90 0 146.5 -51t56.5 -142q0 -102 -91 -211q-33 -41 -170 -165h277v-111zM453 709h-115v538l-148 -78l-51 88l234 134l80 -33v-649zM1130 1343l-876 -1380l-98 64l874 1382z" />
<glyph unicode="&#xbe;" horiz-adv-x="1372" d="M592 946q0 -145 -168 -205q-94 -35 -250 -34v102q164 0 238 41q63 35 63 88q0 88 -170 88h-65v107q217 0 217 102q0 51 -76 51q-51 0 -164 -47l-39 92q117 59 213 60q180 0 180 -152q0 -109 -102 -143q55 -10 89 -52.5t34 -97.5zM1196 1343l-864 -1380l-99 62l863 1382z M1186 162h-84v-162h-111v162h-286l-19 86l326 438l90 -33v-393h84v-98zM991 260v246l-180 -246h180z" />
<glyph unicode="&#xbf;" horiz-adv-x="940" d="M602 973q0 -41 -28.5 -70t-69.5 -29q-39 0 -68.5 30t-29.5 69q0 41 28.5 69.5t69.5 28.5t69.5 -28.5t28.5 -69.5zM838 -217q-203 -119 -414 -119q-166 0 -264.5 85t-98.5 228q0 270 365 467l14 7v268h127l23 -336q-373 -143 -373 -383q0 -201 238 -201q160 0 325 88z" />
<glyph unicode="&#xc0;" horiz-adv-x="1312" d="M866 1548l-67 -94l-353 199l107 137zM1298 0h-168l-202 502h-557l-203 -502h-154l561 1366h164zM879 625l-232 569l-229 -569h461z" />
<glyph unicode="&#xc1;" horiz-adv-x="1312" d="M866 1653l-352 -201l-68 90l316 244zM1298 0h-168l-202 502h-557l-203 -502h-154l561 1366h164zM879 625l-232 569l-229 -569h461z" />
<glyph unicode="&#xc2;" horiz-adv-x="1312" d="M989 1561l-65 -99l-262 142l-271 -142l-65 99l336 227zM1298 0h-168l-202 502h-557l-203 -502h-154l561 1366h164zM879 625l-232 569l-229 -569h461z" />
<glyph unicode="&#xc3;" horiz-adv-x="1312" d="M1004 1661q-119 -154 -222 -154q-47 0 -123 43q-84 47 -118 47q-45 0 -105 -59l-24 -25l-11 -12l-92 78q123 154 226 154q51 0 129.5 -44t115.5 -44t123 86l10 10zM1298 0h-168l-202 502h-557l-203 -502h-154l561 1366h164zM879 625l-232 569l-229 -569h461z" />
<glyph unicode="&#xc4;" horiz-adv-x="1312" d="M977 1624q0 -39 -28.5 -68.5t-69.5 -29.5t-70 28.5t-29 69.5t29 69.5t70 28.5t69.5 -28.5t28.5 -69.5zM532 1624q0 -41 -28.5 -69.5t-69.5 -28.5q-39 0 -68.5 29.5t-29.5 68.5q0 41 28.5 69.5t69.5 28.5t69.5 -28.5t28.5 -69.5zM1298 0h-168l-202 502h-557l-203 -502 h-154l561 1366h164zM879 625l-232 569l-229 -569h461z" />
<glyph unicode="&#xc5;" horiz-adv-x="1312" d="M829 1624q0 -72 -50 -123t-122 -51t-123 51t-51 123t51.5 122t122.5 50q72 0 122 -50t50 -122zM1298 0h-168l-202 502h-557l-203 -502h-154l561 1366h164zM754 1624q0 41 -28 68.5t-69 27.5t-69.5 -27.5t-28.5 -68.5t28.5 -69.5t69.5 -28.5q39 0 68 28.5t29 69.5z M879 625l-232 569l-229 -569h461z" />
<glyph unicode="&#xc6;" horiz-adv-x="1820" d="M1743 0h-778v502h-459l-311 -502h-181l854 1366h834v-131h-582v-453h551v-127h-551v-520h623v-135zM965 627v612l-383 -612h383z" />
<glyph unicode="&#xc7;" horiz-adv-x="1316" d="M1276 102q-92 -63 -197 -94q-123 -37 -256 -39l-143 -299l-109 33l91 279q-254 45 -403.5 230t-149.5 450q0 317 215 524t548 207q195 0 388 -78l-48 -121l-75 23q-143 41 -263 40q-272 0 -438 -159.5t-166 -419.5q0 -244 155 -409t406 -165q193 0 392 107z" />
<glyph unicode="&#xc8;" horiz-adv-x="1026" d="M770 1548l-68 -94l-352 199l107 137zM948 0h-778l2 1366h735v-131h-581v-453h551v-127h-551v-520h622v-135z" />
<glyph unicode="&#xc9;" horiz-adv-x="1026" d="M770 1653l-354 -201l-66 90l314 244zM948 0h-778l2 1366h735v-131h-581v-453h551v-127h-551v-520h622v-135z" />
<glyph unicode="&#xca;" horiz-adv-x="1026" d="M891 1561l-66 -99l-260 142l-270 -142l-68 99l338 227zM948 0h-778l2 1366h735v-131h-581v-453h551v-127h-551v-520h622v-135z" />
<glyph unicode="&#xcb;" horiz-adv-x="1026" d="M879 1624q0 -41 -29 -69.5t-70 -28.5q-39 0 -68.5 29.5t-29.5 68.5q0 41 28.5 69.5t69.5 28.5t70 -28.5t29 -69.5zM436 1624q0 -41 -28.5 -69.5t-69.5 -28.5q-39 0 -68.5 29.5t-29.5 68.5q0 41 28.5 69.5t69.5 28.5t69.5 -28.5t28.5 -69.5zM948 0h-778l2 1366h735v-131 h-581v-453h551v-127h-551v-520h622v-135z" />
<glyph unicode="&#xcc;" horiz-adv-x="497" d="M459 1548l-68 -94l-352 199l106 137zM326 0h-156v1366h156v-1366z" />
<glyph unicode="&#xcd;" horiz-adv-x="497" d="M459 1653l-353 -201l-67 90l313 244zM326 0h-156v1366h156v-1366z" />
<glyph unicode="&#xce;" horiz-adv-x="497" d="M580 1561l-66 -99l-260 142l-270 -142l-68 99l338 227zM326 0h-156v1366h156v-1366z" />
<glyph unicode="&#xcf;" horiz-adv-x="497" d="M567 1624q0 -41 -28.5 -69.5t-69.5 -28.5q-39 0 -68.5 29.5t-29.5 68.5q0 41 28.5 69.5t69.5 28.5t69.5 -28.5t28.5 -69.5zM125 1624q0 -41 -28.5 -69.5t-69.5 -28.5t-70 29.5t-29 68.5q0 41 29 69.5t70 28.5t69.5 -28.5t28.5 -69.5zM326 0h-156v1366h156v-1366z" />
<glyph unicode="&#xd0;" horiz-adv-x="1439" d="M170 0h350q197 0 323 36t236 122q258 203 258 532q0 217 -123.5 398.5t-310.5 234.5q-150 43 -373 43h-360v-578h-203v-133h203v-655zM326 1237h256q319 0 465 -176q127 -154 127 -375q0 -252 -160 -401.5t-428 -149.5h-260v520h360v133h-360v449z" />
<glyph unicode="&#xd1;" horiz-adv-x="1384" d="M1038 1661q-117 -154 -221 -154q-43 0 -125 45t-117 45q-45 0 -104 -59l-25 -25l-10 -12l-92 78q123 154 225 154q51 0 130 -44t116 -44t123 86l10 10zM1212 0h-155l-742 1118v-1118h-145v1366h162l743 -1118v1118h137v-1366z" />
<glyph unicode="&#xd2;" horiz-adv-x="1476" d="M948 1548l-67 -94l-353 199l107 137zM1368 698q0 -313 -185.5 -520t-463.5 -207q-268 0 -439 195.5t-171 501.5q0 315 183 520t466 205q268 0 439 -194t171 -501zM1206 668q0 20 -2 51q-16 240 -146 389t-325 149q-199 0 -333 -160.5t-134 -398.5q0 -256 132 -420.5 t339 -164.5q205 0 337 155.5t132 399.5z" />
<glyph unicode="&#xd3;" horiz-adv-x="1476" d="M948 1653l-352 -201l-68 90l314 244zM1368 698q0 -313 -185.5 -520t-463.5 -207q-268 0 -439 195.5t-171 501.5q0 315 183 520t466 205q268 0 439 -194t171 -501zM1206 668q0 20 -2 51q-16 240 -146 389t-325 149q-199 0 -333 -160.5t-134 -398.5q0 -256 132 -420.5 t339 -164.5q205 0 337 155.5t132 399.5z" />
<glyph unicode="&#xd4;" horiz-adv-x="1476" d="M1069 1561l-63 -99l-263 142l-270 -142l-67 99l337 227zM1368 698q0 -313 -185.5 -520t-463.5 -207q-268 0 -439 195.5t-171 501.5q0 315 183 520t466 205q268 0 439 -194t171 -501zM1206 668q0 20 -2 51q-16 240 -146 389t-325 149q-199 0 -333 -160.5t-134 -398.5 q0 -256 132 -420.5t339 -164.5q205 0 337 155.5t132 399.5z" />
<glyph unicode="&#xd5;" horiz-adv-x="1476" d="M1085 1661q-119 -154 -221 -154q-45 0 -123 43q-84 47 -118 47q-45 0 -105 -59l-37 -37l-90 78q119 154 225 154q51 0 130 -44t116 -44t123 86l10 10zM1368 698q0 -313 -185.5 -520t-463.5 -207q-268 0 -439 195.5t-171 501.5q0 315 183 520t466 205q268 0 439 -194 t171 -501zM1206 668q0 20 -2 51q-16 240 -146 389t-325 149q-199 0 -333 -160.5t-134 -398.5q0 -256 132 -420.5t339 -164.5q205 0 337 155.5t132 399.5z" />
<glyph unicode="&#xd6;" horiz-adv-x="1476" d="M1059 1624q0 -39 -29 -68.5t-69 -29.5q-41 0 -70 28.5t-29 69.5t29 69.5t70 28.5t69.5 -28.5t28.5 -69.5zM614 1624q0 -41 -28.5 -69.5t-69.5 -28.5q-39 0 -68.5 29.5t-29.5 68.5q0 41 28.5 69.5t69.5 28.5t69.5 -28.5t28.5 -69.5zM1368 698q0 -313 -185.5 -520 t-463.5 -207q-268 0 -439 195.5t-171 501.5q0 315 183 520t466 205q268 0 439 -194t171 -501zM1206 668q0 20 -2 51q-16 240 -146 389t-325 149q-199 0 -333 -160.5t-134 -398.5q0 -256 132 -420.5t339 -164.5q205 0 337 155.5t132 399.5z" />
<glyph unicode="&#xd7;" d="M987 164l-94 -94l-381 379l-381 -379l-94 94l379 381l-379 381l94 94l381 -379l381 379l94 -94l-379 -381z" />
<glyph unicode="&#xd8;" horiz-adv-x="1497" d="M1389 1327l-148 -168q139 -193 139 -465q0 -309 -185 -516t-464 -207q-231 0 -397 154l-137 -156l-88 76l147 168q-135 188 -135 457q0 313 183 518t466 205q229 0 391 -148l139 160zM1055 1124q-133 133 -310 133q-199 0 -332.5 -160.5t-133.5 -398.5q0 -195 90 -356z M1219 666q0 203 -91 364l-690 -786q121 -131 314 -131q205 0 336 155.5t131 397.5z" />
<glyph unicode="&#xd9;" horiz-adv-x="1386" d="M903 1548l-67 -94l-353 199l107 137zM1223 506q0 -250 -147.5 -392.5t-407.5 -142.5q-229 0 -371 129q-133 121 -133 392v874h155v-874q0 -135 37 -211q82 -170 320 -170q160 0 270 77q76 53 104.5 128t28.5 219v831h144v-860z" />
<glyph unicode="&#xda;" horiz-adv-x="1386" d="M903 1653l-352 -201l-68 90l314 244zM1223 506q0 -250 -147.5 -392.5t-407.5 -142.5q-229 0 -371 129q-133 121 -133 392v874h155v-874q0 -135 37 -211q82 -170 320 -170q160 0 270 77q76 53 104.5 128t28.5 219v831h144v-860z" />
<glyph unicode="&#xdb;" horiz-adv-x="1386" d="M1024 1561l-63 -99l-263 142l-270 -142l-68 99l338 227zM1223 506q0 -250 -147.5 -392.5t-407.5 -142.5q-229 0 -371 129q-133 121 -133 392v874h155v-874q0 -135 37 -211q82 -170 320 -170q160 0 270 77q76 53 104.5 128t28.5 219v831h144v-860z" />
<glyph unicode="&#xdc;" horiz-adv-x="1386" d="M1012 1624q0 -41 -29 -69.5t-70 -28.5q-39 0 -68.5 29.5t-29.5 68.5q0 41 28.5 69.5t69.5 28.5t70 -28.5t29 -69.5zM569 1624q0 -41 -28.5 -69.5t-69.5 -28.5q-39 0 -68.5 29.5t-29.5 68.5q0 41 28.5 69.5t69.5 28.5t69.5 -28.5t28.5 -69.5zM1223 506 q0 -250 -147.5 -392.5t-407.5 -142.5q-229 0 -371 129q-133 121 -133 392v874h155v-874q0 -135 37 -211q82 -170 320 -170q160 0 270 77q76 53 104.5 128t28.5 219v831h144v-860z" />
<glyph unicode="&#xdd;" horiz-adv-x="1144" d="M1130 1366l-481 -754v-612h-155v612l-480 754h179l382 -621l386 621h169zM809 1653l-352 -201l-68 90l316 244z" />
<glyph unicode="&#xde;" horiz-adv-x="1071" d="M1010 743q0 -176 -133 -292q-121 -104 -375 -105h-176v-346h-156v1366h156v-256h145q119 0 209 -8q150 -14 240 -113t90 -246zM848 733q0 129 -94 195q-68 47 -232 47h-196v-500h168q115 0 174 17q80 23 130 89t50 152z" />
<glyph unicode="&#xdf;" horiz-adv-x="1083" d="M1008 268q0 -131 -111 -208.5t-297 -77.5q-141 0 -227 32l30 111q72 -23 189 -23q121 0 193.5 45.5t72.5 120.5q0 51 -32.5 91t-127.5 106q-150 104 -196 147q-59 55 -60 121q0 35 9 53q16 41 133 142q168 145 168 264q0 72 -53.5 118t-139.5 46q-84 0 -150.5 -48 t-96 -126t-29.5 -267v-915h-140v915q0 158 19 250q27 139 144.5 229.5t268.5 90.5q143 0 233.5 -82t90.5 -211q0 -84 -39 -149.5t-145 -161.5l-70 -64q-45 -41 -45 -72q0 -39 117 -116l104 -70q187 -125 187 -291z" />
<glyph unicode="&#xe0;" horiz-adv-x="907" d="M694 1155l-73 -88l-328 203l104 125zM903 10q-63 -33 -117 -33q-147 0 -157 166q-39 -37 -74 -63q-125 -96 -246 -96q-96 0 -159.5 64.5t-63.5 162.5q0 270 535 389v41q0 119 -29 165t-105 46q-53 0 -118 -29q-88 -39 -185 -112l-73 88q86 82 197.5 133t201.5 51 q131 0 197 -84q53 -70 53 -237v-463q0 -23 4 -43q10 -57 70 -58q16 0 51 8zM621 285v198q-389 -104 -390 -262q0 -47 30 -75.5t77 -28.5q131 0 283 168z" />
<glyph unicode="&#xe1;" horiz-adv-x="907" d="M692 1268l-327 -199l-68 84l297 240zM903 10q-63 -33 -117 -33q-147 0 -157 166q-39 -37 -74 -63q-125 -96 -246 -96q-96 0 -159.5 64.5t-63.5 162.5q0 270 535 389v41q0 119 -29 165t-105 46q-53 0 -118 -29q-88 -39 -185 -112l-73 88q86 82 197.5 133t201.5 51 q131 0 197 -84q53 -70 53 -237v-463q0 -23 4 -43q10 -57 70 -58q16 0 51 8zM621 285v198q-389 -104 -390 -262q0 -47 30 -75.5t77 -28.5q131 0 283 168z" />
<glyph unicode="&#xe2;" horiz-adv-x="907" d="M793 1151l-76 -88l-217 147l-226 -147l-75 88l301 242zM903 10q-63 -33 -117 -33q-147 0 -157 166q-39 -37 -74 -63q-125 -96 -246 -96q-96 0 -159.5 64.5t-63.5 162.5q0 270 535 389v41q0 119 -29 165t-105 46q-53 0 -118 -29q-88 -39 -185 -112l-73 88q86 82 197.5 133 t201.5 51q131 0 197 -84q53 -70 53 -237v-463q0 -23 4 -43q10 -57 70 -58q16 0 51 8zM621 285v198q-389 -104 -390 -262q0 -47 30 -75.5t77 -28.5q131 0 283 168z" />
<glyph unicode="&#xe3;" horiz-adv-x="907" d="M825 1272q-111 -152 -213 -152q-10 0 -39 4q-43 12 -112 56q-47 29 -78 28q-47 0 -131 -92l-88 74q111 152 211 151q57 0 164 -63q41 -25 67 -25q41 0 131 90zM903 10q-63 -33 -117 -33q-147 0 -157 166q-39 -37 -74 -63q-125 -96 -246 -96q-96 0 -159.5 64.5 t-63.5 162.5q0 270 535 389v41q0 119 -29 165t-105 46q-53 0 -118 -29q-88 -39 -185 -112l-73 88q86 82 197.5 133t201.5 51q131 0 197 -84q53 -70 53 -237v-463q0 -23 4 -43q10 -57 70 -58q16 0 51 8zM621 285v198q-389 -104 -390 -262q0 -47 30 -75.5t77 -28.5 q131 0 283 168z" />
<glyph unicode="&#xe4;" horiz-adv-x="907" d="M760 1223q0 -37 -26.5 -63.5t-63.5 -26.5t-63.5 26.5t-26.5 63.5q0 39 25.5 64.5t64.5 25.5q37 0 63.5 -25.5t26.5 -64.5zM412 1223q0 -37 -26 -63.5t-64 -26.5q-37 0 -64 26.5t-27 63.5q0 39 27 64.5t64 25.5q39 0 64.5 -25.5t25.5 -64.5zM903 10q-63 -33 -117 -33 q-147 0 -157 166q-39 -37 -74 -63q-125 -96 -246 -96q-96 0 -159.5 64.5t-63.5 162.5q0 270 535 389v41q0 119 -29 165t-105 46q-53 0 -118 -29q-88 -39 -185 -112l-73 88q86 82 197.5 133t201.5 51q131 0 197 -84q53 -70 53 -237v-463q0 -23 4 -43q10 -57 70 -58q16 0 51 8 zM621 285v198q-389 -104 -390 -262q0 -47 30 -75.5t77 -28.5q131 0 283 168z" />
<glyph unicode="&#xe5;" horiz-adv-x="907" d="M657 1231q0 -68 -48 -116t-115 -48q-68 0 -116 48t-48 116q0 70 48 117t116 47t115.5 -47t47.5 -117zM903 10q-63 -33 -117 -33q-147 0 -157 166q-39 -37 -74 -63q-125 -96 -246 -96q-96 0 -159.5 64.5t-63.5 162.5q0 270 535 389v41q0 119 -29 165t-105 46 q-53 0 -118 -29q-88 -39 -185 -112l-73 88q86 82 197.5 133t201.5 51q131 0 197 -84q53 -70 53 -237v-463q0 -23 4 -43q10 -57 70 -58q16 0 51 8zM586 1231q0 39 -27 65.5t-65 26.5q-39 0 -66 -26.5t-27 -65.5t27 -65.5t66 -26.5t65.5 26.5t26.5 65.5zM621 285v198 q-389 -104 -390 -262q0 -47 30 -75.5t77 -28.5q131 0 283 168z" />
<glyph unicode="&#xe6;" horiz-adv-x="1478" d="M1405 160q-174 -186 -406 -187q-217 0 -323 211q-197 -205 -367 -204q-96 0 -159.5 63t-63.5 160q0 197 242 305q57 25 130.5 49.5t159.5 34.5l3 37v14q0 113 -31 160t-103 47q-115 0 -303 -145l-75 92q207 184 399 184q180 0 227 -158q123 160 312 160q158 0 252 -115.5 t94 -308.5q0 -39 -2 -72h-627q2 -199 66.5 -290t201.5 -91q129 0 307 136zM1245 604q-16 262 -209 262q-102 0 -172.5 -74.5t-87.5 -195.5zM633 295q-14 70 -17 182q-45 -10 -81 -20q-100 -27 -177 -72q-125 -74 -125 -164q0 -47 30 -77.5t79 -30.5q63 0 147.5 52t143.5 130 z" />
<glyph unicode="&#xe7;" horiz-adv-x="905" d="M872 137q-137 -121 -280 -153l-109 -234l-108 31l61 199q-158 25 -253 158.5t-95 334.5q0 229 126 368.5t335 139.5q139 0 276 -76l-51 -110q-131 63 -227 63q-137 0 -218 -102.5t-81 -274.5q0 -170 73.5 -270t198.5 -100q139 0 287 116z" />
<glyph unicode="&#xe8;" horiz-adv-x="993" d="M702 1155l-73 -88l-328 203l105 125zM918 158q-37 -37 -107 -80q-164 -102 -313 -103q-186 0 -298 133.5t-112 352.5q0 227 128 374.5t323 147.5q174 0 269 -117.5t95 -330.5v-46h-657v-30q0 -164 71.5 -257t198.5 -93q98 0 191 47q55 29 143 90zM754 606 q-4 119 -65.5 187.5t-164.5 68.5q-102 0 -175 -72.5t-93 -193.5z" />
<glyph unicode="&#xe9;" horiz-adv-x="993" d="M700 1268l-327 -199l-68 84l297 240zM918 158q-37 -37 -107 -80q-164 -102 -313 -103q-186 0 -298 133.5t-112 352.5q0 227 128 374.5t323 147.5q174 0 269 -117.5t95 -330.5v-46h-657v-30q0 -164 71.5 -257t198.5 -93q98 0 191 47q55 29 143 90zM754 606 q-4 119 -65.5 187.5t-164.5 68.5q-102 0 -175 -72.5t-93 -193.5z" />
<glyph unicode="&#xea;" horiz-adv-x="993" d="M801 1151l-76 -88l-217 147l-225 -147l-76 88l301 242zM918 158q-37 -37 -107 -80q-164 -102 -313 -103q-186 0 -298 133.5t-112 352.5q0 227 128 374.5t323 147.5q174 0 269 -117.5t95 -330.5v-46h-657v-30q0 -164 71.5 -257t198.5 -93q98 0 191 47q55 29 143 90z M754 606q-4 119 -65.5 187.5t-164.5 68.5q-102 0 -175 -72.5t-93 -193.5z" />
<glyph unicode="&#xeb;" horiz-adv-x="993" d="M768 1223q0 -37 -26.5 -63.5t-63.5 -26.5t-63.5 26.5t-26.5 63.5q0 39 25.5 64.5t64.5 25.5q37 0 63.5 -25.5t26.5 -64.5zM420 1223q0 -37 -25.5 -63.5t-64.5 -26.5q-37 0 -63.5 26.5t-26.5 63.5q0 39 26.5 64.5t63.5 25.5q39 0 64.5 -25.5t25.5 -64.5zM918 158 q-37 -37 -107 -80q-164 -102 -313 -103q-186 0 -298 133.5t-112 352.5q0 227 128 374.5t323 147.5q174 0 269 -117.5t95 -330.5v-46h-657v-30q0 -164 71.5 -257t198.5 -93q98 0 191 47q55 29 143 90zM754 606q-4 119 -65.5 187.5t-164.5 68.5q-102 0 -175 -72.5t-93 -193.5z " />
<glyph unicode="&#xec;" horiz-adv-x="436" d="M418 1155l-74 -88l-328 203l105 125zM289 0h-142v952h142v-952z" />
<glyph unicode="&#xed;" horiz-adv-x="436" d="M416 1268l-328 -199l-68 84l297 240zM289 0h-142v952h142v-952z" />
<glyph unicode="&#xee;" horiz-adv-x="434" d="M514 1151l-76 -88l-217 147l-225 -147l-76 88l301 242zM289 0h-142v952h142v-952z" />
<glyph unicode="&#xef;" horiz-adv-x="434" d="M481 1223q0 -37 -26.5 -63.5t-63.5 -26.5t-63.5 26.5t-26.5 63.5q0 39 25.5 64.5t64.5 25.5q37 0 63.5 -25.5t26.5 -64.5zM133 1223q0 -37 -25.5 -63.5t-64.5 -26.5q-37 0 -63.5 26.5t-26.5 63.5q0 39 26.5 64.5t63.5 25.5q39 0 64.5 -25.5t25.5 -64.5zM289 0h-142v952 h142v-952z" />
<glyph unicode="&#xf0;" horiz-adv-x="999" d="M502 -25q-184 -6 -298 132.5t-122 367.5q-8 223 98.5 362.5t294.5 145.5q141 4 275 -63q-31 131 -113 221l-225 -90l-45 123l151 61q-78 47 -180 68q-39 8 -176 22l18 129q59 -4 211 -29q176 -39 283 -131l188 80l49 -127l-139 -53q141 -182 152 -479q12 -334 -98.5 -533 t-323.5 -207zM766 741q-133 111 -283 105q-117 -4 -185.5 -102.5t-61.5 -268.5q6 -172 78.5 -268t183.5 -92q123 4 197.5 136t74.5 372q0 39 -2 79z" />
<glyph unicode="&#xf1;" horiz-adv-x="1056" d="M862 1272q-111 -152 -213 -152q-10 0 -39 4q-43 12 -112 56q-47 29 -78 28q-47 0 -131 -92l-88 74q111 152 211 151q57 0 163 -63q41 -25 68 -25q41 0 131 90zM915 0h-141v575q0 88 -2 123q-8 154 -147 154q-164 0 -336 -188v-664h-142v952h142v-141q51 47 94 78 q129 92 264 92q170 0 236 -129q33 -63 32 -221v-631z" />
<glyph unicode="&#xf2;" horiz-adv-x="1050" d="M725 1155l-74 -88l-327 203l104 125zM963 487q0 -219 -129 -364.5t-324 -145.5q-188 0 -305 138.5t-117 361.5q0 201 107 334q137 172 344 172q188 0 306 -138.5t118 -357.5zM813 467q0 176 -79 281.5t-212 105.5q-125 0 -205.5 -99.5t-80.5 -252.5q0 -176 80.5 -284.5 t213.5 -108.5q127 0 205 98t78 260z" />
<glyph unicode="&#xf3;" horiz-adv-x="1050" d="M723 1268l-328 -199l-67 84l297 240zM963 487q0 -219 -129 -364.5t-324 -145.5q-188 0 -305 138.5t-117 361.5q0 201 107 334q137 172 344 172q188 0 306 -138.5t118 -357.5zM813 467q0 176 -79 281.5t-212 105.5q-125 0 -205.5 -99.5t-80.5 -252.5q0 -176 80.5 -284.5 t213.5 -108.5q127 0 205 98t78 260z" />
<glyph unicode="&#xf4;" horiz-adv-x="1050" d="M823 1151l-75 -88l-218 147l-225 -147l-76 88l301 242zM963 487q0 -219 -129 -364.5t-324 -145.5q-188 0 -305 138.5t-117 361.5q0 201 107 334q137 172 344 172q188 0 306 -138.5t118 -357.5zM813 467q0 176 -79 281.5t-212 105.5q-125 0 -205.5 -99.5t-80.5 -252.5 q0 -176 80.5 -284.5t213.5 -108.5q127 0 205 98t78 260z" />
<glyph unicode="&#xf5;" horiz-adv-x="1050" d="M856 1272q-111 -152 -213 -152q-10 0 -39 4q-43 12 -112 56q-47 29 -78 28q-47 0 -131 -92l-88 74q111 152 211 151q57 0 163 -63q41 -25 68 -25q41 0 131 90zM963 487q0 -219 -129 -364.5t-324 -145.5q-188 0 -305 138.5t-117 361.5q0 201 107 334q137 172 344 172 q188 0 306 -138.5t118 -357.5zM813 467q0 176 -79 281.5t-212 105.5q-125 0 -205.5 -99.5t-80.5 -252.5q0 -176 80.5 -284.5t213.5 -108.5q127 0 205 98t78 260z" />
<glyph unicode="&#xf6;" horiz-adv-x="1050" d="M791 1223q0 -37 -27 -63.5t-64 -26.5t-63.5 26.5t-26.5 63.5q0 39 26 64.5t64 25.5q37 0 64 -25.5t27 -64.5zM442 1223q0 -37 -25.5 -63.5t-64.5 -26.5q-37 0 -63.5 26.5t-26.5 63.5q0 39 26.5 64.5t63.5 25.5q39 0 64.5 -25.5t25.5 -64.5zM963 487q0 -219 -129 -364.5 t-324 -145.5q-188 0 -305 138.5t-117 361.5q0 201 107 334q137 172 344 172q188 0 306 -138.5t118 -357.5zM813 467q0 176 -79 281.5t-212 105.5q-125 0 -205.5 -99.5t-80.5 -252.5q0 -176 80.5 -284.5t213.5 -108.5q127 0 205 98t78 260z" />
<glyph unicode="&#xf7;" d="M641 948q0 -51 -37 -89t-90 -38q-51 0 -89 38t-38 89t37 89t88 38q53 0 91 -37t38 -90zM641 131q0 -51 -37 -89t-90 -38q-51 0 -89 38t-38 89t37 89t88 38q53 0 91 -37t38 -90zM991 477h-956v135h956v-135z" />
<glyph unicode="&#xf8;" horiz-adv-x="1097" d="M1010 905l-103 -112q78 -123 78 -308q0 -219 -129 -363.5t-321 -144.5q-156 0 -269 101l-90 -103l-88 78l102 115q-78 119 -77 311q0 197 106 332q135 172 342 172q154 0 270 -100l91 100zM735 774q-82 80 -190 80q-125 0 -205 -99.5t-80 -252.5q0 -104 39 -213zM838 467 q0 104 -37 205l-436 -486q80 -78 190 -77q127 0 205 98t78 260z" />
<glyph unicode="&#xf9;" horiz-adv-x="1058" d="M729 1155l-74 -88l-327 203l104 125zM913 0h-143v150q-164 -174 -364 -175q-162 0 -226 121q-37 68 -37 246v610h140v-567q0 -98 6 -147q16 -127 149 -127q162 0 332 192v649h143v-952z" />
<glyph unicode="&#xfa;" horiz-adv-x="1058" d="M725 1268l-328 -199l-67 84l297 240zM913 0h-143v150q-164 -174 -364 -175q-162 0 -226 121q-37 68 -37 246v610h140v-567q0 -98 6 -147q16 -127 149 -127q162 0 332 192v649h143v-952z" />
<glyph unicode="&#xfb;" horiz-adv-x="1058" d="M825 1151l-75 -88l-218 147l-225 -147l-76 88l301 242zM913 0h-143v150q-164 -174 -364 -175q-162 0 -226 121q-37 68 -37 246v610h140v-567q0 -98 6 -147q16 -127 149 -127q162 0 332 192v649h143v-952z" />
<glyph unicode="&#xfc;" horiz-adv-x="1058" d="M793 1223q0 -37 -27 -63.5t-64 -26.5t-63.5 26.5t-26.5 63.5q0 39 26 64.5t64 25.5q37 0 64 -25.5t27 -64.5zM444 1223q0 -37 -25.5 -63.5t-64.5 -26.5q-37 0 -63.5 26.5t-26.5 63.5q0 39 26.5 64.5t63.5 25.5q39 0 64.5 -25.5t25.5 -64.5zM913 0h-143v150 q-164 -174 -364 -175q-162 0 -226 121q-37 68 -37 246v610h140v-567q0 -98 6 -147q16 -127 149 -127q162 0 332 192v649h143v-952z" />
<glyph unicode="&#xfd;" horiz-adv-x="950" d="M938 952l-500 -1177q-6 -18 -20 -51q-37 -78 -76 -130q-63 -86 -199 -86q-70 0 -129 23l31 102q59 -10 90 -10q55 0 89 30t67 107l106 252l-383 940h158l303 -782l316 782h147zM690 1268l-328 -199l-67 84l297 240z" />
<glyph unicode="&#xfe;" horiz-adv-x="1089" d="M999 520q0 -242 -118.5 -394.5t-307.5 -152.5q-164 0 -286 144v-590h-140v1935h140v-651q172 170 340 170q166 0 269 -128t103 -333zM850 487q0 156 -70.5 255.5t-183.5 99.5q-172 0 -309 -191v-364q131 -184 288 -185q121 0 198 107.5t77 277.5z" />
<glyph unicode="&#xff;" horiz-adv-x="950" d="M739 1223q0 -37 -26.5 -63.5t-63.5 -26.5t-63.5 26.5t-26.5 63.5q0 39 25.5 64.5t64.5 25.5q37 0 63.5 -25.5t26.5 -64.5zM391 1223q0 -37 -25.5 -63.5t-64.5 -26.5q-37 0 -63.5 26.5t-26.5 63.5q0 39 26.5 64.5t63.5 25.5q39 0 64.5 -25.5t25.5 -64.5zM938 952 l-500 -1177q-6 -18 -20 -51q-37 -78 -76 -130q-63 -86 -199 -86q-70 0 -129 23l31 102q59 -10 90 -10q55 0 89 30t67 107l106 252l-383 940h158l303 -782l316 782h147z" />
<glyph unicode="&#x152;" horiz-adv-x="1822" d="M1745 0h-911q-215 0 -361 63q-162 70 -263 240t-101 369q0 334 260 536q117 90 250 124t385 34h700v-131h-584v-453h551v-127h-551v-520h625v-135zM965 135v1100h-37q-47 0 -68 -2q-166 0 -285 -55q-145 -68 -224 -199t-79 -301q0 -205 117 -350q82 -102 196.5 -147.5 t295.5 -45.5h84z" />
<glyph unicode="&#x153;" horiz-adv-x="1716" d="M1642 160q-205 -182 -423 -183q-250 0 -345 228q-111 -223 -350 -223q-195 0 -315.5 136t-120.5 355q0 223 129 367.5t328 144.5q233 0 348 -223q137 223 371 223q166 0 264 -114.5t98 -309.5q0 -39 -2 -69h-657q2 -88 14 -152q20 -106 90 -168.5t168 -62.5q82 0 170 36 q74 31 147 88l19 15zM1475 608q-16 260 -224 260q-100 0 -173.5 -72.5t-98.5 -197.5zM817 471q0 174 -82 281.5t-213 107.5q-123 0 -204.5 -100.5t-81.5 -251.5q0 -172 85 -284.5t211 -112.5q129 0 207 98t78 262z" />
<glyph unicode="&#x178;" horiz-adv-x="1144" d="M893 1624q0 -39 -28.5 -68.5t-69.5 -29.5t-70 28.5t-29 69.5t29 69.5t70 28.5t69.5 -28.5t28.5 -69.5zM449 1624q0 -41 -29 -69.5t-70 -28.5q-39 0 -68.5 29.5t-29.5 68.5q0 41 28.5 69.5t69.5 28.5t70 -28.5t29 -69.5zM1130 1366l-481 -754v-612h-155v612l-480 754h179 l382 -621l386 621h169z" />
<glyph unicode="&#x2c6;" horiz-adv-x="737" d="M594 1151l-76 -88l-217 147l-225 -147l-76 88l301 242z" />
<glyph unicode="&#x2dc;" horiz-adv-x="737" d="M662 1272q-111 -152 -213 -152q-10 0 -39 4q-43 12 -113 56q-47 29 -78 28q-47 0 -131 -92l-88 74q111 152 211 151q57 0 164 -63q41 -25 67 -25q41 0 131 90z" />
<glyph unicode="&#x2000;" horiz-adv-x="897" />
<glyph unicode="&#x2001;" horiz-adv-x="1796" />
<glyph unicode="&#x2002;" horiz-adv-x="897" />
<glyph unicode="&#x2003;" horiz-adv-x="1796" />
<glyph unicode="&#x2004;" horiz-adv-x="598" />
<glyph unicode="&#x2005;" horiz-adv-x="448" />
<glyph unicode="&#x2006;" horiz-adv-x="299" />
<glyph unicode="&#x2007;" horiz-adv-x="299" />
<glyph unicode="&#x2008;" horiz-adv-x="223" />
<glyph unicode="&#x2009;" horiz-adv-x="358" />
<glyph unicode="&#x200a;" horiz-adv-x="98" />
<glyph unicode="&#x2010;" horiz-adv-x="620" d="M553 485h-485v121h485v-121z" />
<glyph unicode="&#x2011;" horiz-adv-x="620" d="M553 485h-485v121h485v-121z" />
<glyph unicode="&#x2012;" horiz-adv-x="620" d="M553 485h-485v121h485v-121z" />
<glyph unicode="&#x2013;" horiz-adv-x="1085" d="M1018 485h-950v121h950v-121z" />
<glyph unicode="&#x2014;" horiz-adv-x="2033" d="M1966 485h-1898v121h1898v-121z" />
<glyph unicode="&#x2018;" horiz-adv-x="456" d="M299 981h-162l51 412h111v-412z" />
<glyph unicode="&#x2019;" horiz-adv-x="462" d="M334 1393l-51 -412h-113v412h164z" />
<glyph unicode="&#x201a;" horiz-adv-x="524" d="M354 178l-51 -409h-113v409h164z" />
<glyph unicode="&#x201c;" horiz-adv-x="743" d="M586 1008h-162l49 385h113v-385zM305 1008h-162l50 385h112v-385z" />
<glyph unicode="&#x201d;" horiz-adv-x="743" d="M334 1393l-49 -385h-115v385h164zM612 1393l-49 -385h-112v385h161z" />
<glyph unicode="&#x201e;" horiz-adv-x="743" d="M334 178l-49 -383h-115v383h164zM612 178l-49 -383h-112v383h161z" />
<glyph unicode="&#x2022;" d="M797 694q0 -117 -83 -200.5t-200 -83.5q-119 0 -202 82.5t-83 201.5q0 115 83 199t198 84q121 0 204 -82t83 -201z" />
<glyph unicode="&#x2026;" horiz-adv-x="1515" d="M1323 88q0 -41 -28.5 -69.5t-69.5 -28.5t-70 28.5t-29 69.5t29 69.5t70 28.5t69.5 -28.5t28.5 -69.5zM858 88q0 -41 -28.5 -69.5t-69.5 -28.5t-69.5 28.5t-28.5 69.5t28.5 69.5t69.5 28.5t69.5 -28.5t28.5 -69.5zM387 88q0 -41 -28.5 -69.5t-69.5 -28.5t-70 28.5 t-29 69.5t29 69.5t70 28.5t69.5 -28.5t28.5 -69.5z" />
<glyph unicode="&#x202f;" horiz-adv-x="358" />
<glyph unicode="&#x2039;" horiz-adv-x="536" d="M434 182l-100 -53l-258 367l258 354l100 -55l-184 -299z" />
<glyph unicode="&#x203a;" horiz-adv-x="536" d="M461 485l-258 -352l-101 55l185 297l-185 316l101 53z" />
<glyph unicode="&#x205f;" horiz-adv-x="448" />
<glyph unicode="&#x20ac;" d="M670 -29q113 0 204 41t168 111l-65 84q-59 -43 -131 -79t-170 -36q-55 0 -112.5 21.5t-106.5 68.5t-85 125t-48 193h542v121h-557q-2 16 -1 32.5t1 32.5v59q0 23 4 52h553v123h-534q27 113 69.5 181t91 105t96.5 49.5t85 12.5q96 0 166.5 -36t130.5 -79l65 84 q-78 70 -169 111t-203 41q-176 0 -303.5 -115t-176.5 -354h-196v-123h180q-4 -27 -5 -47.5t-1 -69.5v-31q0 -12 2 -28h-176v-121h186q14 -119 53 -216.5t102.5 -167t149 -107.5t191.5 -38z" />
<glyph unicode="&#x2122;" horiz-adv-x="1624" d="M1573 590h-119l-84 584l-223 -584h-96l-224 586l-86 -586h-110l121 778h120l234 -612l231 612h119zM641 1282h-254v-692h-117v692h-254v86h625v-86z" />
<glyph unicode="&#xe000;" horiz-adv-x="950" d="M0 950h950v-950h-950v950z" />
<glyph unicode="&#xfb01;" horiz-adv-x="1028" d="M905 1284q0 -39 -26.5 -65.5t-65.5 -26.5t-65.5 26.5t-26.5 65.5t26.5 65.5t65.5 26.5t65.5 -26.5t26.5 -65.5zM883 0h-142v952h142v-952zM682 1458l-31 -108q-68 16 -119 16q-82 0 -139 -45q-68 -53 -67 -227v-142h245v-108h-245v-844h-142v844h-157v108h157v113 q0 162 41 254q74 166 297 166q78 0 160 -27z" />
<glyph unicode="&#xfb02;" horiz-adv-x="1030" d="M883 0h-142v1460h142v-1460zM682 1458l-31 -108q-68 16 -119 16q-82 0 -139 -45q-68 -53 -67 -227v-142h245v-108h-245v-844h-142v844h-157v108h157v113q0 162 41 254q74 166 297 166q78 0 160 -27z" />
<glyph unicode="&#xfb03;" horiz-adv-x="1622" d="M1499 1284q0 -39 -26.5 -65.5t-65.5 -26.5t-65.5 26.5t-26.5 65.5t26.5 65.5t65.5 26.5t65.5 -26.5t26.5 -65.5zM1477 0h-142v952h142v-952zM1276 1458l-31 -108q-68 16 -119 16q-82 0 -139 -45q-68 -53 -67 -227v-142h245v-108h-245v-844h-142v844h-157v108h157v113 q0 162 41 254q74 166 297 166q78 0 160 -27zM682 1458l-31 -108q-68 16 -119 16q-82 0 -139 -45q-68 -53 -67 -227v-142h245v-108h-245v-844h-142v844h-157v108h157v113q0 162 41 254q74 166 297 166q78 0 160 -27z" />
<glyph unicode="&#xfb04;" horiz-adv-x="1624" d="M1477 0h-142v1460h142v-1460zM1276 1458l-31 -108q-68 16 -119 16q-82 0 -139 -45q-68 -53 -67 -227v-142h245v-108h-245v-844h-142v844h-157v108h157v113q0 162 41 254q74 166 297 166q78 0 160 -27zM682 1458l-31 -108q-68 16 -119 16q-82 0 -139 -45q-68 -53 -67 -227 v-142h245v-108h-245v-844h-142v844h-157v108h157v113q0 162 41 254q74 166 297 166q78 0 160 -27z" />
</font>
</defs>
</svg>
