<?xml version="1.0" encoding="utf-8"?>
<!-- Generator: Adobe Illustrator 16.0.3, SVG Export Plug-In . SVG Version: 6.00 Build 0)  -->
<!DOCTYPE svg PUBLIC "-//W3C//DTD SVG 1.1//EN" "http://www.w3.org/Graphics/SVG/1.1/DTD/svg11.dtd">
<svg version="1.1" id="Layer_2" xmlns="http://www.w3.org/2000/svg" xmlns:xlink="http://www.w3.org/1999/xlink" x="0px" y="0px"
	 width="177.078px" height="140px" viewBox="0 0 177.078 140" enable-background="new 0 0 177.078 140" xml:space="preserve">
<circle fill="#59B6B2" cx="6.565" cy="91.327" r="3.89"/>
<circle fill="#59B6B2" cx="22.721" cy="118.547" r="3.89"/>
<circle fill="#59B6B2" cx="37.977" cy="73.973" r="3.89"/>
<circle fill="#59B6B2" cx="54.43" cy="54.231" r="3.89"/>
<circle fill="#59B6B2" cx="37.079" cy="45.258" r="3.89"/>
<circle fill="#59B6B2" cx="46.051" cy="33.89" r="3.89"/>
<circle fill="#59B6B2" cx="56.223" cy="33.89" r="3.89"/>
<circle fill="#59B6B2" cx="36.78" cy="136.495" r="3.89"/>
<circle fill="#59B6B2" cx="21.524" cy="141.581" r="3.89"/>
<circle fill="#59B6B2" cx="5.069" cy="144.573" r="3.89"/>
<circle fill="#59B6B2" cx="16.139" cy="162.521" r="3.89"/>
<circle fill="#59B6B2" cx="28.703" cy="159.23" r="3.89"/>
<circle fill="#59B6B2" cx="75.967" cy="143.676" r="3.89"/>
<circle fill="#59B6B2" cx="38.166" cy="101.797" r="5.875"/>
<circle fill="#59B6B2" cx="61.905" cy="157.733" r="5.875"/>
<circle fill="#59B6B2" cx="78.959" cy="40.47" r="5.875"/>
<circle fill="#59B6B2" cx="21.226" cy="67.395" r="5.07"/>
<circle fill="#59B6B2" cx="29.303" cy="53.933" r="5.07"/>
<circle fill="#59B6B2" cx="20.328" cy="96.71" r="5.07"/>
<circle fill="#59B6B2" cx="5.069" cy="163.121" r="5.07"/>
<circle fill="#59B6B2" cx="76.268" cy="164.314" r="2.992"/>
<circle fill="#59B6B2" cx="75.967" cy="152.949" r="2.992"/>
<circle fill="#59B6B2" cx="63.403" cy="143.975" r="2.992"/>
<circle fill="#59B6B2" cx="35.583" cy="164.018" r="2.992"/>
<circle fill="#59B6B2" cx="3.875" cy="152.948" r="2.991"/>
<circle fill="#59B6B2" cx="21.524" cy="155.641" r="2.992"/>
<circle fill="#59B6B2" cx="18.233" cy="149.061" r="2.992"/>
<circle fill="#59B6B2" cx="18.233" cy="132.307" r="2.992"/>
<circle fill="#59B6B2" cx="24.518" cy="126.922" r="2.992"/>
<circle fill="#59B6B2" cx="25.416" cy="135" r="2.992"/>
<circle fill="#59B6B2" cx="30.197" cy="147.862" r="2.992"/>
<circle fill="#59B6B2" cx="40.67" cy="144.271" r="2.992"/>
<circle fill="#59B6B2" cx="42.16" cy="115.257" r="2.992"/>
<circle fill="#59B6B2" cx="30.797" cy="117.35" r="2.992"/>
<circle fill="#59B6B2" cx="34.373" cy="111.666" r="2.992"/>
<circle fill="#59B6B2" cx="24.232" cy="106.879" r="2.992"/>
<circle fill="#59B6B2" cx="3.875" cy="106.582" r="2.992"/>
<circle fill="#59B6B2" cx="54.131" cy="105.369" r="2.992"/>
<circle fill="#59B6B2" cx="60.411" cy="95.514" r="2.992"/>
<circle fill="#59B6B2" cx="50.838" cy="91.923" r="2.992"/>
<circle fill="#59B6B2" cx="44.855" cy="94.916" r="2.992"/>
<circle fill="#59B6B2" cx="41.863" cy="88.334" r="2.991"/>
<circle fill="#59B6B2" cx="27.805" cy="81.453" r="2.992"/>
<circle fill="#59B6B2" cx="29.601" cy="88.933" r="2.991"/>
<circle fill="#59B6B2" cx="38.575" cy="54.233" r="2.991"/>
<circle fill="#59B6B2" cx="44.259" cy="48.548" r="2.992"/>
<circle fill="#59B6B2" cx="20.028" cy="56.341" r="2.992"/>
<circle fill="#59B6B2" cx="37.678" cy="35.684" r="2.991"/>
<circle fill="#59B6B2" cx="70.58" cy="34.787" r="2.992"/>
<circle fill="#59B6B2" cx="58.319" cy="47.051" r="2.992"/>
<circle fill="#59B6B2" cx="32.89" cy="67.693" r="2.992"/>
<circle fill="#59B6B2" cx="18.233" cy="76.966" r="2.992"/>
<circle fill="#59B6B2" cx="35.583" cy="83.847" r="2.991"/>
<circle fill="#59B6B2" cx="69.686" cy="60.514" r="2.392"/>
<circle fill="#59B6B2" cx="73.573" cy="54.831" r="2.392"/>
<circle fill="#59B6B2" cx="62.506" cy="54.831" r="2.392"/>
<circle fill="#59B6B2" cx="68.786" cy="49.745" r="2.392"/>
<circle fill="#59B6B2" cx="59.813" cy="39.575" r="2.392"/>
<circle fill="#59B6B2" cx="64.301" cy="33.292" r="2.392"/>
<circle fill="#59B6B2" cx="64.602" cy="44.66" r="2.392"/>
<circle fill="#59B6B2" cx="52.036" cy="47.042" r="2.392"/>
<circle fill="#59B6B2" cx="52.036" cy="40.472" r="2.392"/>
<circle fill="#59B6B2" cx="46.949" cy="42.866" r="2.392"/>
<circle fill="#59B6B2" cx="32.291" cy="39.274" r="2.392"/>
<circle fill="#59B6B2" cx="45.754" cy="55.129" r="2.392"/>
<circle fill="#59B6B2" cx="49.044" cy="59.916" r="2.392"/>
<circle fill="#59B6B2" cx="42.762" cy="59.917" r="2.392"/>
<circle fill="#59B6B2" cx="36.479" cy="61.113" r="2.392"/>
<circle fill="#59B6B2" cx="27.806" cy="62.308" r="2.392"/>
<circle fill="#59B6B2" cx="29.897" cy="73.976" r="2.392"/>
<circle fill="#59B6B2" cx="19.131" cy="84.445" r="2.393"/>
<circle fill="#59B6B2" cx="14.045" cy="89.831" r="2.392"/>
<circle fill="#59B6B2" cx="23.319" cy="88.635" r="2.392"/>
<circle fill="#59B6B2" cx="41.566" cy="80.557" r="2.392"/>
<circle fill="#59B6B2" cx="40.969" cy="66.197" r="2.392"/>
<circle fill="#59B6B2" cx="65.497" cy="89.53" r="2.392"/>
<circle fill="#59B6B2" cx="66.395" cy="100.002" r="2.392"/>
<circle fill="#59B6B2" cx="62.206" cy="107.67" r="2.392"/>
<circle fill="#59B6B2" cx="54.131" cy="97.908" r="2.393"/>
<circle fill="#59B6B2" cx="36.479" cy="91.64" r="2.392"/>
<circle fill="#59B6B2" cx="29.601" cy="96.112" r="2.392"/>
<circle fill="#59B6B2" cx="29.002" cy="102.095" r="2.393"/>
<circle fill="#59B6B2" cx="11.652" cy="96.711" r="2.392"/>
<circle fill="#59B6B2" cx="5.069" cy="99.103" r="2.392"/>
<circle fill="#59B6B2" cx="16.736" cy="106.583" r="2.392"/>
<circle fill="#59B6B2" cx="39.771" cy="123.634" r="2.393"/>
<circle fill="#59B6B2" cx="34.686" cy="129.017" r="2.393"/>
<circle fill="#59B6B2" cx="18.233" cy="124.829" r="2.392"/>
<circle fill="#59B6B2" cx="45.456" cy="132.607" r="2.392"/>
<circle fill="#59B6B2" cx="45.157" cy="139.19" r="2.392"/>
<circle fill="#59B6B2" cx="13.145" cy="142.179" r="2.392"/>
<circle fill="#59B6B2" cx="29.001" cy="140.387" r="2.392"/>
<circle fill="#59B6B2" cx="51.737" cy="146.966" r="2.393"/>
<circle fill="#59B6B2" cx="45.152" cy="149.956" r="2.392"/>
<circle fill="#59B6B2" cx="57.422" cy="148.761" r="2.392"/>
<circle fill="#59B6B2" cx="69.686" cy="147.266" r="2.392"/>
<circle fill="#59B6B2" cx="71.479" cy="158.631" r="2.392"/>
<circle fill="#59B6B2" cx="69.385" cy="165.214" r="2.392"/>
<circle fill="#59B6B2" cx="46.949" cy="161.924" r="2.392"/>
<circle fill="#59B6B2" cx="52.336" cy="159.232" r="2.392"/>
<circle fill="#59B6B2" cx="46.949" cy="155.641" r="2.392"/>
<circle fill="#59B6B2" cx="41.267" cy="159.827" r="2.392"/>
<circle fill="#59B6B2" cx="36.479" cy="151.859" r="2.393"/>
<circle fill="#59B6B2" cx="15.241" cy="154.444" r="2.392"/>
<circle fill="#59B6B2" cx="23.319" cy="164.617" r="2.393"/>
<circle fill="#59B6B2" cx="56.225" cy="165.214" r="2.392"/>
<circle fill="#59B6B2" cx="46.651" cy="107.181" r="2.393"/>
<circle fill="#59B6B2" cx="11.053" cy="107.479" r="2.392"/>
<circle fill="#59B6B2" cx="73.572" cy="49.434" r="1.808"/>
<circle fill="#59B6B2" cx="78.959" cy="48.864" r="1.808"/>
<circle fill="#59B6B2" cx="68.188" cy="55.402" r="1.807"/>
<circle fill="#59B6B2" cx="64" cy="50.045" r="1.808"/>
<circle fill="#59B6B2" cx="71.178" cy="44.361" r="1.807"/>
<circle fill="#59B6B2" cx="67.293" cy="40.172" r="1.808"/>
<circle fill="#59B6B2" cx="42.166" cy="39.576" r="1.807"/>
<circle fill="#59B6B2" cx="27.509" cy="42.554" r="1.807"/>
<circle fill="#59B6B2" cx="30.497" cy="46.346" r="1.807"/>
<circle fill="#59B6B2" cx="23.616" cy="48.238" r="1.807"/>
<circle fill="#59B6B2" cx="46.051" cy="65.599" r="1.807"/>
<circle fill="#59B6B2" cx="24.813" cy="75.77" r="1.807"/>
<circle fill="#59B6B2" cx="9.262" cy="102.991" r="1.808"/>
<circle fill="#59B6B2" cx="14.344" cy="101.781" r="1.807"/>
<circle fill="#59B6B2" cx="47.549" cy="87.438" r="1.807"/>
<circle fill="#59B6B2" cx="57.122" cy="90.729" r="1.807"/>
<circle fill="#59B6B2" cx="61.01" cy="88.05" r="1.807"/>
<circle fill="#59B6B2" cx="67.291" cy="94.917" r="1.807"/>
<circle fill="#59B6B2" cx="59.813" cy="101.781" r="1.807"/>
<circle fill="#59B6B2" cx="68.488" cy="108.377" r="1.807"/>
<circle fill="#59B6B2" cx="49.939" cy="99.103" r="1.808"/>
<circle fill="#59B6B2" cx="46.648" cy="102.693" r="1.807"/>
<circle fill="#59B6B2" cx="29.303" cy="108.378" r="1.807"/>
<circle fill="#59B6B2" cx="26.296" cy="112.865" r="1.809"/>
<circle fill="#59B6B2" cx="20.926" cy="111.965" r="1.807"/>
<circle fill="#59B6B2" cx="17.337" cy="115.557" r="1.807"/>
<circle fill="#59B6B2" cx="41.269" cy="109.575" r="1.808"/>
<circle fill="#59B6B2" cx="36.78" cy="117.936" r="1.807"/>
<circle fill="#59B6B2" cx="30.497" cy="124.233" r="1.808"/>
<circle fill="#59B6B2" cx="29.897" cy="129.017" r="1.808"/>
<circle fill="#59B6B2" cx="31.396" cy="133.206" r="1.808"/>
<circle fill="#59B6B2" cx="39.771" cy="130.511" r="1.807"/>
<circle fill="#59B6B2" cx="45.754" cy="126.922" r="1.807"/>
<circle fill="#59B6B2" cx="45.157" cy="121.242" r="1.807"/>
<circle fill="#59B6B2" cx="12.536" cy="147.852" r="1.807"/>
<circle fill="#59B6B2" cx="9.258" cy="156.238" r="1.807"/>
<circle fill="#59B6B2" cx="24.812" cy="147.876" r="1.807"/>
<circle fill="#59B6B2" cx="27.495" cy="152.95" r="1.808"/>
<circle fill="#59B6B2" cx="33.488" cy="142.768" r="1.807"/>
<circle fill="#59B6B2" cx="35.583" cy="147.266" r="1.807"/>
<circle fill="#59B6B2" cx="35.883" cy="158.052" r="1.807"/>
<circle fill="#59B6B2" cx="41.267" cy="154.25" r="1.808"/>
<circle fill="#59B6B2" cx="29.301" cy="166.11" r="1.807"/>
<circle fill="#59B6B2" cx="41.866" cy="165.514" r="1.808"/>
<circle fill="#59B6B2" cx="50.838" cy="165.214" r="1.807"/>
<circle fill="#59B6B2" cx="64.002" cy="166.11" r="1.807"/>
<circle fill="#59B6B2" cx="77.463" cy="158.642" r="1.808"/>
<circle fill="#59B6B2" cx="69.385" cy="153.548" r="1.807"/>
<circle fill="#59B6B2" cx="69.983" cy="140.983" r="1.808"/>
<circle fill="#59B6B2" cx="58.006" cy="142.479" r="1.807"/>
<circle fill="#59B6B2" cx="63.403" cy="149.467" r="1.807"/>
<circle fill="#59B6B2" cx="51.139" cy="141.596" r="1.808"/>
<circle fill="#59B6B2" cx="51.747" cy="152.95" r="1.808"/>
<circle fill="#59B6B2" cx="108.572" cy="159.23" r="3.89"/>
<circle fill="#59B6B2" cx="128.316" cy="166.11" r="3.89"/>
<circle fill="#59B6B2" cx="166.606" cy="124.231" r="3.89"/>
<circle fill="#59B6B2" cx="173.188" cy="129.915" r="3.89"/>
<circle fill="#59B6B2" cx="161.223" cy="135.599" r="3.89"/>
<circle fill="#59B6B2" cx="150.752" cy="155.043" r="3.89"/>
<circle fill="#59B6B2" cx="151.949" cy="134.4" r="3.89"/>
<circle fill="#59B6B2" cx="151.949" cy="86.239" r="3.89"/>
<circle fill="#59B6B2" cx="141.178" cy="82.348" r="3.89"/>
<circle fill="#59B6B2" cx="102.293" cy="84.745" r="3.89"/>
<circle fill="#59B6B2" cx="116.051" cy="82.948" r="3.89"/>
<circle fill="#59B6B2" cx="128.916" cy="44.36" r="3.89"/>
<circle fill="#59B6B2" cx="164.213" cy="35.984" r="3.89"/>
<circle fill="#59B6B2" cx="145.967" cy="36.881" r="3.89"/>
<circle fill="#59B6B2" cx="160.922" cy="54.232" r="3.589"/>
<circle fill="#59B6B2" cx="164.213" cy="146.667" r="6.581"/>
<circle fill="#59B6B2" cx="107.077" cy="97.907" r="6.581"/>
<circle fill="#59B6B2" cx="112.762" cy="61.412" r="5.07"/>
<circle fill="#59B6B2" cx="121.135" cy="52.138" r="5.07"/>
<circle fill="#59B6B2" cx="146.862" cy="47.067" r="5.07"/>
<circle fill="#59B6B2" cx="129.512" cy="100.299" r="5.07"/>
<circle fill="#59B6B2" cx="150.155" cy="112.864" r="5.069"/>
<circle fill="#59B6B2" cx="165.412" cy="114.061" r="5.07"/>
<circle fill="#59B6B2" cx="97.506" cy="146.666" r="5.07"/>
<circle fill="#59B6B2" cx="102.592" cy="49.148" r="2.992"/>
<circle fill="#59B6B2" cx="111.564" cy="52.139" r="2.992"/>
<circle fill="#59B6B2" cx="114.854" cy="45.257" r="2.992"/>
<circle fill="#59B6B2" cx="117.846" cy="34.595" r="2.992"/>
<circle fill="#59B6B2" cx="129.512" cy="34.595" r="2.992"/>
<circle fill="#59B6B2" cx="130.707" cy="53.334" r="2.991"/>
<circle fill="#59B6B2" cx="104.088" cy="56.341" r="2.992"/>
<circle fill="#59B6B2" cx="136.691" cy="47.051" r="2.992"/>
<circle fill="#59B6B2" cx="107.081" cy="69.188" r="2.991"/>
<circle fill="#59B6B2" cx="110.369" cy="75.77" r="2.992"/>
<circle fill="#59B6B2" cx="101.691" cy="75.77" r="2.992"/>
<circle fill="#59B6B2" cx="153.145" cy="54.233" r="2.991"/>
<circle fill="#59B6B2" cx="133.699" cy="87.437" r="2.991"/>
<circle fill="#59B6B2" cx="143.573" cy="90.129" r="2.991"/>
<circle fill="#59B6B2" cx="136.691" cy="94.317" r="2.991"/>
<circle fill="#59B6B2" cx="151.95" cy="94.317" r="2.991"/>
<circle fill="#59B6B2" cx="145.068" cy="104.787" r="2.992"/>
<circle fill="#59B6B2" cx="153.146" cy="122.139" r="2.992"/>
<circle fill="#59B6B2" cx="90.924" cy="137.393" r="2.992"/>
<circle fill="#59B6B2" cx="106.777" cy="133.205" r="2.992"/>
<circle fill="#59B6B2" cx="113.657" cy="137.395" r="2.992"/>
<circle fill="#59B6B2" cx="107.69" cy="140.684" r="2.992"/>
<circle fill="#59B6B2" cx="117.83" cy="143.676" r="2.991"/>
<circle fill="#59B6B2" cx="117.25" cy="155.641" r="2.992"/>
<circle fill="#59B6B2" cx="131.008" cy="143.675" r="2.992"/>
<circle fill="#59B6B2" cx="153.743" cy="142.18" r="2.992"/>
<circle fill="#59B6B2" cx="146.866" cy="140.084" r="2.991"/>
<circle fill="#59B6B2" cx="99.299" cy="134.999" r="2.392"/>
<circle fill="#59B6B2" cx="101.396" cy="155.941" r="2.392"/>
<circle fill="#59B6B2" cx="106.78" cy="151.859" r="2.393"/>
<circle fill="#59B6B2" cx="111.564" cy="146.367" r="2.393"/>
<circle fill="#59B6B2" cx="122.035" cy="150.855" r="2.393"/>
<circle fill="#59B6B2" cx="128.317" cy="150.256" r="2.392"/>
<circle fill="#59B6B2" cx="116.949" cy="161.924" r="2.392"/>
<circle fill="#59B6B2" cx="123.23" cy="160.126" r="2.393"/>
<circle fill="#59B6B2" cx="133.402" cy="158.631" r="2.392"/>
<circle fill="#59B6B2" cx="138.188" cy="154.444" r="2.392"/>
<circle fill="#59B6B2" cx="143.573" cy="158.031" r="2.393"/>
<circle fill="#59B6B2" cx="138.188" cy="162.819" r="2.392"/>
<circle fill="#59B6B2" cx="148.656" cy="162.82" r="2.393"/>
<circle fill="#59B6B2" cx="148.957" cy="147.564" r="2.393"/>
<circle fill="#59B6B2" cx="142.674" cy="145.471" r="2.392"/>
<circle fill="#59B6B2" cx="171.094" cy="137.693" r="2.393"/>
<circle fill="#59B6B2" cx="144.771" cy="133.505" r="2.392"/>
<circle fill="#59B6B2" cx="146.866" cy="122.437" r="2.392"/>
<circle fill="#59B6B2" cx="157.932" cy="117.052" r="2.392"/>
<circle fill="#59B6B2" cx="173.188" cy="120.644" r="2.392"/>
<circle fill="#59B6B2" cx="167.502" cy="100.6" r="2.392"/>
<circle fill="#59B6B2" cx="163.317" cy="95.229" r="2.392"/>
<circle fill="#59B6B2" cx="157.932" cy="91.025" r="2.392"/>
<circle fill="#59B6B2" cx="157.633" cy="97.622" r="2.392"/>
<circle fill="#59B6B2" cx="161.223" cy="102.394" r="2.392"/>
<circle fill="#59B6B2" cx="158.528" cy="108.974" r="2.392"/>
<circle fill="#59B6B2" cx="154.641" cy="105.086" r="2.392"/>
<circle fill="#59B6B2" cx="138.188" cy="106.281" r="2.393"/>
<circle fill="#59B6B2" cx="145.666" cy="96.71" r="2.392"/>
<circle fill="#59B6B2" cx="160.92" cy="128.418" r="2.392"/>
<circle fill="#59B6B2" cx="115.752" cy="91.64" r="2.392"/>
<circle fill="#59B6B2" cx="109.471" cy="87.736" r="2.393"/>
<circle fill="#59B6B2" cx="100.196" cy="106.283" r="2.393"/>
<circle fill="#59B6B2" cx="121.135" cy="94.917" r="2.392"/>
<circle fill="#59B6B2" cx="128.016" cy="91.64" r="2.392"/>
<circle fill="#59B6B2" cx="122.035" cy="88.633" r="2.392"/>
<circle fill="#59B6B2" cx="123.529" cy="81.154" r="2.393"/>
<circle fill="#59B6B2" cx="118.743" cy="75.471" r="2.392"/>
<circle fill="#59B6B2" cx="114.838" cy="69.788" r="2.392"/>
<circle fill="#59B6B2" cx="121.135" cy="69.189" r="2.392"/>
<circle fill="#59B6B2" cx="104.984" cy="62.907" r="2.392"/>
<circle fill="#59B6B2" cx="108.572" cy="45.556" r="2.392"/>
<circle fill="#59B6B2" cx="103.489" cy="35.386" r="2.392"/>
<circle fill="#59B6B2" cx="111.564" cy="38.676" r="2.392"/>
<circle fill="#59B6B2" cx="123.53" cy="38.079" r="2.392"/>
<circle fill="#59B6B2" cx="135.795" cy="39.573" r="2.392"/>
<circle fill="#59B6B2" cx="154.043" cy="35.984" r="2.392"/>
<circle fill="#59B6B2" cx="160.024" cy="43.463" r="2.392"/>
<circle fill="#59B6B2" cx="165.111" cy="47.651" r="2.392"/>
<circle fill="#59B6B2" cx="137.887" cy="54.231" r="2.392"/>
<circle fill="#59B6B2" cx="158.832" cy="156.835" r="2.392"/>
<circle fill="#59B6B2" cx="166.607" cy="57.822" r="2.392"/>
<circle fill="#59B6B2" cx="114.258" cy="130.511" r="1.807"/>
<circle fill="#59B6B2" cx="101.691" cy="139.19" r="1.807"/>
<circle fill="#59B6B2" cx="105.582" cy="146.367" r="1.807"/>
<circle fill="#59B6B2" cx="112.447" cy="152.651" r="1.807"/>
<circle fill="#59B6B2" cx="116.648" cy="149.658" r="1.809"/>
<circle fill="#59B6B2" cx="123.53" cy="141.581" r="1.808"/>
<circle fill="#59B6B2" cx="125.324" cy="146.069" r="1.808"/>
<circle fill="#59B6B2" cx="128.316" cy="156.834" r="1.808"/>
<circle fill="#59B6B2" cx="121.139" cy="166.11" r="1.807"/>
<circle fill="#59B6B2" cx="135.795" cy="167.606" r="1.807"/>
<circle fill="#59B6B2" cx="143.274" cy="166.41" r="1.807"/>
<circle fill="#59B6B2" cx="156.44" cy="162.225" r="1.807"/>
<circle fill="#59B6B2" cx="132.504" cy="153.847" r="1.807"/>
<circle fill="#59B6B2" cx="134.299" cy="148.761" r="1.808"/>
<circle fill="#59B6B2" cx="144.172" cy="152.348" r="1.808"/>
<circle fill="#59B6B2" cx="139.684" cy="149.658" r="1.809"/>
<circle fill="#59B6B2" cx="136.691" cy="144.575" r="1.808"/>
<circle fill="#59B6B2" cx="141.182" cy="140.386" r="1.807"/>
<circle fill="#59B6B2" cx="155.241" cy="149.467" r="1.807"/>
<circle fill="#59B6B2" cx="149.555" cy="127.225" r="1.807"/>
<circle fill="#59B6B2" cx="155.538" cy="127.82" r="1.809"/>
<circle fill="#59B6B2" cx="165.709" cy="130.511" r="1.807"/>
<circle fill="#59B6B2" cx="167.801" cy="134.403" r="1.808"/>
<circle fill="#59B6B2" cx="160.92" cy="122.137" r="1.808"/>
<circle fill="#59B6B2" cx="143.573" cy="117.051" r="1.807"/>
<circle fill="#59B6B2" cx="142.975" cy="110.772" r="1.808"/>
<circle fill="#59B6B2" cx="137.289" cy="101.199" r="1.807"/>
<circle fill="#59B6B2" cx="141.467" cy="99.403" r="1.808"/>
<circle fill="#59B6B2" cx="151.047" cy="100.3" r="1.807"/>
<circle fill="#59B6B2" cx="166.309" cy="105.982" r="1.807"/>
<circle fill="#59B6B2" cx="171.393" cy="108.377" r="1.807"/>
<circle fill="#59B6B2" cx="121.436" cy="100.301" r="1.807"/>
<circle fill="#59B6B2" cx="116.648" cy="101.496" r="1.807"/>
<circle fill="#59B6B2" cx="99.897" cy="92.222" r="1.807"/>
<circle fill="#59B6B2" cx="109.172" cy="82.051" r="1.808"/>
<circle fill="#59B6B2" cx="126.524" cy="86.244" r="1.807"/>
<circle fill="#59B6B2" cx="130.696" cy="82.051" r="1.808"/>
<circle fill="#59B6B2" cx="147.748" cy="81.154" r="1.809"/>
<circle fill="#59B6B2" cx="134.897" cy="80.259" r="1.807"/>
<circle fill="#59B6B2" cx="124.717" cy="64.403" r="1.807"/>
<circle fill="#59B6B2" cx="121.438" cy="60.515" r="1.807"/>
<circle fill="#59B6B2" cx="101.094" cy="68.589" r="1.807"/>
<circle fill="#59B6B2" cx="100.496" cy="61.413" r="1.807"/>
<circle fill="#59B6B2" cx="105.881" cy="41.068" r="1.807"/>
<circle fill="#59B6B2" cx="109.768" cy="33.592" r="1.807"/>
<circle fill="#59B6B2" cx="118.743" cy="40.771" r="1.807"/>
<circle fill="#59B6B2" cx="121.735" cy="44.958" r="1.807"/>
<circle fill="#59B6B2" cx="139.684" cy="34.789" r="1.807"/>
<circle fill="#59B6B2" cx="140.879" cy="41.998" r="1.807"/>
<circle fill="#59B6B2" cx="142.975" cy="57.208" r="1.807"/>
<circle fill="#59B6B2" cx="147.461" cy="55.402" r="1.807"/>
<circle fill="#59B6B2" cx="155.838" cy="48.849" r="1.807"/>
<circle fill="#59B6B2" cx="154.032" cy="42.579" r="1.808"/>
<circle fill="#59B6B2" cx="167.801" cy="41.998" r="1.807"/>
<circle fill="#59B6B2" cx="168.402" cy="52.439" r="1.807"/>
<circle fill="#59B6B2" cx="125.625" cy="73.378" r="1.807"/>
</svg>
