<?xml version="1.0" encoding="utf-8"?>
<!-- Generator: Adobe Illustrator 16.0.3, SVG Export Plug-In . SVG Version: 6.00 Build 0)  -->
<svg version="1.2" baseProfile="tiny" id="Layer_1" xmlns="http://www.w3.org/2000/svg" xmlns:xlink="http://www.w3.org/1999/xlink"
	 x="0px" y="0px" width="200px" viewBox="0 0 637 638.8" xml:space="preserve">
<g>
	<path fill="#ED1D6B" d="M6.3,115c0-0.5-0.3-0.9-0.8-1c0.4,0.4,0.6,0.9,0.6,1.5C6.2,115.3,6.3,115.2,6.3,115z"/>
	<circle fill="#ED1D6B" cx="154.3" cy="35" r="1.9"/>
	<circle fill="#ED1D6B" cx="153.2" cy="109.3" r="2.6"/>
	<circle fill="#ED1D6B" cx="144.3" cy="109.9" r="2.6"/>
	<circle fill="#ED1D6B" cx="142.5" cy="23.2" r="4.3"/>
	<circle fill="#ED1D6B" cx="148.9" cy="29.9" r="2.6"/>
	<circle fill="#ED1D6B" cx="131.1" cy="128.5" r="1.9"/>
	<circle fill="#ED1D6B" cx="185" cy="81.3" r="1.9"/>
	<circle fill="#ED1D6B" cx="182.9" cy="48.2" r="4.3"/>
	<circle fill="#ED1D6B" cx="83.8" cy="14.4" r="1.9"/>
	<circle fill="#ED1D6B" cx="85.5" cy="2.8" r="1.9"/>
	<circle fill="#ED1D6B" cx="187.8" cy="58.2" r="4.3"/>
	<circle fill="#ED1D6B" cx="173.1" cy="48.4" r="2.6"/>
	<circle fill="#ED1D6B" cx="179.7" cy="39.5" r="2.6"/>
	<circle fill="#ED1D6B" cx="179.9" cy="62.3" r="2.6"/>
	<circle fill="#ED1D6B" cx="192.4" cy="66.1" r="2.6"/>
	<circle fill="#ED1D6B" cx="189.1" cy="91.1" r="4.3"/>
	<circle fill="#ED1D6B" cx="193" cy="74.9" r="4.3"/>
	<circle fill="#ED1D6B" cx="191" cy="83.1" r="2.6"/>
	<circle fill="#ED1D6B" cx="197.1" cy="92.5" r="2.6"/>
	<circle fill="#ED1D6B" cx="183.6" cy="73.4" r="2.6"/>
	<circle fill="#ED1D6B" cx="189.3" cy="99.2" r="2.6"/>
	<circle fill="#ED1D6B" cx="197.6" cy="99.9" r="2.6"/>
	<circle fill="#ED1D6B" cx="146.9" cy="117.3" r="4.3"/>
	<circle fill="#ED1D6B" cx="155.6" cy="124.7" r="4.3"/>
	<circle fill="#ED1D6B" cx="163.1" cy="114.6" r="4.3"/>
	<circle fill="#ED1D6B" cx="187.4" cy="123.1" r="4.3"/>
	<circle fill="#ED1D6B" cx="195.8" cy="108.3" r="4.3"/>
	<circle fill="#ED1D6B" cx="162.3" cy="135.6" r="4.3"/>
	<circle fill="#ED1D6B" cx="145.5" cy="136.2" r="4.3"/>
	<circle fill="#ED1D6B" cx="189.8" cy="114.8" r="2.6"/>
	<circle fill="#ED1D6B" cx="15.3" cy="77" r="2.6"/>
	<circle fill="#ED1D6B" cx="13" cy="91.1" r="2.6"/>
	<circle fill="#ED1D6B" cx="188" cy="107" r="2.6"/>
	<circle fill="#ED1D6B" cx="184.8" cy="131.7" r="2.6"/>
	<circle fill="#ED1D6B" cx="193.5" cy="130.8" r="2.6"/>
	<circle fill="#ED1D6B" cx="167.7" cy="128.6" r="2.6"/>
	<circle fill="#ED1D6B" cx="155" cy="116.6" r="2.6"/>
	<circle fill="#ED1D6B" cx="146.3" cy="127.6" r="2.6"/>
	<circle fill="#ED1D6B" cx="154.3" cy="140.7" r="2.6"/>
	<circle fill="#ED1D6B" cx="143.2" cy="151" r="4.3"/>
	<circle fill="#ED1D6B" cx="158.8" cy="157.1" r="4.3"/>
	<circle fill="#ED1D6B" cx="162.3" cy="146.8" r="4.3"/>
	<circle fill="#ED1D6B" cx="169.5" cy="155.1" r="4.3"/>
	<circle fill="#ED1D6B" cx="178.1" cy="145.8" r="4.3"/>
	<circle fill="#ED1D6B" cx="189.1" cy="139.4" r="4.3"/>
	<circle fill="#ED1D6B" cx="177.2" cy="162.7" r="4.3"/>
	<circle fill="#ED1D6B" cx="159.4" cy="168.3" r="4.3"/>
	<circle fill="#ED1D6B" cx="142.8" cy="170.9" r="4.3"/>
	<circle fill="#ED1D6B" cx="187.4" cy="148.2" r="2.6"/>
	<circle fill="#ED1D6B" cx="180.5" cy="137.2" r="2.6"/>
	<circle fill="#ED1D6B" cx="173" cy="134.2" r="2.6"/>
	<circle fill="#ED1D6B" cx="170.3" cy="143.2" r="2.6"/>
	<circle fill="#ED1D6B" cx="177.9" cy="154.5" r="2.6"/>
	<circle fill="#ED1D6B" cx="165.8" cy="163.1" r="2.6"/>
	<circle fill="#ED1D6B" cx="153" cy="149.5" r="2.6"/>
	<circle fill="#ED1D6B" cx="151.4" cy="173.1" r="2.6"/>
	<circle fill="#ED1D6B" cx="172.9" cy="169.9" r="2.6"/>
	<circle fill="#ED1D6B" cx="76.8" cy="161.6" r="4.3"/>
	<circle fill="#ED1D6B" cx="121.8" cy="167" r="4.3"/>
	<circle fill="#ED1D6B" cx="126.2" cy="150.8" r="4.3"/>
	<circle fill="#ED1D6B" cx="138.4" cy="142.8" r="4.3"/>
	<circle fill="#ED1D6B" cx="80.2" cy="176.7" r="4.3"/>
	<circle fill="#ED1D6B" cx="139.8" cy="160.8" r="4.3"/>
	<circle fill="#ED1D6B" cx="125.7" cy="159.2" r="2.6"/>
	<circle fill="#ED1D6B" cx="131" cy="166.1" r="2.6"/>
	<circle fill="#ED1D6B" cx="149.4" cy="159.1" r="2.6"/>
	<circle fill="#ED1D6B" cx="134.4" cy="151.7" r="2.6"/>
	<circle fill="#ED1D6B" cx="118.6" cy="175.7" r="2.6"/>
	<circle fill="#ED1D6B" cx="126.9" cy="174.3" r="2.6"/>
	<circle fill="#ED1D6B" cx="75.3" cy="170.2" r="2.6"/>
	<circle fill="#ED1D6B" cx="82.7" cy="185.2" r="2.6"/>
	<circle fill="#ED1D6B" cx="75.3" cy="185.4" r="2.6"/>
	<circle fill="#ED1D6B" cx="78.9" cy="193.1" r="4.3"/>
	<circle fill="#ED1D6B" cx="125.3" cy="183.4" r="4.3"/>
	<circle fill="#ED1D6B" cx="133.7" cy="189.2" r="4.3"/>
	<circle fill="#ED1D6B" cx="137.6" cy="197.7" r="2.6"/>
	<circle fill="#ED1D6B" cx="125.6" cy="191.8" r="2.6"/>
	<circle fill="#ED1D6B" cx="133.7" cy="179.1" r="2.6"/>
	<circle fill="#ED1D6B" cx="117.4" cy="183.8" r="2.6"/>
	<circle fill="#ED1D6B" cx="118.4" cy="192.2" r="2.6"/>
	<circle fill="#ED1D6B" cx="130" cy="198.2" r="2.6"/>
	<circle fill="#ED1D6B" cx="131.9" cy="18.8" r="4.3"/>
	<circle fill="#ED1D6B" cx="140.2" cy="15.6" r="2.6"/>
	<circle fill="#ED1D6B" cx="123.3" cy="17.3" r="2.6"/>
	<circle fill="#ED1D6B" cx="114.8" cy="16.6" r="2.6"/>
	<circle fill="#ED1D6B" cx="28.5" cy="42.6" r="4.3"/>
	<circle fill="#ED1D6B" cx="35.7" cy="35.3" r="4.3"/>
	<circle fill="#ED1D6B" cx="19.2" cy="57.7" r="4.3"/>
	<circle fill="#ED1D6B" cx="51.1" cy="26.9" r="2.6"/>
	<circle fill="#ED1D6B" cx="43.5" cy="35.4" r="2.6"/>
	<circle fill="#ED1D6B" cx="23.5" cy="35.4" r="2.6"/>
	<circle fill="#ED1D6B" cx="22.4" cy="49.6" r="2.6"/>
	<circle fill="#ED1D6B" cx="14.8" cy="49.2" r="2.6"/>
	<circle fill="#ED1D6B" cx="8.8" cy="62.8" r="2.6"/>
	<circle fill="#ED1D6B" cx="16.2" cy="68" r="4.3"/>
	<circle fill="#ED1D6B" cx="10.2" cy="106.9" r="4.3"/>
	<circle fill="#ED1D6B" cx="50.2" cy="110.7" r="4.3"/>
	<circle fill="#ED1D6B" cx="41.6" cy="118.3" r="4.3"/>
	<circle fill="#ED1D6B" cx="6.5" cy="123.5" r="4.3"/>
	<circle fill="#ED1D6B" cx="62.8" cy="119.5" r="4.3"/>
	<circle fill="#ED1D6B" cx="59.2" cy="111.6" r="2.6"/>
	<circle fill="#ED1D6B" cx="41.5" cy="110.2" r="2.6"/>
	<circle fill="#ED1D6B" cx="32.7" cy="117.2" r="2.6"/>
	<circle fill="#ED1D6B" cx="12" cy="98.9" r="2.6"/>
	<circle fill="#ED1D6B" cx="11.2" cy="115" r="2.6"/>
	<path fill="#ED1D6B" d="M3.6,113.1c-1.4,0-2.6,1.1-2.6,2.6c0,1.4,1.1,2.6,2.6,2.6s2.6-1.1,2.6-2.6c0-0.1,0-0.1,0-0.2
		c0-0.6-0.3-1.1-0.6-1.5C5,113.4,4.3,113.1,3.6,113.1z"/>
	<circle fill="#ED1D6B" cx="9.2" cy="133.3" r="4.3"/>
	<circle fill="#ED1D6B" cx="14.9" cy="148.5" r="4.3"/>
	<circle fill="#ED1D6B" cx="18.4" cy="137.6" r="4.3"/>
	<circle fill="#ED1D6B" cx="29.3" cy="146.4" r="4.3"/>
	<circle fill="#ED1D6B" cx="34.2" cy="131.2" r="4.3"/>
	<circle fill="#ED1D6B" cx="19.6" cy="157.9" r="4.3"/>
	<circle fill="#ED1D6B" cx="42.3" cy="153.7" r="4.3"/>
	<circle fill="#ED1D6B" cx="42.1" cy="140.1" r="4.3"/>
	<circle fill="#ED1D6B" cx="26.2" cy="134.8" r="2.6"/>
	<circle fill="#ED1D6B" cx="37.4" cy="146.9" r="2.6"/>
	<circle fill="#ED1D6B" cx="41.5" cy="127.6" r="2.6"/>
	<circle fill="#ED1D6B" cx="29.3" cy="123.8" r="2.6"/>
	<circle fill="#ED1D6B" cx="16.5" cy="128.8" r="2.6"/>
	<circle fill="#ED1D6B" cx="10.2" cy="141.8" r="2.6"/>
	<circle fill="#ED1D6B" cx="33.6" cy="154.7" r="2.6"/>
	<circle fill="#ED1D6B" cx="29.3" cy="169.3" r="4.3"/>
	<circle fill="#ED1D6B" cx="36.7" cy="176.1" r="4.3"/>
	<circle fill="#ED1D6B" cx="45.8" cy="166.8" r="4.3"/>
	<circle fill="#ED1D6B" cx="53.9" cy="177.2" r="4.3"/>
	<circle fill="#ED1D6B" cx="58.5" cy="160.8" r="4.3"/>
	<circle fill="#ED1D6B" cx="41.2" cy="185" r="4.3"/>
	<circle fill="#ED1D6B" cx="67.1" cy="184.3" r="4.3"/>
	<circle fill="#ED1D6B" cx="66.2" cy="169.2" r="4.3"/>
	<circle fill="#ED1D6B" cx="63.9" cy="177.3" r="2.6"/>
	<circle fill="#ED1D6B" cx="68.8" cy="159.1" r="2.6"/>
	<circle fill="#ED1D6B" cx="50" cy="160" r="2.6"/>
	<circle fill="#ED1D6B" cx="39.8" cy="161.3" r="2.6"/>
	<circle fill="#ED1D6B" cx="37.2" cy="167.7" r="2.6"/>
	<circle fill="#ED1D6B" cx="44.8" cy="174.7" r="2.6"/>
	<circle fill="#ED1D6B" cx="58.1" cy="184.6" r="2.6"/>
	<circle fill="#ED1D6B" cx="50.2" cy="125.5" r="4.3"/>
	<circle fill="#ED1D6B" cx="4.6" cy="93.2" r="4.3"/>
	<circle fill="#ED1D6B" cx="50" cy="153.5" r="2.6"/>
	<circle fill="#ED1D6B" cx="156.8" cy="27.3" r="4.3"/>
	<circle fill="#ED1D6B" cx="162.3" cy="36.2" r="4.3"/>
	<circle fill="#ED1D6B" cx="152.3" cy="16.6" r="4.3"/>
	<circle fill="#ED1D6B" cx="128" cy="7.3" r="4.3"/>
	<circle fill="#ED1D6B" cx="110.9" cy="9.4" r="4.3"/>
	<circle fill="#ED1D6B" cx="98.4" cy="4.3" r="4.3"/>
	<circle fill="#ED1D6B" cx="92.9" cy="14.1" r="4.3"/>
	<circle fill="#ED1D6B" cx="79.6" cy="6.7" r="4.3"/>
	<circle fill="#ED1D6B" cx="75.2" cy="16.6" r="4.3"/>
	<circle fill="#ED1D6B" cx="69" cy="8.1" r="4.3"/>
	<circle fill="#ED1D6B" cx="55.1" cy="19.2" r="4.3"/>
	<circle fill="#ED1D6B" cx="43.6" cy="19.2" r="4.3"/>
	<circle fill="#ED1D6B" cx="7.5" cy="73.7" r="4.3"/>
	<circle fill="#ED1D6B" cx="8" cy="83.8" r="4.3"/>
	<circle fill="#ED1D6B" cx="2.6" cy="100.7" r="2.6"/>
	<circle fill="#ED1D6B" cx="34.6" cy="24" r="2.6"/>
	<circle fill="#ED1D6B" cx="66.6" cy="20.2" r="2.6"/>
	<circle fill="#ED1D6B" cx="63.3" cy="14.4" r="2.6"/>
	<circle fill="#ED1D6B" cx="90.3" cy="6.4" r="2.6"/>
	<circle fill="#ED1D6B" cx="101.8" cy="12.3" r="2.6"/>
	<circle fill="#ED1D6B" cx="107.2" cy="2.9" r="2.6"/>
	<circle fill="#ED1D6B" cx="118.4" cy="3.8" r="2.6"/>
	<circle fill="#ED1D6B" cx="120.4" cy="10.6" r="2.6"/>
	<circle fill="#ED1D6B" cx="137.6" cy="8.3" r="2.6"/>
	<circle fill="#ED1D6B" cx="160.7" cy="20.2" r="2.6"/>
	<circle fill="#ED1D6B" cx="167.4" cy="25.4" r="2.6"/>
	<circle fill="#ED1D6B" cx="169.6" cy="41.7" r="2.6"/>
	<circle fill="#ED1D6B" cx="155.5" cy="181.1" r="4.3"/>
	<circle fill="#ED1D6B" cx="143.4" cy="182.2" r="4.3"/>
	<circle fill="#ED1D6B" cx="163.9" cy="179.7" r="2.6"/>
	<circle fill="#ED1D6B" cx="142.5" cy="191.4" r="2.6"/>
	<circle fill="#ED1D6B" cx="150.3" cy="188.8" r="2.6"/>
	<circle fill="#ED1D6B" cx="66.1" cy="196.5" r="4.3"/>
	<circle fill="#ED1D6B" cx="55.4" cy="193.7" r="4.3"/>
	<circle fill="#ED1D6B" cx="50" cy="185.9" r="2.6"/>
	<circle fill="#ED1D6B" cx="58.7" cy="8.9" r="1.9"/>
	<circle fill="#ED1D6B" cx="44.3" cy="28.5" r="1.9"/>
	<circle fill="#ED1D6B" cx="15" cy="83.2" r="1.9"/>
	<circle fill="#ED1D6B" cx="23.2" cy="129" r="1.9"/>
	<circle fill="#ED1D6B" cx="58.6" cy="25.3" r="1.9"/>
	<circle fill="#ED1D6B" cx="28.2" cy="29.1" r="1.9"/>
	<circle fill="#ED1D6B" cx="18.3" cy="41.7" r="1.9"/>
	<circle fill="#ED1D6B" cx="2.6" cy="108.8" r="1.9"/>
	<circle fill="#ED1D6B" cx="14.9" cy="121.3" r="1.9"/>
	<circle fill="#ED1D6B" cx="45.8" cy="132.6" r="1.9"/>
	<circle fill="#ED1D6B" cx="33.6" cy="139.4" r="1.9"/>
	<circle fill="#ED1D6B" cx="21.5" cy="144.4" r="1.9"/>
	<circle fill="#ED1D6B" cx="32.7" cy="161.7" r="1.9"/>
	<circle fill="#ED1D6B" cx="26.8" cy="160.8" r="1.9"/>
	<circle fill="#ED1D6B" cx="45.8" cy="191.1" r="1.9"/>
	<circle fill="#ED1D6B" cx="71.3" cy="177.6" r="1.9"/>
	<circle fill="#ED1D6B" cx="73.8" cy="198.9" r="1.9"/>
	<circle fill="#ED1D6B" cx="131.9" cy="158.9" r="1.9"/>
	<circle fill="#ED1D6B" cx="150.5" cy="165.8" r="1.9"/>
	<circle fill="#ED1D6B" cx="134.4" cy="171.8" r="1.9"/>
	<circle fill="#ED1D6B" cx="147.7" cy="194.8" r="1.9"/>
	<circle fill="#ED1D6B" cx="123.1" cy="198" r="1.9"/>
	<circle fill="#ED1D6B" cx="166" cy="172.8" r="1.9"/>
	<circle fill="#ED1D6B" cx="147.9" cy="144.3" r="1.9"/>
	<circle fill="#ED1D6B" cx="153.2" cy="132.6" r="1.9"/>
	<circle fill="#ED1D6B" cx="170.3" cy="121.5" r="1.9"/>
	<circle fill="#ED1D6B" cx="163.7" cy="122.4" r="1.9"/>
	<circle fill="#ED1D6B" cx="196.1" cy="116.4" r="1.9"/>
	<circle fill="#ED1D6B" cx="197.1" cy="84.9" r="1.9"/>
	<circle fill="#ED1D6B" cx="51.8" cy="11.9" r="1.9"/>
	<circle fill="#ED1D6B" cx="184.3" cy="156.1" r="1.9"/>
	<circle fill="#ED1D6B" cx="195.7" cy="123.5" r="1.9"/>
	<circle fill="#ED1D6B" cx="130.2" cy="144.5" r="1.9"/>
	<circle fill="#ED1D6B" cx="185.8" cy="67.2" r="1.9"/>
	<circle fill="#ED1D6B" cx="54.3" cy="117.9" r="1.9"/>
	<circle fill="#ED1D6B" cx="58.1" cy="124.7" r="1.9"/>
	<circle fill="#ED1D6B" cx="55.6" cy="168.7" r="1.9"/>
	<circle fill="#ED1D6B" cx="25.1" cy="152.6" r="1.9"/>
	<circle fill="#ED1D6B" cx="10.8" cy="55.8" r="1.9"/>
	<circle fill="#ED1D6B" cx="66.7" cy="129.6" r="4.3"/>
	<circle fill="#ED1D6B" cx="72.9" cy="148.3" r="4.3"/>
	<circle fill="#ED1D6B" cx="52.1" cy="138.5" r="4.3"/>
	<circle fill="#ED1D6B" cx="57.6" cy="150.5" r="4.3"/>
	<circle fill="#ED1D6B" cx="136.2" cy="121.8" r="4.3"/>
	<circle fill="#ED1D6B" cx="130.8" cy="136.6" r="4.3"/>
	<circle fill="#ED1D6B" cx="70.1" cy="139.2" r="2.6"/>
	<circle fill="#ED1D6B" cx="56.4" cy="131.7" r="2.6"/>
	<circle fill="#ED1D6B" cx="61.8" cy="136.9" r="2.6"/>
	<circle fill="#ED1D6B" cx="64.8" cy="144.4" r="2.6"/>
	<circle fill="#ED1D6B" cx="65.7" cy="153" r="2.6"/>
	<circle fill="#ED1D6B" cx="137.8" cy="131.4" r="2.6"/>
	<circle fill="#ED1D6B" cx="138.4" cy="113.1" r="1.9"/>
	<circle fill="#ED1D6B" cx="58.5" cy="142.2" r="1.9"/>
	<circle fill="#ED1D6B" cx="50.2" cy="146.8" r="1.9"/>
	<circle fill="#ED1D6B" cx="157.1" cy="189.3" r="1.9"/>
	<circle fill="#ED1D6B" cx="145.8" cy="10.7" r="1.9"/>
	<circle fill="#ED1D6B" cx="172.8" cy="33.4" r="4.3"/>
	<circle fill="#ED1D6B" cx="177.1" cy="55.9" r="2.6"/>
</g>
</svg>
