<?xml version="1.0" standalone="no"?>
<!DOCTYPE svg PUBLIC "-//W3C//DTD SVG 1.1//EN" "http://www.w3.org/Graphics/SVG/1.1/DTD/svg11.dtd" >
<svg xmlns="http://www.w3.org/2000/svg">
<metadata>
This is a custom SVG webfont generated by Font Squirrel.
Copyright   : Copyright c The Foundry 2001 All rights reserved
Designer    : The Foundry
Foundry URL : wwwfoundrytypescouk
</metadata>
<defs>
<font id="webfontsYNdA8dC" horiz-adv-x="1280" >
<font-face units-per-em="2048" ascent="1638" descent="-410" />
<missing-glyph horiz-adv-x="585" />
<glyph unicode=" "  horiz-adv-x="585" />
<glyph unicode="&#x09;" horiz-adv-x="585" />
<glyph unicode="&#xa0;" horiz-adv-x="585" />
<glyph unicode="!" horiz-adv-x="759" d="M678 1366l-205 -926h-274l116 926h363zM98 139q0 94 61.5 155.5t155.5 61.5q72 0 119 -45t47 -110q0 -94 -60.5 -156.5t-150.5 -62.5q-72 0 -122 42.5t-50 114.5z" />
<glyph unicode="&#x22;" horiz-adv-x="849" d="M803 897h-268l90 502h268zM387 897h-268l90 502h268z" />
<glyph unicode="#" horiz-adv-x="1103" d="M1108 1094l-45 -140h-189l-73 -231h186l-45 -141h-186l-105 -338h-166l107 338h-186l-101 -338h-170l105 338h-189l45 141h191l71 231h-186l45 140h186l99 307h164l-99 -307h187l94 307h170l-98 -307h188zM711 954h-189l-73 -231h190z" />
<glyph unicode="$" d="M578 190l-54 -194h-157l49 190h-39q-154 0 -301 31l104 258q129 -27 285 -26q272 0 272 110q0 51 -125 100q-184 72 -233 107q-125 84 -125 219q0 201 152 313q135 100 362 109l51 182h160l-51 -182q61 -2 112 -10q78 -12 121 -25l-96 -244q-113 23 -213 23 q-236 0 -236 -94q0 -43 125 -88q172 -63 232 -105q125 -86 125 -225q0 -203 -162 -326q-141 -109 -358 -123z" />
<glyph unicode="%" horiz-adv-x="1636" d="M1479 1309l-1217 -1336l-108 93l1210 1335zM96 967q0 195 116 317.5t300 122.5q127 0 212 -81t85 -216q0 -182 -109 -305q-113 -131 -301 -131q-129 0 -213 76q-90 80 -90 217zM575 1094q0 137 -96 137q-70 0 -112 -84q-37 -70 -37 -152q0 -137 94 -139q74 0 117 84 q34 70 34 154zM831 270q0 195 116 318t300 123q127 0 212 -81t85 -216q0 -182 -108 -305q-113 -131 -301 -132q-129 0 -213 76q-91 80 -91 217zM1313 397q0 137 -96 138q-72 0 -115 -84q-37 -70 -37 -152q0 -137 96 -139q72 0 115 84q37 69 37 153z" />
<glyph unicode="&#x26;" horiz-adv-x="1554" d="M1462 213l-184 -240q-119 51 -305 170q-240 -164 -502 -163q-182 0 -311 75q-152 92 -152 264q0 326 400 484q-43 98 -43 168q0 197 135 313.5t352 116.5q127 0 217 -58q104 -70 105 -190q0 -272 -381 -438q63 -96 202 -213q55 61 95 147h286q-68 -168 -176 -293z M866 1098q0 70 -71 69q-53 0 -91 -43t-38 -96q0 -63 28 -106q172 72 172 176zM770 305q-168 129 -250 273q-162 -72 -162 -197q0 -63 50.5 -102t136.5 -39q123 -1 225 65z" />
<glyph unicode="'" horiz-adv-x="432" d="M387 897h-268l90 502h268z" />
<glyph unicode="(" horiz-adv-x="782" d="M541 -205l-234 -141q-111 135 -173 324.5t-62 381.5q0 543 536 1051l197 -156q-387 -461 -387 -933q0 -279 123 -527z" />
<glyph unicode=")" horiz-adv-x="782" d="M197 1270l231 141q111 -135 174.5 -324.5t63.5 -381.5q0 -543 -537 -1051l-199 156q389 461 389 935q1 277 -122 525z" />
<glyph unicode="*" horiz-adv-x="909" d="M918 1198l-50 -201l-229 31l115 -201l-195 -88l-51 217l-141 -233l-154 119l176 186l-252 -31l51 201l226 -27l-115 199l195 96l55 -219l137 232l162 -121l-176 -187z" />
<glyph unicode="+" d="M1051 432h-402v-383h-219v383h-403v219h403v381h219v-381h402v-219z" />
<glyph unicode="," horiz-adv-x="663" d="M440 313l-213 -549h-204l96 549h321z" />
<glyph unicode="-" horiz-adv-x="657" d="M563 424h-561l45 254h561z" />
<glyph unicode="." horiz-adv-x="745" d="M90 139q0 94 60.5 155.5t156.5 61.5q72 0 119 -45t47 -110q0 -94 -60.5 -156.5t-150.5 -62.5q-72 0 -122 42.5t-50 114.5z" />
<glyph unicode="/" d="M1024 1403l-965 -1499l-131 65l965 1501z" />
<glyph unicode="0" horiz-adv-x="1277" d="M846 877q0 254 -133 253q-141 0 -221 -258q-61 -195 -62 -391q0 -236 131 -235q141 0 221 248q64 190 64 383zM68 483q0 356 147 609q182 311 535 311q219 0 344 -148q119 -139 118 -360q0 -356 -149 -612q-184 -313 -528 -314q-217 0 -347 152q-120 141 -120 362z" />
<glyph unicode="1" horiz-adv-x="1282" d="M793 0h-342l186 1055l-340 -154l-78 219l549 285l256 -92z" />
<glyph unicode="2" d="M1020 0h-973l-27 236q330 231 455 335q326 270 326 414q0 135 -183 135q-150 0 -337 -73l-50 249q256 111 502 111q174 0 295 -76q143 -90 143 -258q0 -223 -229 -459q-100 -102 -412 -335h539z" />
<glyph unicode="3" horiz-adv-x="1277" d="M51 -16l43 252q618 23 617 253q0 88 -111 117q-66 16 -211 17h-47h-37l41 231q141 4 256 39q178 53 178 154q0 80 -141 81q-125 2 -320 -61l-38 238q266 98 501 96q139 0 234 -64q111 -72 110 -202q0 -135 -94 -238q-84 -94 -217 -133q268 -55 268 -256 q0 -524 -1032 -524z" />
<glyph unicode="4" d="M1159 242h-190l-43 -242h-322l43 242h-602l-22 227l856 946l280 -90l-145 -827h190zM692 498l80 446l-438 -446h358z" />
<glyph unicode="5" d="M37 -27l33 252q252 20 381 60q252 74 251 237q0 174 -350 174h-41h-16l-23 201l174 471h750l-47 -264h-494l-63 -172q483 -45 483 -359q0 -586 -1038 -600z" />
<glyph unicode="6" d="M799 451q0 63 -40 101t-110 38q-121 0 -221 -96q-2 -23 -2 -43q0 -96 47 -149.5t129 -53.5t139.5 59.5t57.5 143.5zM88 444q0 426 367 699q338 250 786 250l-18 -246q-233 -16 -435 -115q-229 -115 -327 -299q162 135 338 131q152 -4 245 -100t95 -234 q2 -252 -154 -406.5t-412 -154.5q-205 0 -345 135t-140 340z" />
<glyph unicode="7" d="M1221 1139l-854 -1194l-293 131l757 1028h-638l47 266h989z" />
<glyph unicode="8" d="M795 381q0 86 -170 174q-227 -119 -228 -217q0 -109 170 -111q86 -2 150 35q78 43 78 119zM905 1083q0 80 -143 80q-76 0 -127 -30q-63 -37 -64 -105q0 -74 134 -143q200 96 200 198zM53 295q0 244 344 432q-152 109 -151 258q0 207 170 318q147 98 381 98q160 0 278 -62 q145 -76 146 -217q0 -205 -267 -393q211 -123 211 -289q0 -219 -192 -350q-178 -121 -445 -121q-182 0 -311 70q-164 86 -164 256z" />
<glyph unicode="9" d="M836 883q4 23 4 45q0 92 -47.5 144t-128.5 52q-82 0 -140.5 -60t-58.5 -142q0 -66 41 -103t108 -37q113 1 222 101zM23 -23l20 246q575 68 760 414q-135 -129 -330 -129q-156 0 -254 113q-92 106 -92 266q0 223 161 368.5t427 145.5q219 0 341 -130t122 -345 q0 -422 -377 -697q-338 -248 -778 -252z" />
<glyph unicode=":" horiz-adv-x="745" d="M90 139q0 94 60.5 155.5t156.5 61.5q72 0 119 -45t47 -110q0 -94 -60.5 -156.5t-150.5 -62.5q-72 0 -122 42.5t-50 114.5zM205 784q0 94 60.5 155.5t154.5 61.5q72 0 119 -45t47 -112q0 -92 -59.5 -154.5t-151.5 -62.5q-72 0 -121 42.5t-49 114.5z" />
<glyph unicode=";" horiz-adv-x="745" d="M473 313l-211 -549h-205l97 549h319zM205 784q0 94 60.5 155.5t154.5 61.5q72 0 119 -45t47 -112q0 -92 -59.5 -154.5t-151.5 -62.5q-72 0 -121 42.5t-49 114.5z" />
<glyph unicode="&#x3c;" d="M1067 141l-856 580v14l856 543v-104l-592 -381l592 -385v-267z" />
<glyph unicode="=" d="M1153 627h-1024v211h1024v-211zM1153 264h-1024v211h1024v-211z" />
<glyph unicode="&#x3e;" d="M1067 684l-856 -543v105l592 383l-592 385v264l856 -580v-14z" />
<glyph unicode="?" horiz-adv-x="1089" d="M207 139q0 94 60.5 155.5t156.5 61.5q70 0 117 -45t47 -110q0 -94 -59.5 -156.5t-149.5 -62.5q-74 0 -123 42.5t-49 114.5zM588 590l-27 -148h-262l23 316q139 33 243 90q158 86 158 188q0 92 -133 92q-129 0 -336 -71l-66 229q272 117 512 117q154 0 254 -70 q113 -80 119 -225q6 -193 -151 -338q-129 -121 -334 -180z" />
<glyph unicode="@" horiz-adv-x="1730" d="M1040 825q-12 84 -102 84q-76 0 -145 -127q-61 -113 -62 -192q0 -66 55 -66q57 0 183 111zM913 350q-12 0 -45 2l31 86q-102 -96 -223 -88q-78 4 -131 58.5t-53 144.5q0 174 118 340q133 184 308 182q57 0 108 -29.5t70 -72.5l28 78h224l-195 -537q156 37 253 144.5 t97 261.5t-123 243.5t-327 89.5q-317 0 -545 -202q-229 -209 -229 -514q0 -199 161 -312q143 -102 351 -102q256 0 573 194l78 -120q-193 -123 -324 -170q-160 -57 -364 -58q-293 0 -480.5 155t-187.5 406q0 379 297 631q287 242 690 242q258 0 425 -127t167 -330 q0 -303 -242 -465q-207 -141 -510 -131z" />
<glyph unicode="A" horiz-adv-x="1533" d="M1407 0h-397l-68 334h-536l-183 -334h-338l809 1366h377zM891 578l-96 462l-252 -462h348z" />
<glyph unicode="B" horiz-adv-x="1314" d="M592 0h-576l242 1366h500q223 0 329 -51q154 -76 154 -228q0 -176 -123 -272q-90 -74 -233 -94q307 -49 307 -283q0 -266 -248 -379q-131 -59 -352 -59zM799 1108q-43 12 -135 12h-101l-51 -291h88q135 0 186 29q88 48 89 149q0 76 -76 101zM821 471q0 70 -59 102 q-49 27 -195 27h-96l-61 -344h75q121 0 179 12q157 33 157 203z" />
<glyph unicode="C" horiz-adv-x="1386" d="M770 258q127 0 385 111l105 -236q-276 -166 -566 -166q-276 0 -456.5 159t-180.5 415q0 383 275 624q268 236 676 236q246 0 422 -111l-127 -239q-168 72 -316 71q-225 0 -389 -155.5t-164 -384.5q0 -324 336 -324z" />
<glyph unicode="D" horiz-adv-x="1544" d="M1108 801q0 201 -135 262q-84 39 -309 39h-97l-147 -832h67q279 0 439 123q180 138 182 408zM805 25q-143 -25 -410 -25h-379l242 1366h414q250 0 366 -20q449 -84 449 -503q0 -317 -190 -541q-187 -222 -492 -277z" />
<glyph unicode="E" horiz-adv-x="1224" d="M1001 0h-985l242 1366h948l-47 -262h-590l-49 -277h557l-43 -254h-557l-53 -297h627z" />
<glyph unicode="F" horiz-adv-x="1126" d="M1141 1108h-572l-53 -293h541l-43 -254h-541l-100 -561h-357l242 1366h928z" />
<glyph unicode="G" horiz-adv-x="1419" d="M938 268l68 391h344l-103 -587q-229 -104 -532 -105q-295 0 -476.5 158t-181.5 416q0 385 272.5 622.5t690.5 237.5q158 0 309 -51q86 -29 135 -60l-127 -239q-168 72 -338 71q-236 0 -400.5 -154.5t-164.5 -385.5q0 -330 357 -330q79 0 147 16z" />
<glyph unicode="H" horiz-adv-x="1523" d="M1266 0h-355l105 592h-539l-104 -592h-357l242 1366h356l-92 -518h539l92 518h354z" />
<glyph unicode="I" horiz-adv-x="636" d="M379 0h-363l242 1366h363z" />
<glyph unicode="J" horiz-adv-x="778" d="M604 440q-16 -98 -45 -161q-74 -172 -289 -248q-119 -43 -333 -62l-11 264q162 27 219 64q90 55 113 192l156 877h354z" />
<glyph unicode="K" horiz-adv-x="1411" d="M1264 0h-416l-350 682l-121 -682h-361l242 1366h360l-102 -573l543 573h422l-641 -627z" />
<glyph unicode="L" horiz-adv-x="1116" d="M969 0h-953l242 1366h360l-192 -1090h592z" />
<glyph unicode="M" horiz-adv-x="1748" d="M1599 0h-327l47 831l-426 -831h-287l-147 831l-215 -831h-338l418 1366h370l154 -866l436 866h363z" />
<glyph unicode="N" horiz-adv-x="1499" d="M1241 0h-342l-412 797q-8 -35 -141 -797h-330l242 1366l330 -2l422 -815q4 27 143 817h330z" />
<glyph unicode="O" horiz-adv-x="1599" d="M61 557q0 367 245 605.5t614 238.5q279 0 444 -150q176 -160 176 -440q0 -346 -229 -588q-242 -254 -623 -254q-268 0 -444 158q-183 164 -183 430zM1155 776q0 145 -80 234.5t-211 89.5q-188 0 -309 -160q-109 -147 -109 -340q0 -147 76 -234t205 -87q190 0 313 157 q115 145 115 340z" />
<glyph unicode="P" horiz-adv-x="1265" d="M680 1118h-111l-55 -323h102q254 0 254 201q0 122 -190 122zM635 557h-164l-98 -557h-357l242 1366h492q131 0 215 -16q129 -25 200.5 -109t71.5 -213q0 -258 -188 -375q-154 -96 -414 -96z" />
<glyph unicode="Q" horiz-adv-x="1599" d="M805 6h-17q-14 2 -22 2q190 -66 430 -65q57 0 141 8l-16 -264q-100 -13 -194 -13h-27q-408 8 -701 230q-328 244 -327 637q0 367 213 606q231 258 633 258q274 0 442 -145q180 -156 180 -424q0 -342 -192 -576q-207 -248 -543 -254zM1155 782q0 154 -71.5 237t-200.5 83 q-215 0 -330 -170q-98 -145 -98 -359q0 -154 76.5 -236.5t207.5 -82.5q199 0 316 172q100 149 100 356z" />
<glyph unicode="R" horiz-adv-x="1316" d="M866 997q0 57 -41 89t-153 32h-101l-57 -325h86q109 0 180 47q86 55 86 157zM1192 0h-381l-133 426q-20 66 -52 87.5t-102 21.5h-57l-94 -535h-357l242 1366h496q127 0 202 -10q127 -14 209 -105q76 -86 76 -200q0 -154 -117 -269q-109 -106 -264 -133q78 -18 113 -57 q31 -31 57 -111z" />
<glyph unicode="S" horiz-adv-x="1175" d="M350 -25q-233 0 -395 54l100 272q152 -33 297 -33q332 0 332 154q0 39 -31.5 64.5t-122.5 58.5q-195 68 -264 127q-117 98 -117 240q0 246 207 374q181 111 473 111h11q178 0 323 -47l-88 -252q-125 29 -233 28q-336 0 -336 -133q0 -72 182 -135q211 -74 279 -133 q107 -92 106 -228q0 -254 -242 -399q-205 -123 -481 -123z" />
<glyph unicode="T" horiz-adv-x="1206" d="M1268 1106h-408l-194 -1106h-357l195 1106h-416l47 260h1180z" />
<glyph unicode="U" horiz-adv-x="1507" d="M1372 643q-33 -184 -74 -283q-55 -137 -168 -231q-184 -156 -518 -156q-524 0 -524 414v12q2 68 25 197l135 770h354l-139 -793q-16 -88 -17 -131q0 -88 70 -137q61 -41 156 -41q195 2 282 119q55 72 86 250l129 733h330z" />
<glyph unicode="V" horiz-adv-x="1447" d="M1561 1366l-775 -1366h-374l-285 1366h352l178 -1018l535 1018h369z" />
<glyph unicode="W" horiz-adv-x="2056" d="M2169 1366l-621 -1366h-358l-129 856l-440 -856h-345l-149 1366h371l80 -907l458 907h295l148 -907l379 907h311z" />
<glyph unicode="X" horiz-adv-x="1378" d="M1249 0h-407l-166 485l-375 -485h-416l600 715l-315 651h405l146 -426l319 426h396l-535 -641z" />
<glyph unicode="Y" horiz-adv-x="1355" d="M1468 1366l-628 -776l-105 -590h-354l104 590l-358 776h451l165 -498l359 498h366z" />
<glyph unicode="Z" horiz-adv-x="1234" d="M1059 0h-1125l48 262l802 846h-643l45 258h1086l-41 -229l-801 -854h680z" />
<glyph unicode="[" horiz-adv-x="841" d="M569 -317h-614l297 1683h614l-43 -242h-274l-211 -1200h274z" />
<glyph unicode="\" d="M772 -31l-154 -65l-436 1499l156 67z" />
<glyph unicode="]" horiz-adv-x="841" d="M535 -317h-615l43 241h275l211 1200h-275l43 242h614z" />
<glyph unicode="^" d="M1208 578h-104l-381 591l-385 -591h-266l579 856h15z" />
<glyph unicode="_" d="M1120 -307h-962v123h962v-123z" />
<glyph unicode="`" horiz-adv-x="532" d="M631 1235l-90 -131l-435 190l107 172z" />
<glyph unicode="a" horiz-adv-x="1095" d="M535 287l30 176q-256 -43 -256 -182q0 -59 66 -62q51 0 160 68zM952 27q-102 -51 -225 -52q-172 0 -190 136q-162 -135 -334 -136q-96 0 -157.5 60.5t-61.5 152.5q0 348 610 451l2 10q4 25 4 41q0 66 -90 66q-49 0 -145 -31q-66 -20 -142 -55l-30 -15l-64 197 q283 162 537 162q154 0 225 -82q49 -53 49 -127q0 -57 -18 -154l-45 -262q-20 -115 -21 -129q0 -51 59 -51q-8 0 56 6z" />
<glyph unicode="b" horiz-adv-x="1251" d="M811 563q0 172 -143 172q-115 0 -222 -108l-49 -277q66 -109 181 -108q113 0 178 106q55 92 55 215zM350 137l-24 -137h-316l258 1466h326l-105 -594q182 145 348 146h5q154 0 239 -111q78 -100 78 -260q0 -264 -119 -450q-139 -219 -395 -220q-176 0 -295 160z" />
<glyph unicode="c" horiz-adv-x="1034" d="M909 137q-223 -158 -456 -157q-190 0 -306 120.5t-116 311.5q0 274 162 436q170 168 469 168h8q197 -2 336 -86l-121 -205q-94 43 -207 43q-135 0 -216 -93t-81 -226q0 -203 186 -203q90 0 254 80z" />
<glyph unicode="d" horiz-adv-x="1251" d="M737 373l49 278q-66 100 -178 101q-113 0 -176 -107q-53 -90 -53 -207q0 -176 143 -176q94 0 215 111zM999 0h-313l27 147q-166 -174 -356 -174h-5q-158 0 -246 115q-82 104 -81 264q0 256 122 445q145 221 398 221q82 0 162.5 -37t119.5 -102l103 587h327z" />
<glyph unicode="e" horiz-adv-x="1114" d="M717 627q4 37 4 65q0 131 -109 131q-156 0 -204 -205zM967 150q-246 -176 -516 -177q-197 0 -309.5 114t-112.5 310q0 272 173 447q171 172 435 172h6q176 0 280.5 -99.5t104.5 -275.5q0 -80 -14 -154l-10 -57h-633q-4 -39 -4 -45q0 -162 170 -162q141 0 342 105z" />
<glyph unicode="f" horiz-adv-x="819" d="M1028 1456l-88 -221q-63 8 -100 8q-125 0 -176.5 -49t-75.5 -182l-4 -25h264l-37 -211h-264l-137 -776h-328l137 776h-188l37 211h188l12 64q41 231 165 334.5t368 103.5q121 0 227 -33z" />
<glyph unicode="g" horiz-adv-x="1134" d="M608 -100q-31 8 -137 20q-113 14 -182 33q-141 -37 -142 -127q0 -113 248 -113q86 0 164 25q109 36 109 106q-1 38 -60 56zM657 688q0 135 -112 135q-78 0 -125 -71q-39 -61 -39 -144q0 -135 108 -135q80 0 127 70q41 61 41 145zM344 -494q-199 0 -334 52 q-182 68 -182 215q0 104 84 174q74 59 184 78q-47 10 -82 24q-43 18 -43 43q0 20 49 72q12 10 146 158l24 24q-125 88 -124 236q0 203 159 323q145 111 355 111q106 0 217 -29h346l-37 -217h-174q27 -47 26 -106q0 -176 -151 -283q-137 -100 -334 -100h-8q-23 0 -88 6 q-2 -4 -25.5 -33t-46.5 -49q49 -20 127 -33l131 -20l180 -23q121 -18 185 -57q84 -51 84 -148q0 -205 -221 -319q-189 -99 -447 -99z" />
<glyph unicode="h" horiz-adv-x="1234" d="M991 0h-332l101 565q8 53 8 80q0 74 -72 74q-115 0 -252 -125l-104 -594h-330l258 1466h330l-106 -604q203 156 370 156q113 0 182 -53q78 -59 78 -168q0 -49 -12 -125z" />
<glyph unicode="i" horiz-adv-x="585" d="M336 0h-326l174 987h326zM213 1231q0 92 58.5 150.5t148.5 58.5q68 0 113 -43t45 -107q0 -90 -57.5 -149.5t-143.5 -59.5q-70 0 -117 41t-47 109z" />
<glyph unicode="j" horiz-adv-x="587" d="M354 72q-29 -156 -60.5 -234t-98.5 -147q-154 -158 -455 -185l-21 234q162 45 220.5 110.5t87.5 221.5l161 915h328zM217 1231q0 92 58.5 150.5t148.5 58.5q68 0 113 -43t45 -107q0 -90 -57.5 -149.5t-143.5 -59.5q-70 0 -117 41t-47 109z" />
<glyph unicode="k" horiz-adv-x="1173" d="M1040 0h-378l-234 494l-88 -494h-330l258 1466h330l-152 -862l347 383h397l-449 -438z" />
<glyph unicode="l" horiz-adv-x="591" d="M342 0h-332l258 1466h332z" />
<glyph unicode="m" horiz-adv-x="1777" d="M1534 0h-315l98 551q10 59 10 100q0 66 -59 66q-49 0 -125 -45q-66 -41 -111 -88l-102 -584h-316l99 551q6 31 12 94q0 72 -63 72q-45 0 -115 -40t-119 -93l-102 -584h-316l174 987h305l-22 -131q190 160 362 162h8q83 0 142 -41q70 -45 80 -129q194 170 374 170h5 q96 0 162.5 -55.5t66.5 -149.5q0 -63 -22 -190z" />
<glyph unicode="n" horiz-adv-x="1214" d="M969 0h-328l90 512q16 94 17 129q0 74 -74 76h-3q-97 0 -231 -131l-104 -586h-326l174 987h314l-25 -137q186 168 386 168h5q102 0 168 -57.5t66 -159.5q0 -74 -21 -189z" />
<glyph unicode="o" horiz-adv-x="1204" d="M31 391q0 281 175 455t451 174q193 0 318 -113q131 -119 131 -309q0 -262 -162 -436q-172 -186 -455 -187q-197 0 -323 109q-135 112 -135 307zM756 573q0 195 -146 195q-106 0 -172 -119q-55 -100 -55 -215q0 -197 143 -198q2 0 4 -1q108 0 172 119q54 98 54 219z" />
<glyph unicode="p" horiz-adv-x="1257" d="M809 551q0 84 -40 134t-105 50q-111 0 -218 -112l-49 -273q59 -106 185 -108h4q106 0 168 104q55 90 55 205zM360 135l-106 -608h-326l256 1460h301l-24 -139q194 170 370 170h5q154 0 241 -111q84 -100 84 -256q0 -272 -123 -461q-139 -215 -381 -215q-211 0 -297 160z " />
<glyph unicode="q" horiz-adv-x="1257" d="M743 371l50 274q-63 109 -179 109q-106 0 -174 -109q-55 -92 -55 -207q0 -182 141 -182q104 0 217 115zM922 -473h-328l106 598q-139 -154 -313 -154q-168 0 -264 109q-92 102 -92 277q0 255 121 440q143 221 399 221q201 0 297 -152l20 121h312z" />
<glyph unicode="r" horiz-adv-x="870" d="M911 989l-106 -276q-16 2 -35 2q-186 0 -358 -305l-72 -410h-330l174 987h316l-33 -192q145 211 354 211q55 -1 90 -17z" />
<glyph unicode="s" horiz-adv-x="966" d="M260 -20q-182 0 -307 40l90 226q115 -20 219 -21q219 0 219 81q0 34 -98 71q-133 53 -180 88q-98 70 -99 182q0 180 148 279q133 86 352 86q188 0 305 -37l-82 -209q-94 23 -194 22q-182 0 -182 -71q0 -37 100 -76q141 -51 186 -84q100 -70 101 -186q0 -205 -176 -305 q-148 -86 -402 -86z" />
<glyph unicode="t" horiz-adv-x="837" d="M668 20q-119 -45 -275 -45q-291 0 -291 226q0 47 13 106l82 471h-187l37 209h186l58 326h330l-58 -326h268l-36 -209h-269l-65 -375q-12 -70 -12 -92q0 -80 114 -80q59 0 144 13z" />
<glyph unicode="u" horiz-adv-x="1214" d="M963 0h-324l25 139q-184 -160 -355 -159q-127 0 -192 71q-63 66 -64 185q0 53 23 182l100 569h328l-98 -565q-8 -39 -9 -57q0 -80 76 -80q111 0 238 129l100 573h326z" />
<glyph unicode="v" horiz-adv-x="1130" d="M1169 987l-546 -987h-369l-203 987h344l105 -653l338 653h331z" />
<glyph unicode="w" horiz-adv-x="1642" d="M1681 987l-479 -987h-344l-55 651l-279 -651h-346l-127 987h311l60 -639l270 639h340l58 -639l268 639h323z" />
<glyph unicode="x" horiz-adv-x="1132" d="M999 0h-378l-138 295l-209 -295h-380l458 520l-250 467h365l125 -260l162 260h372l-409 -467z" />
<glyph unicode="y" horiz-adv-x="1114" d="M1153 987l-610 -1096q-104 -188 -178 -262q-127 -127 -342 -129h-12q-111 0 -224 37l90 225q47 -8 94 -8q86 0 142 43q41 31 96 115l35 53l-209 1022h342l104 -653l340 653h332z" />
<glyph unicode="z" horiz-adv-x="1034" d="M846 0h-891l43 242l524 491h-422l45 254h865l-37 -217l-531 -500h451z" />
<glyph unicode="{" horiz-adv-x="819" d="M573 -317h-294q-88 0 -147.5 58t-59.5 155q0 25 6 51l49 286q10 57 10 99q0 131 -114 139l40 231q82 4 125 59.5t66 186.5l29 170q45 248 295 248h292l-43 -242h-125q-55 0 -79 -49q-16 -29 -31 -110l-27 -154q-20 -117 -73 -170q-33 -31 -103 -53q102 -51 103 -162 q0 -33 -7 -72l-49 -270q-12 -72 -12 -98q0 -63 68 -64h124z" />
<glyph unicode="|" horiz-adv-x="593" d="M467 -342h-340v1708h340v-1708z" />
<glyph unicode="}" horiz-adv-x="819" d="M190 1366h295q88 0 146.5 -58.5t58.5 -154.5q0 -25 -4 -51l-29 -162q-10 -57 -10 -98q0 -131 117 -140l-41 -231q-82 -4 -125 -59.5t-66 -186.5l-53 -295q-43 -248 -293 -247h-292l43 241h124q55 0 80 49q14 29 29 111l49 278q23 117 76 170q31 31 102 54 q-104 51 -104 162q0 33 8 71l25 146q12 72 12 98q0 63 -66 63h-125z" />
<glyph unicode="~" d="M1055 1479q-53 -92 -107 -140q-82 -74 -172 -73q-49 0 -170 43q-37 14 -100 32q-35 8 -70 9q-61 0 -100 -29l-76 -76l-37 23q63 104 117 151q74 63 162 64q35 0 64.5 -8.5t107.5 -34.5q113 -39 160 -39q96 0 182 102z" />
<glyph unicode="&#xa1;" horiz-adv-x="759" d="M14 -336l205 926h275l-117 -926h-363zM594 891q0 -94 -61.5 -155.5t-155.5 -61.5q-72 0 -119 45t-47 110q0 94 60.5 157t150.5 63q72 0 122 -43t50 -115z" />
<glyph unicode="&#xa2;" d="M1057 426q-209 -137 -443 -150l-53 -188h-153l55 197q-291 98 -293 397q0 258 152 430q160 184 428 197l51 184h153l-53 -184q51 -4 115 -23q78 -25 131 -57l-121 -207q-92 43 -205 43q-139 0 -223 -96q-76 -90 -76 -224q0 -205 176 -202q104 0 267 80z" />
<glyph unicode="&#xa3;" horiz-adv-x="1339" d="M1374 1343l-137 -245q-86 31 -199 30q-117 0 -182 -48t-104 -156l-29 -76h461l-45 -254h-502q-63 -233 -184 -318h714l-49 -276h-1120l-21 242q104 8 165 62t104 177l37 113h-217l45 254h254l43 119q84 223 227 327q154 109 414 109q163 -1 325 -60z" />
<glyph unicode="&#xa4;" d="M1169 135q-221 -164 -479 -164q-225 0 -360 111q-145 119 -158 340h-199l35 209h178v4q0 16 9 55q2 20 14 58h-178l37 215h213q174 426 610 426q272 0 461 -158l-187 -191q-127 94 -250 93q-174 -2 -274 -170h444l-36 -215h-488q-6 -14 -14 -56.5t-8 -56.5v-4h487 l-35 -209h-467q16 -199 201 -199q137 0 315 105z" />
<glyph unicode="&#xa5;" horiz-adv-x="1390" d="M1415 1366l-383 -494h215l-37 -208h-342l-47 -66l-8 -43h379l-37 -207h-379l-61 -348h-344l61 348h-377l37 207h377l8 43l-28 66h-338l36 208h211l-211 494h383l154 -494l332 494h399z" />
<glyph unicode="&#xa6;" horiz-adv-x="593" d="M467 1366h-340v-739h340v739zM467 -342h-340v748h340v-748z" />
<glyph unicode="&#xa7;" horiz-adv-x="1171" d="M752 565q0 37 -33 62q-41 31 -135 71l-99 43q-41 -10 -72.5 -42.5t-31.5 -73.5q0 -57 65 -93q55 -29 119 -57l86 -39q39 16 70 53t31 76zM846 313q86 -72 86 -170q0 -203 -182 -303q-152 -84 -402 -84q-213 0 -377 51l95 224q125 -33 266 -33q233 0 233 98q0 37 -88 74 t-258 119q-166 94 -166 243q0 227 230 328q-78 61 -78 170q0 195 178 287q147 78 393 78q190 0 367 -49l-88 -220q-115 29 -285 29q-203 0 -203 -86q0 -37 54 -65q14 -8 90 -37q205 -80 272 -140q82 -68 82 -180q0 -98 -63.5 -192.5t-155.5 -141.5z" />
<glyph unicode="&#xa8;" horiz-adv-x="745" d="M102 1253q0 76 47.5 123t120.5 47q55 0 92 -34.5t37 -85.5q0 -74 -47 -122t-116 -48q-55 0 -94.5 33.5t-39.5 86.5zM588 1253q0 76 47 123t121 47q55 0 92 -34.5t37 -85.5q0 -74 -46 -122t-118 -48q-55 0 -94 33.5t-39 86.5z" />
<glyph unicode="&#xa9;" horiz-adv-x="1652" d="M1550 684q0 -301 -212 -513t-511 -212t-512 212t-213 513q0 299 213 511t512 212t511 -212t212 -511zM1456 684q0 260 -184.5 443.5t-444.5 183.5t-444 -183.5t-184 -443.5t184 -444.5t444 -184.5t444.5 184.5t184.5 444.5zM1178 360l-17 -8q-172 -86 -319 -86 q-209 0 -341 115t-132 297q0 188 143 310t367 122q135 0 256 -45l16 -6l-55 -158l-17 4q-25 6 -43 13q-76 14 -135 14q-123 0 -197.5 -66.5t-74.5 -175.5q0 -102 64.5 -169.5t164.5 -67.5q35 0 92.5 13t126.5 46q-4 0 15 6z" />
<glyph unicode="&#xaa;" horiz-adv-x="673" d="M664 780q-61 -33 -134 -32q-109 0 -118 83q-96 -84 -191 -83q-57 0 -93 36.5t-36 94.5q0 217 354 278v6q2 10 3 21q0 41 -54 41q-63 -2 -180 -62l-37 123q160 96 316 96q90 0 133 -51q29 -33 28 -78q0 -35 -10 -94l-27 -149q-12 -72 -12 -80q0 -31 37 -31q-6 0 31 4z M412 946l16 101q-47 -8 -88 -31q-55 -33 -55 -74q0 -37 41 -37q23 0 86 41zM604 526h-561l20 125h562z" />
<glyph unicode="&#xab;" horiz-adv-x="987" d="M410 211l-183 -105l-211 408l344 389l162 -100l-227 -289zM795 211l-183 -105l-211 408l344 389l162 -100l-227 -289z" />
<glyph unicode="&#xac;" d="M1085 0h-159v432h-731v115h890v-547z" />
<glyph unicode="&#xad;" d="M1151 432h-1024v219h1024v-219z" />
<glyph unicode="&#x2212;" d="M1151 432h-1024v219h1024v-219z" />
<glyph unicode="&#xae;" horiz-adv-x="1652" d="M1550 684q0 -301 -212 -513t-511 -212t-512 212t-213 513q0 299 213 511t512 212t511 -212t212 -511zM1456 684q0 260 -184.5 443.5t-444.5 183.5t-444 -183.5t-184 -443.5t184 -444.5t444 -184.5t444.5 184.5t184.5 444.5zM1241 285h-287l-145 288q-14 37 -57 37h-4 v-325h-254v805h325q150 0 223 -35q115 -55 115 -174q0 -66 -48 -124.5t-120 -72.5l-10 -2l12 -6q10 -2 39 -21q31 -31 35 -39zM899 854q0 82 -111 82h-40v-176h32q119 0 119 94z" />
<glyph unicode="&#xaf;" horiz-adv-x="974" d="M754 1184h-559l32 196h559z" />
<glyph unicode="&#x2c9;" horiz-adv-x="974" d="M754 1184h-559l32 196h559z" />
<glyph unicode="&#xb0;" d="M922 1110q0 -117 -83 -199t-200 -82q-119 0 -201 82t-82 199q0 115 83 197t200 82t200 -82t83 -197zM793 1110q0 63 -46.5 109.5t-109.5 46.5t-107.5 -45t-44.5 -111t45 -112t109 -46q63 0 108.5 47.5t45.5 110.5z" />
<glyph unicode="&#xb1;" d="M1104 629h-410v-410h-108v410h-410v108h410v410h108v-410h410v-108zM1104 0h-928v109h928v-109z" />
<glyph unicode="&#xb2;" horiz-adv-x="716" d="M627 723h-512l-17 133q96 61 301 219q72 63 72 111q0 45 -70 45q-51 0 -176 -41l-35 153q141 61 277 62q231 0 231 -174q0 -98 -102 -197q-45 -45 -182 -141h243z" />
<glyph unicode="&#xb3;" horiz-adv-x="716" d="M150 719l-39 2l28 156q133 4 212 27.5t79 60.5q0 45 -125 45h-76l25 135q53 2 119 16q88 23 88 56q0 31 -49 30q-61 0 -170 -35l-27 138q143 55 270 55q84 0 136.5 -36t54.5 -95q2 -66 -38 -114t-95 -58q113 -20 114 -119q2 -154 -194 -223q-143 -49 -313 -41z" />
<glyph unicode="&#xb4;" horiz-adv-x="530" d="M637 1278l-492 -174l-49 141l484 221z" />
<glyph unicode="&#xb5;" horiz-adv-x="1187" d="M954 0h-303l29 164q-184 -190 -383 -184l-37 -216h-307l215 1223h328l-103 -577q-4 -29 -4 -50q0 -80 76 -79q102 0 240 139l100 567h323z" />
<glyph unicode="&#x3bc;" horiz-adv-x="1187" d="M954 0h-303l29 164q-184 -190 -383 -184l-37 -216h-307l215 1223h328l-103 -577q-4 -29 -4 -50q0 -80 76 -79q102 0 240 139l100 567h323z" />
<glyph unicode="&#xb6;" d="M930 -242h-185l256 1448h-98l-256 -1448h-184l147 830q-381 12 -381 309q0 193 103 315q111 133 317 148q92 6 211 6h354z" />
<glyph unicode="&#xb7;" horiz-adv-x="745" d="M180 653q0 94 60.5 155.5t156.5 61.5q72 0 119 -45t47 -110q0 -94 -60.5 -156.5t-150.5 -62.5q-72 0 -122 42.5t-50 114.5z" />
<glyph unicode="&#x22c5;" horiz-adv-x="745" d="M180 653q0 94 60.5 155.5t156.5 61.5q72 0 119 -45t47 -110q0 -94 -60.5 -156.5t-150.5 -62.5q-72 0 -122 42.5t-50 114.5z" />
<glyph unicode="&#x2219;" horiz-adv-x="745" d="M180 653q0 94 60.5 155.5t156.5 61.5q72 0 119 -45t47 -110q0 -94 -60.5 -156.5t-150.5 -62.5q-72 0 -122 42.5t-50 114.5z" />
<glyph unicode="&#xb8;" horiz-adv-x="974" d="M467 -348l-156 39l140 309h213z" />
<glyph unicode="&#xb9;" horiz-adv-x="696" d="M494 721h-213l81 465l-147 -64l-55 135l299 148l147 -51z" />
<glyph unicode="&#xba;" horiz-adv-x="737" d="M637 526h-590l21 125h589zM119 1001q0 170 102.5 276.5t265.5 106.5q115 0 190 -70.5t75 -187.5q0 -160 -95 -266q-102 -113 -268 -112q-117 0 -190 65q-80 69 -80 188zM541 1108q0 115 -82 115q-59 0 -97 -70q-33 -57 -32 -125q0 -115 82 -115q61 0 98 68q31 57 31 127z " />
<glyph unicode="&#xbb;" horiz-adv-x="970" d="M500 799l182 104l211 -389l-342 -408l-164 101l227 307zM115 799l182 104l211 -389l-342 -408l-164 101l227 307z" />
<glyph unicode="&#xbc;" horiz-adv-x="1433" d="M1257 111h-92l-20 -111h-182l20 111h-309l-17 135l435 442l168 -45l-68 -383h92zM494 721h-213l81 465l-147 -64l-53 135l297 148l147 -51zM993 260l37 205l-188 -205h151zM1368 1298l-1147 -1335l-145 117l1141 1329z" />
<glyph unicode="&#xbd;" horiz-adv-x="1433" d="M1294 0h-512l-16 133q96 61 301 219q72 63 72 111q0 45 -70 45q-53 0 -178 -41l-33 154q141 61 277 61q231 0 231 -174q0 -98 -102 -197q-45 -45 -183 -141h244zM1368 1298l-1147 -1335l-145 117l1141 1329zM494 721h-213l81 465l-147 -64l-53 135l297 148l147 -51z" />
<glyph unicode="&#xbe;" horiz-adv-x="1433" d="M119 719l-39 2l29 156q133 4 211.5 27.5t78.5 60.5q0 45 -125 45h-75l24 135q53 2 119 16q88 23 88 56q0 31 -49 30q-61 0 -170 -35l-27 138q143 55 271 55q84 0 136 -36t54 -95q2 -66 -38 -114t-95 -58q113 -20 115 -119q2 -154 -195 -223q-143 -49 -313 -41zM1257 111 h-92l-20 -111h-182l20 111h-309l-17 135l433 442l167 -45l-67 -383h92zM1008 260l36 205l-188 -205h152zM1368 1298l-1147 -1335l-145 117l1141 1329z" />
<glyph unicode="&#xbf;" horiz-adv-x="1089" d="M823 928q0 -94 -60.5 -155.5t-154.5 -61.5q-72 0 -119 45t-47 110q0 94 59.5 156.5t151.5 62.5q72 0 121 -42.5t49 -114.5zM442 477l27 148h262l-22 -316q-137 -33 -244 -90q-156 -86 -156 -188q0 -92 131 -92q129 0 336 71l66 -229q-270 -117 -512 -117q-154 0 -254 70 q-113 80 -117 225q-8 193 150 338q130 121 333 180z" />
<glyph unicode="&#xc0;" horiz-adv-x="1533" d="M1407 0h-397l-68 334h-536l-183 -334h-338l809 1366h377zM891 578l-96 462l-252 -462h348zM1198 1628l-90 -131l-435 190l107 172z" />
<glyph unicode="&#xc1;" horiz-adv-x="1533" d="M1407 0h-397l-68 334h-536l-183 -334h-338l809 1366h377zM891 578l-96 462l-252 -462h348zM1143 1671l-492 -174l-49 141l484 221z" />
<glyph unicode="&#xc2;" horiz-adv-x="1533" d="M1407 0h-397l-68 334h-536l-183 -334h-338l809 1366h377zM891 578l-96 462l-252 -462h348zM1280 1633l-104 -135l-267 151l-327 -151l-58 145l406 229z" />
<glyph unicode="&#xc3;" horiz-adv-x="1533" d="M1407 0h-397l-68 334h-536l-183 -334h-338l809 1366h377zM891 578l-96 462l-252 -462h348zM1276 1685q-166 -143 -291 -143q-43 0 -108.5 31t-122.5 31q-53 0 -151 -68l-87 129q147 129 273 129q43 0 109.5 -28.5t115.5 -28.5q74 0 176 75z" />
<glyph unicode="&#xc4;" horiz-adv-x="1533" d="M1407 0h-397l-68 334h-536l-183 -334h-338l809 1366h377zM891 578l-96 462l-252 -462h348zM512 1636q0 76 47.5 123t120.5 47q55 0 92 -34.5t37 -85.5q0 -74 -47 -122t-116 -48q-55 0 -94.5 33.5t-39.5 86.5zM998 1636q0 76 47 123t121 47q55 0 92 -34.5t37 -85.5 q0 -74 -46 -122t-118 -48q-55 0 -94 33.5t-39 86.5z" />
<glyph unicode="&#xc5;" horiz-adv-x="1533" d="M1407 0h-397l-68 334h-536l-183 -334h-338l809 1366h377zM891 578l-96 462l-252 -462h348zM1106 1682q0 -96 -62.5 -162t-158.5 -66q-74 0 -126.5 45.5t-52.5 118.5q0 98 63.5 163t164.5 65q74 0 123 -47t49 -117zM987 1663q0 70 -70 70q-92 0 -92 -96q0 -68 72 -68 q39 -2 64.5 25.5t25.5 68.5z" />
<glyph unicode="&#xc6;" horiz-adv-x="2054" d="M1833 0h-903l59 334h-459l-247 -334h-398l1080 1366h1071l-47 -262h-504l-49 -277h469l-43 -254h-469l-54 -297h543zM1032 578l98 555l-415 -555h317z" />
<glyph unicode="&#xc7;" horiz-adv-x="1386" d="M1430 1290l-127 -239q-168 72 -316 71q-225 0 -389 -155.5t-164 -384.5q0 -324 336 -324q127 0 385 111l105 -236q-84 -49 -160 -82q-176 -74 -344 -80l-232 -399l-172 51l166 363q-182 39 -307 166q-154 154 -154 389q0 383 275 624q268 236 676 236q246 0 422 -111z " />
<glyph unicode="&#xc8;" horiz-adv-x="1224" d="M1001 0h-985l242 1366h948l-47 -262h-590l-49 -277h557l-43 -254h-557l-53 -297h627zM1010 1628l-90 -131l-435 190l107 172z" />
<glyph unicode="&#xc9;" horiz-adv-x="1224" d="M1001 0h-985l242 1366h948l-47 -262h-590l-49 -277h557l-43 -254h-557l-53 -297h627zM1047 1671l-492 -174l-49 141l484 221z" />
<glyph unicode="&#xca;" horiz-adv-x="1224" d="M1001 0h-985l242 1366h948l-47 -262h-590l-49 -277h557l-43 -254h-557l-53 -297h627zM1133 1633l-104 -135l-267 151l-327 -151l-58 145l406 229z" />
<glyph unicode="&#xcb;" horiz-adv-x="1224" d="M1001 0h-985l242 1366h948l-47 -262h-590l-49 -277h557l-43 -254h-557l-53 -297h627zM372 1636q0 76 47.5 123t120.5 47q55 0 92 -34.5t37 -85.5q0 -74 -47 -122t-116 -48q-55 0 -94.5 33.5t-39.5 86.5zM858 1636q0 76 47 123t121 47q55 0 92 -34.5t37 -85.5 q0 -74 -46 -122t-118 -48q-55 0 -94 33.5t-39 86.5z" />
<glyph unicode="&#xcc;" horiz-adv-x="636" d="M379 0h-363l242 1366h363zM766 1628l-90 -131l-435 190l107 172z" />
<glyph unicode="&#xcd;" horiz-adv-x="636" d="M379 0h-363l242 1366h363zM721 1671l-492 -174l-49 141l484 221z" />
<glyph unicode="&#xce;" horiz-adv-x="636" d="M379 0h-363l242 1366h363zM860 1633l-104 -135l-267 151l-327 -151l-58 145l406 229z" />
<glyph unicode="&#xcf;" horiz-adv-x="636" d="M379 0h-363l242 1366h363zM88 1636q0 76 47.5 123t120.5 47q55 0 92 -34.5t37 -85.5q0 -74 -47 -122t-116 -48q-55 0 -94.5 33.5t-39.5 86.5zM574 1636q0 76 47 123t121 47q55 0 92 -34.5t37 -85.5q0 -74 -46 -122t-118 -48q-55 0 -94 33.5t-39 86.5z" />
<glyph unicode="&#xd0;" horiz-adv-x="1544" d="M188 819l97 547h413q250 0 367 -20q451 -84 448 -506q-2 -315 -189 -537.5t-493 -277.5q-143 -25 -409 -25h-379l102 582h-174l43 237h174zM831 819l-43 -237h-286l-53 -312h65q279 0 438 123q180 137 183 408q0 201 -136 262q-84 39 -309 39h-96l-49 -283h286z" />
<glyph unicode="&#xd1;" horiz-adv-x="1499" d="M1241 0h-342l-412 797q-8 -35 -141 -797h-330l242 1366l330 -2l422 -815q4 27 143 817h330zM1251 1685q-166 -143 -291 -143q-43 0 -108.5 31t-122.5 31q-53 0 -151 -68l-87 129q147 129 273 129q43 0 109.5 -28.5t115.5 -28.5q74 0 176 75z" />
<glyph unicode="&#xd2;" horiz-adv-x="1599" d="M61 557q0 367 245 605.5t614 238.5q279 0 444 -150q176 -160 176 -440q0 -346 -229 -588q-242 -254 -623 -254q-268 0 -444 158q-183 164 -183 430zM1155 776q0 145 -80 234.5t-211 89.5q-188 0 -309 -160q-109 -147 -109 -340q0 -147 76 -234t205 -87q190 0 313 157 q115 145 115 340zM1204 1628l-90 -131l-435 190l107 172z" />
<glyph unicode="&#xd3;" horiz-adv-x="1599" d="M61 557q0 367 245 605.5t614 238.5q279 0 444 -150q176 -160 176 -440q0 -346 -229 -588q-242 -254 -623 -254q-268 0 -444 158q-183 164 -183 430zM1155 776q0 145 -80 234.5t-211 89.5q-188 0 -309 -160q-109 -147 -109 -340q0 -147 76 -234t205 -87q190 0 313 157 q115 145 115 340zM1231 1671l-492 -174l-49 141l484 221z" />
<glyph unicode="&#xd4;" horiz-adv-x="1599" d="M61 557q0 367 245 605.5t614 238.5q279 0 444 -150q176 -160 176 -440q0 -346 -229 -588q-242 -254 -623 -254q-268 0 -444 158q-183 164 -183 430zM1155 776q0 145 -80 234.5t-211 89.5q-188 0 -309 -160q-109 -147 -109 -340q0 -147 76 -234t205 -87q190 0 313 157 q115 145 115 340zM1319 1633l-104 -135l-267 151l-327 -151l-58 145l406 229z" />
<glyph unicode="&#xd5;" horiz-adv-x="1599" d="M61 557q0 367 245 605.5t614 238.5q279 0 444 -150q176 -160 176 -440q0 -346 -229 -588q-242 -254 -623 -254q-268 0 -444 158q-183 164 -183 430zM1155 776q0 145 -80 234.5t-211 89.5q-188 0 -309 -160q-109 -147 -109 -340q0 -147 76 -234t205 -87q190 0 313 157 q115 145 115 340zM1312 1685q-166 -143 -291 -143q-43 0 -108.5 31t-122.5 31q-53 0 -151 -68l-87 129q147 129 273 129q43 0 109.5 -28.5t115.5 -28.5q74 0 176 75z" />
<glyph unicode="&#xd6;" horiz-adv-x="1599" d="M61 557q0 367 245 605.5t614 238.5q279 0 444 -150q176 -160 176 -440q0 -346 -229 -588q-242 -254 -623 -254q-268 0 -444 158q-183 164 -183 430zM1155 776q0 145 -80 234.5t-211 89.5q-188 0 -309 -160q-109 -147 -109 -340q0 -147 76 -234t205 -87q190 0 313 157 q115 145 115 340zM563 1636q0 76 47.5 123t120.5 47q55 0 92 -34.5t37 -85.5q0 -74 -47 -122t-116 -48q-55 0 -94.5 33.5t-39.5 86.5zM1049 1636q0 76 47 123t121 47q55 0 92 -34.5t37 -85.5q0 -74 -46 -122t-118 -48q-55 0 -94 33.5t-39 86.5z" />
<glyph unicode="&#xd7;" d="M1198 172l-178 -178l-379 377l-379 -377l-178 178l377 379l-379 379l178 178l381 -377l379 377l178 -178l-377 -379z" />
<glyph unicode="&#xd8;" horiz-adv-x="1601" d="M522 367q76 -88 205 -88q190 0 313 157q115 145 115 340q0 61 -14 117zM1067 1020q-78 80 -203 80q-188 0 -307 -160q-111 -147 -111 -340q0 -53 11 -100zM1620 1300l-172 -145q92 -141 92 -338q2 -350 -227 -594q-242 -254 -623 -254q-270 0 -448 162l-181 -154l-90 111 l179 152q-88 137 -89 317q0 367 246 605.5t613 238.5q266 0 432 -139l172 147z" />
<glyph unicode="&#xd9;" horiz-adv-x="1507" d="M1372 643q-33 -184 -74 -283q-55 -137 -168 -231q-184 -156 -518 -156q-524 0 -524 414v12q2 68 25 197l135 770h354l-139 -793q-16 -88 -17 -131q0 -88 70 -137q61 -41 156 -41q195 2 282 119q55 72 86 250l129 733h330zM1143 1628l-90 -131l-435 190l107 172z" />
<glyph unicode="&#xda;" horiz-adv-x="1507" d="M1372 643q-33 -184 -74 -283q-55 -137 -168 -231q-184 -156 -518 -156q-524 0 -524 414v12q2 68 25 197l135 770h354l-139 -793q-16 -88 -17 -131q0 -88 70 -137q61 -41 156 -41q195 2 282 119q55 72 86 250l129 733h330zM1163 1671l-492 -174l-49 141l484 221z" />
<glyph unicode="&#xdb;" horiz-adv-x="1507" d="M1372 643q-33 -184 -74 -283q-55 -137 -168 -231q-184 -156 -518 -156q-524 0 -524 414v12q2 68 25 197l135 770h354l-139 -793q-16 -88 -17 -131q0 -88 70 -137q61 -41 156 -41q195 2 282 119q55 72 86 250l129 733h330zM1288 1633l-104 -135l-267 151l-327 -151 l-58 145l406 229z" />
<glyph unicode="&#xdc;" horiz-adv-x="1507" d="M1372 643q-33 -184 -74 -283q-55 -137 -168 -231q-184 -156 -518 -156q-524 0 -524 414v12q2 68 25 197l135 770h354l-139 -793q-16 -88 -17 -131q0 -88 70 -137q61 -41 156 -41q195 2 282 119q55 72 86 250l129 733h330zM516 1636q0 76 47.5 123t120.5 47q55 0 92 -34.5 t37 -85.5q0 -74 -47 -122t-116 -48q-55 0 -94.5 33.5t-39.5 86.5zM1002 1636q0 76 47 123t121 47q55 0 92 -34.5t37 -85.5q0 -74 -46 -122t-118 -48q-55 0 -94 33.5t-39 86.5z" />
<glyph unicode="&#xdd;" horiz-adv-x="1355" d="M1468 1366l-628 -776l-105 -590h-354l104 590l-358 776h451l165 -498l359 498h366zM1118 1671l-492 -174l-49 141l484 221z" />
<glyph unicode="&#xde;" horiz-adv-x="1224" d="M819 750q0 129 -196 129h-97l-65 -373h80q278 0 278 244zM1190 788q-2 -365 -311 -477q-119 -43 -293 -43h-168l-47 -268h-357l242 1366h356l-43 -240h131q147 0 218 -12q127 -25 199.5 -111t72.5 -215z" />
<glyph unicode="&#xdf;" horiz-adv-x="1277" d="M420 12l100 230q59 -14 117 -15q174 0 172 121q0 70 -102.5 176.5t-102.5 169.5q0 53 27 94q6 12 135 166q86 100 86 168q0 109 -115 109q-121 0 -182 -115q-41 -72 -68 -221l-157 -895h-328l158 895q53 295 178 434q154 166 457 166q158 0 260 -61q123 -74 123 -220 q0 -111 -62 -210q-29 -49 -110 -144q-61 -68 -62 -98q0 -39 53 -98q84 -90 101 -115q53 -80 53 -172q0 -193 -150 -297q-139 -98 -366 -98q-131 -1 -215 30z" />
<glyph unicode="&#xe0;" horiz-adv-x="1095" d="M535 287l30 176q-256 -43 -256 -182q0 -59 66 -62q51 0 160 68zM952 27q-102 -51 -225 -52q-172 0 -190 136q-162 -135 -334 -136q-96 0 -157.5 60.5t-61.5 152.5q0 348 610 451l2 10q4 25 4 41q0 66 -90 66q-49 0 -145 -31q-66 -20 -142 -55l-30 -15l-64 197 q283 162 537 162q154 0 225 -82q49 -53 49 -127q0 -57 -18 -154l-45 -262q-20 -115 -21 -129q0 -51 59 -51q-8 0 56 6zM850 1235l-90 -131l-435 190l107 172z" />
<glyph unicode="&#xe1;" horiz-adv-x="1095" d="M535 287l30 176q-256 -43 -256 -182q0 -59 66 -62q51 0 160 68zM952 27q-102 -51 -225 -52q-172 0 -190 136q-162 -135 -334 -136q-96 0 -157.5 60.5t-61.5 152.5q0 348 610 451l2 10q4 25 4 41q0 66 -90 66q-49 0 -145 -31q-66 -20 -142 -55l-30 -15l-64 197 q283 162 537 162q154 0 225 -82q49 -53 49 -127q0 -57 -18 -154l-45 -262q-20 -115 -21 -129q0 -51 59 -51q-8 0 56 6zM899 1278l-492 -174l-49 141l484 221z" />
<glyph unicode="&#xe2;" horiz-adv-x="1095" d="M535 287l30 176q-256 -43 -256 -182q0 -59 66 -62q51 0 160 68zM952 27q-102 -51 -225 -52q-172 0 -190 136q-162 -135 -334 -136q-96 0 -157.5 60.5t-61.5 152.5q0 348 610 451l2 10q4 25 4 41q0 66 -90 66q-49 0 -145 -31q-66 -20 -142 -55l-30 -15l-64 197 q283 162 537 162q154 0 225 -82q49 -53 49 -127q0 -57 -18 -154l-45 -262q-20 -115 -21 -129q0 -51 59 -51q-8 0 56 6zM1038 1227l-104 -135l-267 151l-327 -151l-58 145l406 229z" />
<glyph unicode="&#xe3;" horiz-adv-x="1095" d="M535 287l30 176q-256 -43 -256 -182q0 -59 66 -62q51 0 160 68zM952 27q-102 -51 -225 -52q-172 0 -190 136q-162 -135 -334 -136q-96 0 -157.5 60.5t-61.5 152.5q0 348 610 451l2 10q4 25 4 41q0 66 -90 66q-49 0 -145 -31q-66 -20 -142 -55l-30 -15l-64 197 q283 162 537 162q154 0 225 -82q49 -53 49 -127q0 -57 -18 -154l-45 -262q-20 -115 -21 -129q0 -51 59 -51q-8 0 56 6zM995 1298q-166 -143 -291 -143q-43 0 -108.5 31t-122.5 31q-53 0 -151 -68l-87 129q147 129 273 129q43 0 109.5 -28.5t115.5 -28.5q74 0 176 75z" />
<glyph unicode="&#xe4;" horiz-adv-x="1095" d="M535 287l30 176q-256 -43 -256 -182q0 -59 66 -62q51 0 160 68zM952 27q-102 -51 -225 -52q-172 0 -190 136q-162 -135 -334 -136q-96 0 -157.5 60.5t-61.5 152.5q0 348 610 451l2 10q4 25 4 41q0 66 -90 66q-49 0 -145 -31q-66 -20 -142 -55l-30 -15l-64 197 q283 162 537 162q154 0 225 -82q49 -53 49 -127q0 -57 -18 -154l-45 -262q-20 -115 -21 -129q0 -51 59 -51q-8 0 56 6zM272 1253q0 76 47.5 123t120.5 47q55 0 92 -34.5t37 -85.5q0 -74 -47 -122t-116 -48q-55 0 -94.5 33.5t-39.5 86.5zM758 1253q0 76 47 123t121 47 q55 0 92 -34.5t37 -85.5q0 -74 -46 -122t-118 -48q-55 0 -94 33.5t-39 86.5z" />
<glyph unicode="&#xe5;" horiz-adv-x="1095" d="M535 287l30 176q-256 -43 -256 -182q0 -59 66 -62q51 0 160 68zM952 27q-102 -51 -225 -52q-172 0 -190 136q-162 -135 -334 -136q-96 0 -157.5 60.5t-61.5 152.5q0 348 610 451l2 10q4 25 4 41q0 66 -90 66q-49 0 -145 -31q-66 -20 -142 -55l-30 -15l-64 197 q283 162 537 162q154 0 225 -82q49 -53 49 -127q0 -57 -18 -154l-45 -262q-20 -115 -21 -129q0 -51 59 -51q-8 0 56 6zM834 1313q0 -96 -62.5 -162t-158.5 -66q-74 0 -126.5 45.5t-52.5 118.5q0 98 63.5 163t164.5 65q74 0 123 -47t49 -117zM715 1294q0 70 -70 70 q-92 0 -92 -96q0 -68 72 -68q39 -2 64.5 25.5t25.5 68.5z" />
<glyph unicode="&#xe6;" horiz-adv-x="1591" d="M1436 141q-258 -166 -490 -166q-252 0 -332 175q-223 -172 -401 -173q-104 0 -166.5 56.5t-62.5 163.5q0 350 604 413q4 31 4 62q0 80 -84 80q-104 0 -313 -97l-66 193q307 170 528 170q158 0 195 -94q135 96 307 96q158 0 252 -92t94 -246q0 -90 -20 -211l-10 -51h-596 q-2 -20 -2 -29q0 -168 167 -168q121 0 314 103zM1210 623q6 41 7 73q0 127 -103 127q-154 0 -199 -211zM563 293q-4 31 -4 61q0 41 6 80q-256 -27 -256 -160q0 -61 66 -61q55 0 188 80z" />
<glyph unicode="&#xe7;" horiz-adv-x="1034" d="M530 -16l-188 -332l-156 39l138 305q-135 37 -214 149.5t-79 266.5q0 274 162 436q172 170 477 168q197 -2 336 -86l-121 -205q-94 43 -207 43q-135 0 -216 -93t-81 -226q0 -203 186 -203q90 0 254 80l88 -189q-189 -133 -379 -153z" />
<glyph unicode="&#xe8;" horiz-adv-x="1114" d="M717 627q4 37 4 65q0 131 -109 131q-156 0 -204 -205zM967 150q-246 -176 -516 -177q-197 0 -309.5 114t-112.5 310q0 272 173 447q171 172 435 172h6q176 0 280.5 -99.5t104.5 -275.5q0 -80 -14 -154l-10 -57h-633q-4 -39 -4 -45q0 -162 170 -162q141 0 342 105z M889 1235l-90 -131l-435 190l107 172z" />
<glyph unicode="&#xe9;" horiz-adv-x="1114" d="M717 627q4 37 4 65q0 131 -109 131q-156 0 -204 -205zM967 150q-246 -176 -516 -177q-197 0 -309.5 114t-112.5 310q0 272 173 447q171 172 435 172h6q176 0 280.5 -99.5t104.5 -275.5q0 -80 -14 -154l-10 -57h-633q-4 -39 -4 -45q0 -162 170 -162q141 0 342 105z M901 1278l-492 -174l-49 141l484 221z" />
<glyph unicode="&#xea;" horiz-adv-x="1114" d="M717 627q4 37 4 65q0 131 -109 131q-156 0 -204 -205zM967 150q-246 -176 -516 -177q-197 0 -309.5 114t-112.5 310q0 272 173 447q171 172 435 172h6q176 0 280.5 -99.5t104.5 -275.5q0 -80 -14 -154l-10 -57h-633q-4 -39 -4 -45q0 -162 170 -162q141 0 342 105z M1034 1227l-104 -135l-267 151l-327 -151l-58 145l406 229z" />
<glyph unicode="&#xeb;" horiz-adv-x="1114" d="M717 627q4 37 4 65q0 131 -109 131q-156 0 -204 -205zM967 150q-246 -176 -516 -177q-197 0 -309.5 114t-112.5 310q0 272 173 447q171 172 435 172h6q176 0 280.5 -99.5t104.5 -275.5q0 -80 -14 -154l-10 -57h-633q-4 -39 -4 -45q0 -162 170 -162q141 0 342 105z M284 1253q0 76 47.5 123t120.5 47q55 0 92 -34.5t37 -85.5q0 -74 -47 -122t-116 -48q-55 0 -94.5 33.5t-39.5 86.5zM770 1253q0 76 47 123t121 47q55 0 92 -34.5t37 -85.5q0 -74 -46 -122t-118 -48q-55 0 -94 33.5t-39 86.5z" />
<glyph unicode="&#xec;" horiz-adv-x="585" d="M336 0h-326l174 987h326zM631 1235l-90 -131l-435 190l107 172z" />
<glyph unicode="&#xed;" horiz-adv-x="585" d="M336 0h-326l174 987h326zM637 1278l-492 -174l-49 141l484 221z" />
<glyph unicode="&#xee;" horiz-adv-x="585" d="M336 0h-326l174 987h326zM766 1227l-104 -135l-267 151l-327 -151l-58 145l406 229z" />
<glyph unicode="&#xef;" horiz-adv-x="585" d="M336 0h-326l174 987h326zM-11 1253q0 76 47.5 123t120.5 47q55 0 92 -34.5t37 -85.5q0 -74 -47 -122t-116 -48q-55 0 -94.5 33.5t-39.5 86.5zM475 1253q0 76 47 123t121 47q55 0 92 -34.5t37 -85.5q0 -74 -46 -122t-118 -48q-55 0 -94 33.5t-39 86.5z" />
<glyph unicode="&#xf0;" horiz-adv-x="1103" d="M25 399q0 266 147 445q160 188 424 188q96 0 188 -37q-16 106 -57 156l-250 -72l-24 154l125 35q-111 47 -289 71l67 191q369 -37 514 -164l224 66l30 -164l-151 -43q86 -145 84 -330q-2 -340 -148 -600q-176 -317 -493 -318q-184 0 -291 121q-100 115 -100 301zM766 743 q-82 59 -195 60q-135 0 -209 -127q-59 -104 -59 -250q0 -193 146 -193q135 0 227 201q57 129 90 309z" />
<glyph unicode="&#xf1;" horiz-adv-x="1214" d="M969 0h-328l90 512q16 94 17 129q0 74 -74 76h-3q-97 0 -231 -131l-104 -586h-326l174 987h314l-25 -137q186 168 386 168h5q102 0 168 -57.5t66 -159.5q0 -74 -21 -189zM1089 1298q-166 -143 -291 -143q-43 0 -108.5 31t-122.5 31q-53 0 -151 -68l-87 129 q147 129 273 129q43 0 109.5 -28.5t115.5 -28.5q74 0 176 75z" />
<glyph unicode="&#xf2;" horiz-adv-x="1204" d="M31 391q0 281 175 455t451 174q193 0 318 -113q131 -119 131 -309q0 -262 -162 -436q-172 -186 -455 -187q-197 0 -323 109q-135 112 -135 307zM756 573q0 195 -146 195q-106 0 -172 -119q-55 -100 -55 -215q0 -197 143 -198q2 0 4 -1q108 0 172 119q54 98 54 219z M936 1235l-90 -131l-435 190l107 172z" />
<glyph unicode="&#xf3;" horiz-adv-x="1204" d="M31 391q0 281 175 455t451 174q193 0 318 -113q131 -119 131 -309q0 -262 -162 -436q-172 -186 -455 -187q-197 0 -323 109q-135 112 -135 307zM756 573q0 195 -146 195q-106 0 -172 -119q-55 -100 -55 -215q0 -197 143 -198q2 0 4 -1q108 0 172 119q54 98 54 219z M961 1278l-492 -174l-49 141l484 221z" />
<glyph unicode="&#xf4;" horiz-adv-x="1204" d="M31 391q0 281 175 455t451 174q193 0 318 -113q131 -119 131 -309q0 -262 -162 -436q-172 -186 -455 -187q-197 0 -323 109q-135 112 -135 307zM756 573q0 195 -146 195q-106 0 -172 -119q-55 -100 -55 -215q0 -197 143 -198q2 0 4 -1q108 0 172 119q54 98 54 219z M1055 1227l-104 -135l-267 151l-327 -151l-58 145l406 229z" />
<glyph unicode="&#xf5;" horiz-adv-x="1204" d="M31 391q0 281 175 455t451 174q193 0 318 -113q131 -119 131 -309q0 -262 -162 -436q-172 -186 -455 -187q-197 0 -323 109q-135 112 -135 307zM756 573q0 195 -146 195q-106 0 -172 -119q-55 -100 -55 -215q0 -197 143 -198q2 0 4 -1q108 0 172 119q54 98 54 219z M1071 1298q-166 -143 -291 -143q-43 0 -108.5 31t-122.5 31q-53 0 -151 -68l-87 129q147 129 273 129q43 0 109.5 -28.5t115.5 -28.5q74 0 176 75z" />
<glyph unicode="&#xf6;" horiz-adv-x="1204" d="M31 391q0 281 175 455t451 174q193 0 318 -113q131 -119 131 -309q0 -262 -162 -436q-172 -186 -455 -187q-197 0 -323 109q-135 112 -135 307zM756 573q0 195 -146 195q-106 0 -172 -119q-55 -100 -55 -215q0 -197 143 -198q2 0 4 -1q108 0 172 119q54 98 54 219z M307 1253q0 76 47.5 123t120.5 47q55 0 92 -34.5t37 -85.5q0 -74 -47 -122t-116 -48q-55 0 -94.5 33.5t-39.5 86.5zM793 1253q0 76 47 123t121 47q55 0 92 -34.5t37 -85.5q0 -74 -46 -122t-118 -48q-55 0 -94 33.5t-39 86.5z" />
<glyph unicode="&#xf7;" d="M834 995q0 -76 -54.5 -131t-132.5 -55t-133 54.5t-55 131.5q0 78 55 133.5t133 55.5t132.5 -55.5t54.5 -133.5zM834 174q0 -78 -54.5 -133t-132.5 -55t-133 55t-55 133t55 132t133 54t132.5 -54t54.5 -132zM1153 475h-1024v219h1024v-219z" />
<glyph unicode="&#xf8;" horiz-adv-x="1206" d="M420 289q39 -53 106 -53q109 -2 174 116q55 98 56 217zM725 709q-39 59 -115 59q-106 0 -172 -119q-57 -100 -55 -215v-10zM1171 918l-120 -101q55 -96 55 -219q0 -262 -162 -436q-172 -186 -455 -187q-193 0 -319 105l-121 -103l-80 103l117 98q-55 92 -55 213 q0 281 175 455t451 174q186 0 312 -107l123 103z" />
<glyph unicode="&#xf9;" horiz-adv-x="1214" d="M963 0h-324l25 139q-184 -160 -355 -159q-127 0 -192 71q-63 66 -64 185q0 53 23 182l100 569h328l-98 -565q-8 -39 -9 -57q0 -80 76 -80q111 0 238 129l100 573h326zM938 1235l-90 -131l-435 190l107 172z" />
<glyph unicode="&#xfa;" horiz-adv-x="1214" d="M963 0h-324l25 139q-184 -160 -355 -159q-127 0 -192 71q-63 66 -64 185q0 53 23 182l100 569h328l-98 -565q-8 -39 -9 -57q0 -80 76 -80q111 0 238 129l100 573h326zM973 1278l-492 -174l-49 141l484 221z" />
<glyph unicode="&#xfb;" horiz-adv-x="1214" d="M963 0h-324l25 139q-184 -160 -355 -159q-127 0 -192 71q-63 66 -64 185q0 53 23 182l100 569h328l-98 -565q-8 -39 -9 -57q0 -80 76 -80q111 0 238 129l100 573h326zM1061 1227l-104 -135l-267 151l-327 -151l-58 145l406 229z" />
<glyph unicode="&#xfc;" horiz-adv-x="1214" d="M963 0h-324l25 139q-184 -160 -355 -159q-127 0 -192 71q-63 66 -64 185q0 53 23 182l100 569h328l-98 -565q-8 -39 -9 -57q0 -80 76 -80q111 0 238 129l100 573h326zM297 1253q0 76 47.5 123t120.5 47q55 0 92 -34.5t37 -85.5q0 -74 -47 -122t-116 -48q-55 0 -94.5 33.5 t-39.5 86.5zM783 1253q0 76 47 123t121 47q55 0 92 -34.5t37 -85.5q0 -74 -46 -122t-118 -48q-55 0 -94 33.5t-39 86.5z" />
<glyph unicode="&#xfd;" horiz-adv-x="1114" d="M1153 987l-610 -1096q-104 -188 -178 -262q-127 -127 -342 -129h-12q-111 0 -224 37l90 225q47 -8 94 -8q86 0 142 43q41 31 96 115l35 53l-209 1022h342l104 -653l340 653h332zM901 1278l-492 -174l-49 141l484 221z" />
<glyph unicode="&#xfe;" horiz-adv-x="1257" d="M809 551q0 84 -40 134t-105 50q-111 0 -218 -112l-49 -273q59 -106 185 -108q109 -2 172 104q55 90 55 205zM360 135l-106 -608h-326l340 1939h301l-108 -618q197 172 375 170q154 0 241 -111q84 -100 84 -256q0 -272 -123 -461q-139 -215 -381 -215q-211 0 -297 160z " />
<glyph unicode="&#xff;" horiz-adv-x="1114" d="M1153 987l-610 -1096q-104 -188 -178 -262q-127 -127 -342 -129h-12q-111 0 -224 37l90 225q47 -8 94 -8q86 0 142 43q41 31 96 115l35 53l-209 1022h342l104 -653l340 653h332zM229 1253q0 76 47.5 123t120.5 47q55 0 92 -34.5t37 -85.5q0 -74 -47 -122t-116 -48 q-55 0 -94.5 33.5t-39.5 86.5zM715 1253q0 76 47 123t121 47q55 0 92 -34.5t37 -85.5q0 -74 -46 -122t-118 -48q-55 0 -94 33.5t-39 86.5z" />
<glyph unicode="&#x131;" horiz-adv-x="585" d="M336 0h-326l174 987h326z" />
<glyph unicode="&#x152;" horiz-adv-x="2007" d="M899 272l145 830q-172 -6 -270 -33q-158 -43 -248 -178q-84 -127 -84 -299q0 -244 201 -297q76 -21 256 -23zM1784 0h-883q-229 0 -352 16q-215 29 -352.5 169.5t-137.5 344.5q0 315 187.5 535.5t490.5 269.5q190 31 516 31h736l-47 -264h-537l-49 -275h504l-45 -256 h-504l-51 -295h573z" />
<glyph unicode="&#x153;" horiz-adv-x="1765" d="M1655 471l-15 -49h-602q-2 -39 -2 -37q0 -156 164 -156q68 0 170 35q86 29 143 62l76 -187q-115 -72 -235 -114q-127 -45 -252 -45q-168 0 -277 124q-172 -129 -366 -129q-190 0 -309 124t-119 315q0 250 145 417q162 184 440 185q217 0 316 -139q168 141 375 141 q162 0 266 -102.5t104 -262.5q1 -88 -22 -182zM1370 621q4 31 4 57q0 127 -100 127q-63 0 -121 -53q-59 -59 -76 -144zM754 573q0 195 -146 195q-106 0 -172 -119q-57 -100 -57 -215q0 -197 145 -198q109 -2 174 118q56 98 56 219z" />
<glyph unicode="&#x178;" horiz-adv-x="1355" d="M1468 1366l-628 -776l-105 -590h-354l104 590l-358 776h451l165 -498l359 498h366zM469 1636q0 76 47.5 123t120.5 47q55 0 92 -34.5t37 -85.5q0 -74 -47 -122t-116 -48q-55 0 -94.5 33.5t-39.5 86.5zM955 1636q0 76 47 123t121 47q55 0 92 -34.5t37 -85.5 q0 -74 -46 -122t-118 -48q-55 0 -94 33.5t-39 86.5z" />
<glyph unicode="&#x2c6;" horiz-adv-x="974" d="M852 1227l-104 -135l-267 151l-327 -151l-58 145l406 229z" />
<glyph unicode="&#x2da;" horiz-adv-x="974" d="M502 1313q0 -96 -62.5 -162t-158.5 -66q-74 0 -126.5 45.5t-52.5 118.5q0 98 63.5 163t164.5 65q74 0 123 -47t49 -117zM383 1294q0 70 -70 70q-92 0 -92 -96q0 -68 72 -68q39 -2 64.5 25.5t25.5 68.5z" />
<glyph unicode="&#x2dc;" horiz-adv-x="974" d="M866 1298q-166 -143 -291 -143q-43 0 -108.5 31t-122.5 31q-53 0 -151 -68l-87 129q147 129 273 129q43 0 109.5 -28.5t115.5 -28.5q74 0 176 75z" />
<glyph unicode="&#x2000;" horiz-adv-x="935" />
<glyph unicode="&#x2001;" horiz-adv-x="1871" />
<glyph unicode="&#x2002;" horiz-adv-x="935" />
<glyph unicode="&#x2003;" horiz-adv-x="1871" />
<glyph unicode="&#x2004;" horiz-adv-x="622" />
<glyph unicode="&#x2005;" horiz-adv-x="466" />
<glyph unicode="&#x2006;" horiz-adv-x="311" />
<glyph unicode="&#x2007;" horiz-adv-x="311" />
<glyph unicode="&#x2008;" horiz-adv-x="233" />
<glyph unicode="&#x2009;" horiz-adv-x="372" />
<glyph unicode="&#x200a;" horiz-adv-x="102" />
<glyph unicode="&#x2010;" horiz-adv-x="657" d="M563 424h-561l45 254h561z" />
<glyph unicode="&#x2011;" horiz-adv-x="657" d="M563 424h-561l45 254h561z" />
<glyph unicode="&#x2012;" horiz-adv-x="657" d="M563 424h-561l45 254h561z" />
<glyph unicode="&#x2013;" horiz-adv-x="1126" d="M1028 453h-1022l35 198h1022z" />
<glyph unicode="&#x2014;" horiz-adv-x="2150" d="M2050 453h-2044l35 198h2044z" />
<glyph unicode="&#x2018;" horiz-adv-x="593" d="M461 852h-320l211 547h205z" />
<glyph unicode="&#x2019;" horiz-adv-x="593" d="M612 1399l-213 -547h-204l96 547h321z" />
<glyph unicode="&#x201a;" horiz-adv-x="663" d="M440 313l-213 -549h-204l96 549h321z" />
<glyph unicode="&#x201c;" horiz-adv-x="1003" d="M877 899h-318l203 500h203zM465 899h-315l202 500h201z" />
<glyph unicode="&#x201d;" horiz-adv-x="1003" d="M1020 1399l-203 -500h-203l88 500h318zM608 1399l-200 -500h-205l88 500h317z" />
<glyph unicode="&#x201e;" horiz-adv-x="1003" d="M827 313l-202 -501h-203l88 501h317zM416 313l-201 -501h-205l88 501h318z" />
<glyph unicode="&#x2022;" horiz-adv-x="1366" d="M967 694q0 -117 -83 -200.5t-200 -83.5q-119 0 -202 82.5t-83 201.5q0 115 83 199t198 84q121 0 204 -82t83 -201z" />
<glyph unicode="&#x2026;" horiz-adv-x="2050" d="M16 139q0 94 60.5 155.5t154.5 61.5q72 0 119 -45t47 -110q0 -94 -59 -156.5t-152 -62.5q-72 0 -121 42.5t-49 114.5zM670 139q0 94 60.5 155.5t154.5 61.5q72 0 119 -45t47 -110q0 -94 -59.5 -156.5t-151.5 -62.5q-72 0 -121 42.5t-49 114.5zM1323 139q0 94 60.5 155.5 t154.5 61.5q72 0 119 -45t47 -110q0 -94 -59.5 -156.5t-151.5 -62.5q-72 0 -121 42.5t-49 114.5z" />
<glyph unicode="&#x202f;" horiz-adv-x="372" />
<glyph unicode="&#x2039;" horiz-adv-x="600" d="M410 211l-183 -105l-211 408l344 389l162 -100l-227 -289z" />
<glyph unicode="&#x203a;" horiz-adv-x="585" d="M115 799l182 104l211 -389l-342 -408l-164 101l227 307z" />
<glyph unicode="&#x205f;" horiz-adv-x="466" />
<glyph unicode="&#x20ac;" d="M1169 135q-221 -164 -479 -164q-225 0 -360 111q-145 119 -158 340h-199l35 209h178v4q0 16 9 55q2 20 14 58h-178l37 215h213q174 426 610 426q272 0 461 -158l-187 -191q-127 94 -250 93q-174 -2 -274 -170h444l-36 -215h-488q-6 -14 -14 -56.5t-8 -56.5v-4h487 l-35 -209h-467q16 -199 201 -199q137 0 315 105z" />
<glyph unicode="&#x2122;" horiz-adv-x="1738" d="M1712 590h-229l-47 385l-131 -385h-199l-139 385l-37 -385h-219l100 778h242l161 -442l146 442h237zM733 1208h-231v-618h-238v618h-237v160h706v-160z" />
<glyph unicode="&#xe000;" horiz-adv-x="985" d="M0 985h985v-985h-985v985z" />
<glyph unicode="&#xfb01;" horiz-adv-x="1404" d="M1155 0h-326l174 987h326zM1032 1231q0 92 58.5 150.5t148.5 58.5q68 0 113 -43t45 -107q0 -90 -57.5 -149.5t-143.5 -59.5q-70 0 -117 41t-47 109zM1028 1456l-88 -221q-63 8 -100 8q-125 0 -176.5 -49t-75.5 -182l-4 -25h264l-37 -211h-264l-137 -776h-328l137 776 h-188l37 211h188l12 64q41 231 165 334.5t368 103.5q121 0 227 -33z" />
<glyph unicode="&#xfb02;" horiz-adv-x="1411" d="M1161 0h-332l258 1466h332zM1028 1456l-88 -221q-63 8 -100 8q-125 0 -176.5 -49t-75.5 -182l-4 -25h264l-37 -211h-264l-137 -776h-328l137 776h-188l37 211h188l12 64q41 231 165 334.5t368 103.5q121 0 227 -33z" />
<glyph unicode="&#xfb03;" horiz-adv-x="2224" d="M1974 0h-326l174 987h326zM1851 1231q0 92 58.5 150.5t148.5 58.5q68 0 113 -43t45 -107q0 -90 -57.5 -149.5t-143.5 -59.5q-70 0 -117 41t-47 109zM1847 1456l-88 -221q-63 8 -100 8q-125 0 -176.5 -49t-75.5 -182l-4 -25h264l-37 -211h-264l-137 -776h-328l137 776 h-188l37 211h188l12 64q41 231 165 334.5t368 103.5q121 0 227 -33zM1028 1456l-88 -221q-63 8 -100 8q-125 0 -176.5 -49t-75.5 -182l-4 -25h264l-37 -211h-264l-137 -776h-328l137 776h-188l37 211h188l12 64q41 231 165 334.5t368 103.5q121 0 227 -33z" />
<glyph unicode="&#xfb04;" horiz-adv-x="2230" d="M1980 0h-332l258 1466h332zM1847 1456l-88 -221q-63 8 -100 8q-125 0 -176.5 -49t-75.5 -182l-4 -25h264l-37 -211h-264l-137 -776h-328l137 776h-188l37 211h188l12 64q41 231 165 334.5t368 103.5q121 0 227 -33zM1028 1456l-88 -221q-63 8 -100 8q-125 0 -176.5 -49 t-75.5 -182l-4 -25h264l-37 -211h-264l-137 -776h-328l137 776h-188l37 211h188l12 64q41 231 165 334.5t368 103.5q121 0 227 -33z" />
</font>
</defs>
</svg>
