<?xml version="1.0" encoding="utf-8"?>
<!-- Generator: Adobe Illustrator 16.0.3, SVG Export Plug-In . SVG Version: 6.00 Build 0)  -->
<!DOCTYPE svg PUBLIC "-//W3C//DTD SVG 1.1//EN" "http://www.w3.org/Graphics/SVG/1.1/DTD/svg11.dtd">
<svg version="1.1" id="Layer_2" xmlns="http://www.w3.org/2000/svg" xmlns:xlink="http://www.w3.org/1999/xlink" x="0px" y="0px"
	 width="274.468px" height="140px" viewBox="0 0 274.468 140" enable-background="new 0 0 274.468 140" xml:space="preserve">
<circle fill="#59B6B2" cx="6.56" cy="91.179" r="3.88"/>
<circle fill="#59B6B2" cx="22.595" cy="118.315" r="3.88"/>
<circle fill="#59B6B2" cx="37.792" cy="73.944" r="3.88"/>
<circle fill="#59B6B2" cx="54.147" cy="54.245" r="3.88"/>
<circle fill="#59B6B2" cx="36.935" cy="45.306" r="3.88"/>
<circle fill="#59B6B2" cx="45.874" cy="34.009" r="3.88"/>
<circle fill="#59B6B2" cx="55.992" cy="34.009" r="3.88"/>
<circle fill="#59B6B2" cx="36.591" cy="136.194" r="3.88"/>
<circle fill="#59B6B2" cx="21.415" cy="141.146" r="3.88"/>
<circle fill="#59B6B2" cx="5.06" cy="144.169" r="3.88"/>
<circle fill="#59B6B2" cx="16.035" cy="162.046" r="3.88"/>
<circle fill="#59B6B2" cx="28.639" cy="158.81" r="3.88"/>
<circle fill="#59B6B2" cx="75.583" cy="143.29" r="3.88"/>
<circle fill="#59B6B2" cx="38.006" cy="101.617" r="5.809"/>
<circle fill="#59B6B2" cx="61.586" cy="157.31" r="5.81"/>
<circle fill="#59B6B2" cx="78.606" cy="40.567" r="5.81"/>
<circle fill="#59B6B2" cx="21.094" cy="67.384" r="5.059"/>
<circle fill="#59B6B2" cx="29.174" cy="54.029" r="5.059"/>
<circle fill="#59B6B2" cx="20.235" cy="96.559" r="5.059"/>
<circle fill="#59B6B2" cx="5.06" cy="162.689" r="5.059"/>
<circle fill="#59B6B2" cx="75.906" cy="163.868" r="3.022"/>
<circle fill="#59B6B2" cx="75.583" cy="152.549" r="3.021"/>
<circle fill="#59B6B2" cx="63.086" cy="143.632" r="3.022"/>
<circle fill="#59B6B2" cx="35.413" cy="163.547" r="3.021"/>
<circle fill="#59B6B2" cx="3.858" cy="152.549" r="3.021"/>
<circle fill="#59B6B2" cx="21.415" cy="155.145" r="3.021"/>
<circle fill="#59B6B2" cx="18.179" cy="148.691" r="3.021"/>
<circle fill="#59B6B2" cx="18.179" cy="131.994" r="3.023"/>
<circle fill="#59B6B2" cx="24.438" cy="126.612" r="3.022"/>
<circle fill="#59B6B2" cx="25.294" cy="134.693" r="3.021"/>
<circle fill="#59B6B2" cx="30.033" cy="147.492" r="3.023"/>
<circle fill="#59B6B2" cx="40.472" cy="143.847" r="3.022"/>
<circle fill="#59B6B2" cx="41.994" cy="114.972" r="3.023"/>
<circle fill="#59B6B2" cx="30.676" cy="117.137" r="3.022"/>
<circle fill="#59B6B2" cx="34.233" cy="111.415" r="3.022"/>
<circle fill="#59B6B2" cx="24.117" cy="106.676" r="3.022"/>
<circle fill="#59B6B2" cx="3.858" cy="106.355" r="3.023"/>
<circle fill="#59B6B2" cx="53.827" cy="105.176" r="3.022"/>
<circle fill="#59B6B2" cx="60.192" cy="95.38" r="3.022"/>
<circle fill="#59B6B2" cx="50.61" cy="91.821" r="3.022"/>
<circle fill="#59B6B2" cx="44.673" cy="94.736" r="3.021"/>
<circle fill="#59B6B2" cx="41.672" cy="88.156" r="3.023"/>
<circle fill="#59B6B2" cx="27.674" cy="81.382" r="3.023"/>
<circle fill="#59B6B2" cx="29.497" cy="88.82" r="3.021"/>
<circle fill="#59B6B2" cx="38.436" cy="54.245" r="3.022"/>
<circle fill="#59B6B2" cx="44.031" cy="48.649" r="3.022"/>
<circle fill="#59B6B2" cx="19.915" cy="56.387" r="3.023"/>
<circle fill="#59B6B2" cx="37.471" cy="35.831" r="3.022"/>
<circle fill="#59B6B2" cx="70.311" cy="34.973" r="3.022"/>
<circle fill="#59B6B2" cx="58.027" cy="47.127" r="3.022"/>
<circle fill="#59B6B2" cx="32.733" cy="67.707" r="3.023"/>
<circle fill="#59B6B2" cx="18.179" cy="76.859" r="3.021"/>
<circle fill="#59B6B2" cx="35.413" cy="83.74" r="3.021"/>
<circle fill="#59B6B2" cx="69.347" cy="60.482" r="2.379"/>
<circle fill="#59B6B2" cx="73.227" cy="54.887" r="2.379"/>
<circle fill="#59B6B2" cx="62.229" cy="54.887" r="2.379"/>
<circle fill="#59B6B2" cx="68.468" cy="49.828" r="2.379"/>
<circle fill="#59B6B2" cx="59.549" cy="39.711" r="2.379"/>
<circle fill="#59B6B2" cx="63.944" cy="33.451" r="2.379"/>
<circle fill="#59B6B2" cx="64.288" cy="44.77" r="2.379"/>
<circle fill="#59B6B2" cx="51.79" cy="47.127" r="2.379"/>
<circle fill="#59B6B2" cx="51.79" cy="40.567" r="2.379"/>
<circle fill="#59B6B2" cx="46.73" cy="42.947" r="2.379"/>
<circle fill="#59B6B2" cx="32.198" cy="39.389" r="2.379"/>
<circle fill="#59B6B2" cx="45.531" cy="55.209" r="2.379"/>
<circle fill="#59B6B2" cx="48.768" cy="59.946" r="2.379"/>
<circle fill="#59B6B2" cx="42.53" cy="59.946" r="2.379"/>
<circle fill="#59B6B2" cx="36.271" cy="61.146" r="2.379"/>
<circle fill="#59B6B2" cx="27.674" cy="62.325" r="2.379"/>
<circle fill="#59B6B2" cx="29.817" cy="73.943" r="2.379"/>
<circle fill="#59B6B2" cx="19.058" cy="84.404" r="2.379"/>
<circle fill="#59B6B2" cx="13.998" cy="89.678" r="2.379"/>
<circle fill="#59B6B2" cx="23.259" cy="88.479" r="2.379"/>
<circle fill="#59B6B2" cx="41.351" cy="80.523" r="2.379"/>
<circle fill="#59B6B2" cx="40.792" cy="66.205" r="2.379"/>
<circle fill="#59B6B2" cx="65.251" cy="89.463" r="2.379"/>
<circle fill="#59B6B2" cx="66.109" cy="99.796" r="2.38"/>
<circle fill="#59B6B2" cx="61.908" cy="107.449" r="2.379"/>
<circle fill="#59B6B2" cx="53.827" cy="97.758" r="2.379"/>
<circle fill="#59B6B2" cx="36.271" cy="91.5" r="2.379"/>
<circle fill="#59B6B2" cx="29.497" cy="95.916" r="2.379"/>
<circle fill="#59B6B2" cx="28.853" cy="101.939" r="2.379"/>
<circle fill="#59B6B2" cx="11.619" cy="96.56" r="2.38"/>
<circle fill="#59B6B2" cx="5.06" cy="98.938" r="2.379"/>
<circle fill="#59B6B2" cx="16.678" cy="106.355" r="2.379"/>
<circle fill="#59B6B2" cx="39.615" cy="123.377" r="2.379"/>
<circle fill="#59B6B2" cx="34.556" cy="128.648" r="2.379"/>
<circle fill="#59B6B2" cx="18.179" cy="124.553" r="2.379"/>
<circle fill="#59B6B2" cx="45.208" cy="132.314" r="2.379"/>
<circle fill="#59B6B2" cx="44.995" cy="138.768" r="2.379"/>
<circle fill="#59B6B2" cx="13.12" cy="141.789" r="2.379"/>
<circle fill="#59B6B2" cx="28.853" cy="139.967" r="2.379"/>
<circle fill="#59B6B2" cx="51.469" cy="146.526" r="2.379"/>
<circle fill="#59B6B2" cx="44.995" cy="149.549" r="2.379"/>
<circle fill="#59B6B2" cx="57.17" cy="148.371" r="2.379"/>
<circle fill="#59B6B2" cx="69.347" cy="146.848" r="2.379"/>
<circle fill="#59B6B2" cx="71.168" cy="158.166" r="2.379"/>
<circle fill="#59B6B2" cx="69.024" cy="164.725" r="2.379"/>
<circle fill="#59B6B2" cx="46.73" cy="161.381" r="2.379"/>
<circle fill="#59B6B2" cx="52.111" cy="158.811" r="2.379"/>
<circle fill="#59B6B2" cx="46.73" cy="155.145" r="2.379"/>
<circle fill="#59B6B2" cx="41.115" cy="159.346" r="2.379"/>
<circle fill="#59B6B2" cx="36.271" cy="151.371" r="2.379"/>
<circle fill="#59B6B2" cx="15.177" cy="153.965" r="2.379"/>
<circle fill="#59B6B2" cx="23.259" cy="164.082" r="2.379"/>
<circle fill="#59B6B2" cx="55.992" cy="164.725" r="2.379"/>
<circle fill="#59B6B2" cx="46.41" cy="107.02" r="2.379"/>
<circle fill="#59B6B2" cx="10.976" cy="107.234" r="2.38"/>
<circle fill="#59B6B2" cx="73.227" cy="49.506" r="1.822"/>
<circle fill="#59B6B2" cx="78.606" cy="48.971" r="1.822"/>
<circle fill="#59B6B2" cx="67.825" cy="55.422" r="1.822"/>
<circle fill="#59B6B2" cx="63.729" cy="50.15" r="1.822"/>
<circle fill="#59B6B2" cx="70.847" cy="44.449" r="1.822"/>
<circle fill="#59B6B2" cx="66.967" cy="40.246" r="1.822"/>
<circle fill="#59B6B2" cx="41.994" cy="39.71" r="1.822"/>
<circle fill="#59B6B2" cx="27.332" cy="42.605" r="1.822"/>
<circle fill="#59B6B2" cx="30.354" cy="46.376" r="1.822"/>
<circle fill="#59B6B2" cx="23.581" cy="48.328" r="1.822"/>
<circle fill="#59B6B2" cx="45.874" cy="65.541" r="1.822"/>
<circle fill="#59B6B2" cx="24.76" cy="75.68" r="1.822"/>
<circle fill="#59B6B2" cx="9.261" cy="102.817" r="1.822"/>
<circle fill="#59B6B2" cx="14.319" cy="101.619" r="1.822"/>
<circle fill="#59B6B2" cx="47.374" cy="87.298" r="1.822"/>
<circle fill="#59B6B2" cx="56.849" cy="90.643" r="1.822"/>
<circle fill="#59B6B2" cx="60.729" cy="87.941" r="1.822"/>
<circle fill="#59B6B2" cx="66.967" cy="94.736" r="1.822"/>
<circle fill="#59B6B2" cx="59.549" cy="101.619" r="1.822"/>
<circle fill="#59B6B2" cx="68.146" cy="108.199" r="1.822"/>
<circle fill="#59B6B2" cx="49.732" cy="98.939" r="1.822"/>
<circle fill="#59B6B2" cx="46.41" cy="102.496" r="1.822"/>
<circle fill="#59B6B2" cx="29.174" cy="108.199" r="1.822"/>
<circle fill="#59B6B2" cx="26.152" cy="112.615" r="1.822"/>
<circle fill="#59B6B2" cx="20.878" cy="111.756" r="1.822"/>
<circle fill="#59B6B2" cx="17.213" cy="115.294" r="1.821"/>
<circle fill="#59B6B2" cx="41.115" cy="109.378" r="1.822"/>
<circle fill="#59B6B2" cx="36.591" cy="117.673" r="1.822"/>
<circle fill="#59B6B2" cx="30.354" cy="123.912" r="1.822"/>
<circle fill="#59B6B2" cx="29.817" cy="128.649" r="1.822"/>
<circle fill="#59B6B2" cx="31.211" cy="132.85" r="1.822"/>
<circle fill="#59B6B2" cx="39.615" cy="130.17" r="1.822"/>
<circle fill="#59B6B2" cx="45.531" cy="126.613" r="1.822"/>
<circle fill="#59B6B2" cx="44.995" cy="121.018" r="1.822"/>
<circle fill="#59B6B2" cx="12.477" cy="147.383" r="1.822"/>
<circle fill="#59B6B2" cx="9.261" cy="155.787" r="1.822"/>
<circle fill="#59B6B2" cx="24.76" cy="147.492" r="1.822"/>
<circle fill="#59B6B2" cx="27.332" cy="152.551" r="1.822"/>
<circle fill="#59B6B2" cx="33.376" cy="142.324" r="1.822"/>
<circle fill="#59B6B2" cx="35.413" cy="146.848" r="1.822"/>
<circle fill="#59B6B2" cx="35.734" cy="157.63" r="1.822"/>
<circle fill="#59B6B2" cx="41.115" cy="153.858" r="1.822"/>
<circle fill="#59B6B2" cx="29.174" cy="165.583" r="1.822"/>
<circle fill="#59B6B2" cx="41.672" cy="165.047" r="1.822"/>
<circle fill="#59B6B2" cx="50.61" cy="164.727" r="1.822"/>
<circle fill="#59B6B2" cx="63.729" cy="165.583" r="1.822"/>
<circle fill="#59B6B2" cx="77.084" cy="158.166" r="1.822"/>
<circle fill="#59B6B2" cx="69.024" cy="153.107" r="1.822"/>
<circle fill="#59B6B2" cx="69.667" cy="140.609" r="1.822"/>
<circle fill="#59B6B2" cx="57.707" cy="142.111" r="1.822"/>
<circle fill="#59B6B2" cx="63.086" cy="149.014" r="1.822"/>
<circle fill="#59B6B2" cx="50.933" cy="141.253" r="1.822"/>
<circle fill="#59B6B2" cx="51.469" cy="152.551" r="1.822"/>
<circle fill="#59B6B2" cx="214.812" cy="126.612" r="2.379"/>
<circle fill="#59B6B2" cx="217.728" cy="132.528" r="2.379"/>
<circle fill="#59B6B2" cx="241.626" cy="132.85" r="2.379"/>
<circle fill="#59B6B2" cx="243.58" cy="122.088" r="2.379"/>
<circle fill="#59B6B2" cx="199.957" cy="133.708" r="2.379"/>
<circle fill="#59B6B2" cx="191.769" cy="132.85" r="2.379"/>
<circle fill="#59B6B2" cx="189.41" cy="127.256" r="2.379"/>
<circle fill="#59B6B2" cx="189.41" cy="115.401" r="2.38"/>
<circle fill="#59B6B2" cx="196.849" cy="101.939" r="2.379"/>
<circle fill="#59B6B2" cx="201.242" cy="90.857" r="2.379"/>
<circle fill="#59B6B2" cx="207.501" cy="85.477" r="2.379"/>
<circle fill="#59B6B2" cx="123.28" cy="62.647" r="2.379"/>
<circle fill="#59B6B2" cx="96.592" cy="70.063" r="2.379"/>
<circle fill="#59B6B2" cx="112.197" cy="51.864" r="2.379"/>
<circle fill="#59B6B2" cx="109.947" cy="41.104" r="2.379"/>
<circle fill="#59B6B2" cx="120.813" cy="35.83" r="2.379"/>
<circle fill="#59B6B2" cx="126.944" cy="39.924" r="2.379"/>
<circle fill="#59B6B2" cx="142.787" cy="33.131" r="2.379"/>
<circle fill="#59B6B2" cx="139.228" cy="40.996" r="2.379"/>
<circle fill="#59B6B2" cx="140.298" cy="55.209" r="2.379"/>
<circle fill="#59B6B2" cx="145.359" cy="60.375" r="2.379"/>
<circle fill="#59B6B2" cx="148.488" cy="70.942" r="2.379"/>
<circle fill="#59B6B2" cx="153.761" cy="66.635" r="2.379"/>
<circle fill="#59B6B2" cx="157.105" cy="36.045" r="2.379"/>
<circle fill="#59B6B2" cx="161.308" cy="57.481" r="2.379"/>
<circle fill="#59B6B2" cx="147.095" cy="77.18" r="2.379"/>
<circle fill="#59B6B2" cx="145.359" cy="84.404" r="2.379"/>
<circle fill="#59B6B2" cx="170.138" cy="65.99" r="2.379"/>
<circle fill="#59B6B2" cx="165.83" cy="70.942" r="2.379"/>
<circle fill="#59B6B2" cx="167.759" cy="78.146" r="2.379"/>
<circle fill="#59B6B2" cx="155.82" cy="79.453" r="2.379"/>
<circle fill="#59B6B2" cx="160.986" cy="82.67" r="2.379"/>
<circle fill="#59B6B2" cx="161.951" cy="89.678" r="2.379"/>
<circle fill="#59B6B2" cx="148.166" cy="98.188" r="2.379"/>
<circle fill="#59B6B2" cx="157.535" cy="105.498" r="2.379"/>
<circle fill="#59B6B2" cx="141.929" cy="107.234" r="2.38"/>
<circle fill="#59B6B2" cx="123.836" cy="109.592" r="2.379"/>
<circle fill="#59B6B2" cx="115.97" cy="119.389" r="2.379"/>
<circle fill="#59B6B2" cx="114.791" cy="126.184" r="2.379"/>
<circle fill="#59B6B2" cx="108.853" cy="125.969" r="2.379"/>
<circle fill="#59B6B2" cx="113.055" cy="131.885" r="2.379"/>
<circle fill="#59B6B2" cx="129.646" cy="129.506" r="2.379"/>
<circle fill="#59B6B2" cx="134.92" cy="123.697" r="2.379"/>
<circle fill="#59B6B2" cx="130.933" cy="136.301" r="2.379"/>
<circle fill="#59B6B2" cx="119.42" cy="141.146" r="2.379"/>
<circle fill="#59B6B2" cx="114.684" cy="145.991" r="2.379"/>
<circle fill="#59B6B2" cx="130.933" cy="150.941" r="2.379"/>
<circle fill="#59B6B2" cx="108.853" cy="157.073" r="2.379"/>
<circle fill="#59B6B2" cx="136.526" cy="159.346" r="2.379"/>
<circle fill="#59B6B2" cx="141.585" cy="155.037" r="2.379"/>
<circle fill="#59B6B2" cx="141.478" cy="162.688" r="2.379"/>
<circle fill="#59B6B2" cx="146.453" cy="158.811" r="2.379"/>
<circle fill="#59B6B2" cx="145.787" cy="145.884" r="2.38"/>
<circle fill="#59B6B2" cx="150.847" cy="141.467" r="2.379"/>
<circle fill="#59B6B2" cx="151.832" cy="148.906" r="2.379"/>
<circle fill="#59B6B2" cx="163.343" cy="149.229" r="2.379"/>
<circle fill="#59B6B2" cx="166.152" cy="154.715" r="2.379"/>
<circle fill="#59B6B2" cx="172.925" cy="153.537" r="2.379"/>
<circle fill="#59B6B2" cx="161.951" cy="158.061" r="2.379"/>
<circle fill="#59B6B2" cx="163.773" cy="164.189" r="2.379"/>
<circle fill="#59B6B2" cx="161.951" cy="41.104" r="2.379"/>
<circle fill="#59B6B2" cx="199.957" cy="76.002" r="2.379"/>
<circle fill="#59B6B2" cx="201.585" cy="68.672" r="2.379"/>
<circle fill="#59B6B2" cx="191.447" cy="68.563" r="2.379"/>
<circle fill="#59B6B2" cx="193.826" cy="58.125" r="2.379"/>
<circle fill="#59B6B2" cx="205.445" cy="51.437" r="2.38"/>
<circle fill="#59B6B2" cx="209.646" cy="38.188" r="2.379"/>
<circle fill="#59B6B2" cx="220.32" cy="32.379" r="2.379"/>
<circle fill="#59B6B2" cx="215.583" cy="36.688" r="2.379"/>
<circle fill="#59B6B2" cx="220.962" cy="38.854" r="2.379"/>
<circle fill="#59B6B2" cx="232.796" cy="32.379" r="2.379"/>
<circle fill="#59B6B2" cx="232.582" cy="40.031" r="2.379"/>
<circle fill="#59B6B2" cx="234.318" cy="54.03" r="2.379"/>
<circle fill="#59B6B2" cx="237.32" cy="59.195" r="2.379"/>
<circle fill="#59B6B2" cx="247.781" cy="65.005" r="2.38"/>
<circle fill="#59B6B2" cx="264.994" cy="56.066" r="2.379"/>
<circle fill="#59B6B2" cx="260.814" cy="50.687" r="2.379"/>
<circle fill="#59B6B2" cx="255.734" cy="80.523" r="2.379"/>
<circle fill="#59B6B2" cx="249.496" cy="78.039" r="2.379"/>
<circle fill="#59B6B2" cx="261.779" cy="81.705" r="2.379"/>
<circle fill="#59B6B2" cx="269.41" cy="108.198" r="2.379"/>
<circle fill="#59B6B2" cx="264.779" cy="103.141" r="2.379"/>
<circle fill="#59B6B2" cx="258.648" cy="103.998" r="2.379"/>
<circle fill="#59B6B2" cx="261.886" cy="97.094" r="2.379"/>
<circle fill="#59B6B2" cx="262.636" cy="109.379" r="2.379"/>
<circle fill="#59B6B2" cx="267.373" cy="116.172" r="2.379"/>
<circle fill="#59B6B2" cx="270.609" cy="123.59" r="2.379"/>
<circle fill="#59B6B2" cx="254.662" cy="116.496" r="2.379"/>
<circle fill="#59B6B2" cx="256.398" cy="124.232" r="2.379"/>
<circle fill="#59B6B2" cx="259.935" cy="130.492" r="2.379"/>
<circle fill="#59B6B2" cx="254.875" cy="135.873" r="2.379"/>
<circle fill="#59B6B2" cx="260.814" cy="148.691" r="2.379"/>
<circle fill="#59B6B2" cx="255.734" cy="145.67" r="2.379"/>
<circle fill="#59B6B2" cx="245.402" cy="147.063" r="2.379"/>
<circle fill="#59B6B2" cx="239.376" cy="144.813" r="2.379"/>
<circle fill="#59B6B2" cx="213.955" cy="107.555" r="2.379"/>
<circle fill="#59B6B2" cx="205.765" cy="116.815" r="2.38"/>
<circle fill="#59B6B2" cx="215.906" cy="79.324" r="2.379"/>
<circle fill="#59B6B2" cx="218.263" cy="145.348" r="2.379"/>
<circle fill="#59B6B2" cx="225.701" cy="149.656" r="2.379"/>
<circle fill="#59B6B2" cx="206.966" cy="158.811" r="2.379"/>
<circle fill="#59B6B2" cx="230.224" cy="158.811" r="2.379"/>
<circle fill="#59B6B2" cx="235.498" cy="154.287" r="2.379"/>
<circle fill="#59B6B2" cx="212.24" cy="146.848" r="2.379"/>
<circle fill="#59B6B2" cx="240.876" cy="157.309" r="2.379"/>
<circle fill="#59B6B2" cx="245.617" cy="162.047" r="2.379"/>
<circle fill="#59B6B2" cx="235.283" cy="160.846" r="2.379"/>
<circle fill="#59B6B2" cx="250.673" cy="103.998" r="2.379"/>
<circle fill="#59B6B2" cx="244.437" cy="104.319" r="2.379"/>
<circle fill="#59B6B2" cx="217.082" cy="61.467" r="2.379"/>
<circle fill="#59B6B2" cx="198.027" cy="111.415" r="5.06"/>
<circle fill="#59B6B2" cx="209.001" cy="131.671" r="5.06"/>
<circle fill="#59B6B2" cx="214.705" cy="161.381" r="5.059"/>
<circle fill="#59B6B2" cx="263.814" cy="139.753" r="5.06"/>
<circle fill="#59B6B2" cx="245.617" cy="112.614" r="5.06"/>
<circle fill="#59B6B2" cx="256.398" cy="88.82" r="5.059"/>
<circle fill="#59B6B2" cx="266.515" cy="66.742" r="5.059"/>
<circle fill="#59B6B2" cx="243.9" cy="47.127" r="5.059"/>
<circle fill="#59B6B2" cx="217.728" cy="52.208" r="5.059"/>
<circle fill="#59B6B2" cx="209.968" cy="66.526" r="5.06"/>
<circle fill="#59B6B2" cx="115.97" cy="67.707" r="5.059"/>
<circle fill="#59B6B2" cx="124.159" cy="53.279" r="5.059"/>
<circle fill="#59B6B2" cx="149.666" cy="48.328" r="5.059"/>
<circle fill="#59B6B2" cx="170.138" cy="55.959" r="5.059"/>
<circle fill="#59B6B2" cx="132.326" cy="101.617" r="5.059"/>
<circle fill="#59B6B2" cx="170.138" cy="145.348" r="5.059"/>
<circle fill="#59B6B2" cx="98.95" cy="162.903" r="5.06"/>
<circle fill="#59B6B2" cx="122.101" cy="158.594" r="5.059"/>
<circle fill="#59B6B2" cx="225.378" cy="44.234" r="3.88"/>
<circle fill="#59B6B2" cx="189.947" cy="77.181" r="3.88"/>
<circle fill="#59B6B2" cx="197.707" cy="84.404" r="3.88"/>
<circle fill="#59B6B2" cx="208.789" cy="93.001" r="3.88"/>
<circle fill="#59B6B2" cx="189.087" cy="99.259" r="3.88"/>
<circle fill="#59B6B2" cx="123.28" cy="117.459" r="3.88"/>
<circle fill="#59B6B2" cx="121.886" cy="126.827" r="3.88"/>
<circle fill="#59B6B2" cx="109.282" cy="139.324" r="3.88"/>
<circle fill="#59B6B2" cx="98.95" cy="140.824" r="3.88"/>
<circle fill="#59B6B2" cx="121.351" cy="148.262" r="3.879"/>
<circle fill="#59B6B2" cx="154.083" cy="155.681" r="3.88"/>
<circle fill="#59B6B2" cx="171.103" cy="162.903" r="3.88"/>
<circle fill="#59B6B2" cx="151.724" cy="112.4" r="3.88"/>
<circle fill="#59B6B2" cx="161.951" cy="98.616" r="3.88"/>
<circle fill="#59B6B2" cx="153.761" cy="87.298" r="3.88"/>
<circle fill="#59B6B2" cx="160.986" cy="65.112" r="3.879"/>
<circle fill="#59B6B2" cx="174.019" cy="73.087" r="3.88"/>
<circle fill="#59B6B2" cx="165.187" cy="47.234" r="3.879"/>
<circle fill="#59B6B2" cx="149.347" cy="37.652" r="3.88"/>
<circle fill="#59B6B2" cx="132.004" cy="45.734" r="3.88"/>
<circle fill="#59B6B2" cx="104.759" cy="46.484" r="3.879"/>
<circle fill="#59B6B2" cx="99.7" cy="62.111" r="3.88"/>
<circle fill="#59B6B2" cx="197.707" cy="146.204" r="3.88"/>
<circle fill="#59B6B2" cx="242.722" cy="37.009" r="3.88"/>
<circle fill="#59B6B2" cx="256.398" cy="44.234" r="3.88"/>
<circle fill="#59B6B2" cx="247.781" cy="86.12" r="3.88"/>
<circle fill="#59B6B2" cx="267.373" cy="76.322" r="3.88"/>
<circle fill="#59B6B2" cx="267.05" cy="129.72" r="3.88"/>
<circle fill="#59B6B2" cx="248.316" cy="132.851" r="3.88"/>
<circle fill="#59B6B2" cx="247.781" cy="154.286" r="3.88"/>
<circle fill="#59B6B2" cx="203.728" cy="43.911" r="3.88"/>
<circle fill="#59B6B2" cx="202.765" cy="125.09" r="2.916"/>
<circle fill="#59B6B2" cx="196.503" cy="128.436" r="2.916"/>
<circle fill="#59B6B2" cx="195.648" cy="120.696" r="2.915"/>
<circle fill="#59B6B2" cx="213.205" cy="115.188" r="2.915"/>
<circle fill="#59B6B2" cx="143.964" cy="112.614" r="2.916"/>
<circle fill="#59B6B2" cx="137.406" cy="114.65" r="2.916"/>
<circle fill="#59B6B2" cx="131.254" cy="118.316" r="2.916"/>
<circle fill="#59B6B2" cx="130.396" cy="110.771" r="2.916"/>
<circle fill="#59B6B2" cx="140.943" cy="120.91" r="2.915"/>
<circle fill="#59B6B2" cx="147.845" cy="105.604" r="2.915"/>
<circle fill="#59B6B2" cx="139.441" cy="95.166" r="2.916"/>
<circle fill="#59B6B2" cx="146.453" cy="91.285" r="2.916"/>
<circle fill="#59B6B2" cx="154.832" cy="95.166" r="2.916"/>
<circle fill="#59B6B2" cx="168.082" cy="91.285" r="2.916"/>
<circle fill="#59B6B2" cx="171.103" cy="84.404" r="2.915"/>
<circle fill="#59B6B2" cx="160.986" cy="75.788" r="2.915"/>
<circle fill="#59B6B2" cx="154.726" cy="73.086" r="2.916"/>
<circle fill="#59B6B2" cx="133.205" cy="54.566" r="2.915"/>
<circle fill="#59B6B2" cx="140.298" cy="47.898" r="2.916"/>
<circle fill="#59B6B2" cx="117.578" cy="47.577" r="2.915"/>
<circle fill="#59B6B2" cx="115.97" cy="40.139" r="2.916"/>
<circle fill="#59B6B2" cx="105.958" cy="55.209" r="2.916"/>
<circle fill="#59B6B2" cx="116.72" cy="58.445" r="2.915"/>
<circle fill="#59B6B2" cx="107.782" cy="62.861" r="2.916"/>
<circle fill="#59B6B2" cx="134.598" cy="143.847" r="2.915"/>
<circle fill="#59B6B2" cx="123.172" cy="135.229" r="2.915"/>
<circle fill="#59B6B2" cx="126.087" cy="141.467" r="2.916"/>
<circle fill="#59B6B2" cx="157.105" cy="142.433" r="2.915"/>
<circle fill="#59B6B2" cx="105.315" cy="131.992" r="2.915"/>
<circle fill="#59B6B2" cx="130.289" cy="164.084" r="2.916"/>
<circle fill="#59B6B2" cx="156.892" cy="163.976" r="2.915"/>
<circle fill="#59B6B2" cx="114.019" cy="153.321" r="2.915"/>
<circle fill="#59B6B2" cx="107.782" cy="148.262" r="2.916"/>
<circle fill="#59B6B2" cx="100.899" cy="152.229" r="2.915"/>
<circle fill="#59B6B2" cx="113.59" cy="163.868" r="2.916"/>
<circle fill="#59B6B2" cx="155.261" cy="55.315" r="2.916"/>
<circle fill="#59B6B2" cx="132.004" cy="36.366" r="2.916"/>
<circle fill="#59B6B2" cx="209.324" cy="122.411" r="2.916"/>
<circle fill="#59B6B2" cx="220.962" cy="139.109" r="2.916"/>
<circle fill="#59B6B2" cx="213.205" cy="140.289" r="2.916"/>
<circle fill="#59B6B2" cx="205.66" cy="142.541" r="2.916"/>
<circle fill="#59B6B2" cx="220.107" cy="152.229" r="2.915"/>
<circle fill="#59B6B2" cx="209.001" cy="152.551" r="2.916"/>
<circle fill="#59B6B2" cx="200.707" cy="153.857" r="2.916"/>
<circle fill="#59B6B2" cx="194.146" cy="139.109" r="2.916"/>
<circle fill="#59B6B2" cx="189.41" cy="108.413" r="2.915"/>
<circle fill="#59B6B2" cx="188.552" cy="89.999" r="2.915"/>
<circle fill="#59B6B2" cx="195.326" cy="93.88" r="2.915"/>
<circle fill="#59B6B2" cx="201.908" cy="98.295" r="2.916"/>
<circle fill="#59B6B2" cx="204.908" cy="105.177" r="2.915"/>
<circle fill="#59B6B2" cx="211.167" cy="101.189" r="2.916"/>
<circle fill="#59B6B2" cx="206.966" cy="75.681" r="2.915"/>
<circle fill="#59B6B2" cx="201.242" cy="61.467" r="2.916"/>
<circle fill="#59B6B2" cx="209.646" cy="56.624" r="2.915"/>
<circle fill="#59B6B2" cx="199.957" cy="54.672" r="2.916"/>
<circle fill="#59B6B2" cx="211.167" cy="45.734" r="2.915"/>
<circle fill="#59B6B2" cx="226.345" cy="34.758" r="2.916"/>
<circle fill="#59B6B2" cx="227.203" cy="53.387" r="2.916"/>
<circle fill="#59B6B2" cx="233.46" cy="47.469" r="2.916"/>
<circle fill="#59B6B2" cx="249.816" cy="54.244" r="2.916"/>
<circle fill="#59B6B2" cx="257.578" cy="56.388" r="2.915"/>
<circle fill="#59B6B2" cx="254.875" cy="66.741" r="2.916"/>
<circle fill="#59B6B2" cx="248.958" cy="71.585" r="2.915"/>
<circle fill="#59B6B2" cx="242.722" cy="74.802" r="2.915"/>
<circle fill="#59B6B2" cx="259.078" cy="73.301" r="2.916"/>
<circle fill="#59B6B2" cx="267.695" cy="84.939" r="2.916"/>
<circle fill="#59B6B2" cx="270.609" cy="91.821" r="2.915"/>
<circle fill="#59B6B2" cx="249.496" cy="95.059" r="2.916"/>
<circle fill="#59B6B2" cx="254.875" cy="98.295" r="2.916"/>
<circle fill="#59B6B2" cx="254.662" cy="109.592" r="2.916"/>
<circle fill="#59B6B2" cx="260.814" cy="115.615" r="2.915"/>
<circle fill="#59B6B2" cx="263.169" cy="122.411" r="2.916"/>
<circle fill="#59B6B2" cx="250.458" cy="121.875" r="2.916"/>
<circle fill="#59B6B2" cx="251.66" cy="141.254" r="2.916"/>
<circle fill="#59B6B2" cx="244.437" cy="139.968" r="2.915"/>
<circle fill="#59B6B2" cx="229.152" cy="142.968" r="2.915"/>
<circle fill="#59B6B2" cx="224.201" cy="162.69" r="2.915"/>
<circle fill="#59B6B2" cx="255.734" cy="153.965" r="2.916"/>
<circle fill="#59B6B2" cx="216.441" cy="121.553" r="1.715"/>
<circle fill="#59B6B2" cx="205.66" cy="112.078" r="1.715"/>
<circle fill="#59B6B2" cx="209.646" cy="109.592" r="1.715"/>
<circle fill="#59B6B2" cx="215.583" cy="97.094" r="1.715"/>
<circle fill="#59B6B2" cx="215.261" cy="90.32" r="1.715"/>
<circle fill="#59B6B2" cx="215.261" cy="85.261" r="1.714"/>
<path fill="#59B6B2" d="M211.38,79.346c0.947,0,1.717,0.77,1.717,1.717c0,0.946-0.77,1.715-1.717,1.715
	c-0.945,0-1.715-0.769-1.715-1.715C209.666,80.115,210.435,79.346,211.38,79.346z"/>
<circle fill="#59B6B2" cx="203.943" cy="80.738" r="1.715"/>
<circle fill="#59B6B2" cx="189.087" cy="83.739" r="1.715"/>
<circle fill="#59B6B2" cx="196.849" cy="70.942" r="1.715"/>
<circle fill="#59B6B2" cx="196.849" cy="65.326" r="1.715"/>
<circle fill="#59B6B2" cx="192.539" cy="63.504" r="1.715"/>
<circle fill="#59B6B2" cx="175.626" cy="63.398" r="1.715"/>
<circle fill="#59B6B2" cx="155.261" cy="42.176" r="1.715"/>
<circle fill="#59B6B2" cx="158.285" cy="45.09" r="1.715"/>
<circle fill="#59B6B2" cx="158.607" cy="50.15" r="1.715"/>
<circle fill="#59B6B2" cx="153.226" cy="61.018" r="1.715"/>
<circle fill="#59B6B2" cx="149.347" cy="56.623" r="1.715"/>
<circle fill="#59B6B2" cx="138.908" cy="36.044" r="1.715"/>
<circle fill="#59B6B2" cx="136.635" cy="31.844" r="1.715"/>
<circle fill="#59B6B2" cx="127.267" cy="33.666" r="1.715"/>
<circle fill="#59B6B2" cx="122.101" cy="42.604" r="1.715"/>
<circle fill="#59B6B2" cx="125.016" cy="45.734" r="1.715"/>
<circle fill="#59B6B2" cx="100.686" cy="53.278" r="1.715"/>
<circle fill="#59B6B2" cx="102.83" cy="71.801" r="1.715"/>
<circle fill="#59B6B2" cx="123.172" cy="72.551" r="1.715"/>
<circle fill="#59B6B2" cx="110.804" cy="57.695" r="1.715"/>
<circle fill="#59B6B2" cx="111.662" cy="45.734" r="1.715"/>
<circle fill="#59B6B2" cx="144.072" cy="43.912" r="1.715"/>
<circle fill="#59B6B2" cx="149.347" cy="64.256" r="1.715"/>
<circle fill="#59B6B2" cx="165.722" cy="85.477" r="1.715"/>
<circle fill="#59B6B2" cx="150.74" cy="81.383" r="1.715"/>
<circle fill="#59B6B2" cx="141.158" cy="89.25" r="1.715"/>
<circle fill="#59B6B2" cx="153.976" cy="101.297" r="1.715"/>
<circle fill="#59B6B2" cx="143.964" cy="99.903" r="1.715"/>
<path fill="#59B6B2" d="M140.298,100.438c0.947,0,1.717,0.769,1.717,1.715c0,0.947-0.77,1.716-1.717,1.716
	c-0.945,0-1.715-0.769-1.715-1.716C138.583,101.206,139.353,100.438,140.298,100.438z"/>
<circle fill="#59B6B2" cx="136.205" cy="108.413" r="1.714"/>
<circle fill="#59B6B2" cx="147.095" cy="118.104" r="1.715"/>
<circle fill="#59B6B2" cx="140.621" cy="126.506" r="1.715"/>
<circle fill="#59B6B2" cx="135.776" cy="129.957" r="1.715"/>
<circle fill="#59B6B2" cx="135.776" cy="134.908" r="1.715"/>
<circle fill="#59B6B2" cx="129.109" cy="124.02" r="1.715"/>
<circle fill="#59B6B2" cx="116.935" cy="136.302" r="1.714"/>
<circle fill="#59B6B2" cx="96.592" cy="148.155" r="1.714"/>
<circle fill="#59B6B2" cx="96.592" cy="155.465" r="1.715"/>
<circle fill="#59B6B2" cx="107.673" cy="165.69" r="1.715"/>
<circle fill="#59B6B2" cx="136.849" cy="165.047" r="1.715"/>
<circle fill="#59B6B2" cx="146.666" cy="164.833" r="1.715"/>
<circle fill="#59B6B2" cx="150.74" cy="162.153" r="1.715"/>
<circle fill="#59B6B2" cx="157.535" cy="150.406" r="1.715"/>
<circle fill="#59B6B2" cx="162.701" cy="142.754" r="1.715"/>
<path fill="#59B6B2" d="M144.714,138.789c0.947,0,1.717,0.768,1.717,1.715s-0.77,1.715-1.717,1.715
	c-0.945,0-1.715-0.768-1.715-1.715S143.769,138.789,144.714,138.789z"/>
<circle fill="#59B6B2" cx="137.406" cy="149.334" r="1.715"/>
<circle fill="#59B6B2" cx="128.682" cy="146.313" r="1.715"/>
<circle fill="#59B6B2" cx="130.289" cy="157.309" r="1.715"/>
<circle fill="#59B6B2" cx="135.884" cy="153.857" r="1.715"/>
<circle fill="#59B6B2" cx="143" cy="149.978" r="1.714"/>
<circle fill="#59B6B2" cx="147.095" cy="153" r="1.715"/>
<circle fill="#59B6B2" cx="140.621" cy="144.706" r="1.714"/>
<circle fill="#59B6B2" cx="104.009" cy="67.707" r="1.715"/>
<circle fill="#59B6B2" cx="198.027" cy="48.971" r="1.715"/>
<circle fill="#59B6B2" cx="215.906" cy="41.533" r="1.715"/>
<circle fill="#59B6B2" cx="219.121" cy="45.09" r="1.715"/>
<circle fill="#59B6B2" cx="222.785" cy="59.41" r="1.715"/>
<circle fill="#59B6B2" cx="219.443" cy="66.742" r="1.715"/>
<circle fill="#59B6B2" cx="217.082" cy="71.908" r="1.715"/>
<circle fill="#59B6B2" cx="213.097" cy="74.801" r="1.715"/>
<circle fill="#59B6B2" cx="189.41" cy="121.232" r="1.715"/>
<circle fill="#59B6B2" cx="201.908" cy="119.174" r="1.715"/>
<circle fill="#59B6B2" cx="201.242" cy="139.432" r="1.715"/>
<circle fill="#59B6B2" cx="204.265" cy="148.049" r="1.715"/>
<circle fill="#59B6B2" cx="214.597" cy="153.108" r="1.715"/>
<circle fill="#59B6B2" cx="223.857" cy="145.026" r="1.715"/>
<circle fill="#59B6B2" cx="223.857" cy="156.859" r="1.715"/>
<circle fill="#59B6B2" cx="230.224" cy="153.108" r="1.715"/>
<circle fill="#59B6B2" cx="231.832" cy="148.692" r="1.715"/>
<circle fill="#59B6B2" cx="234.96" cy="143.847" r="1.714"/>
<circle fill="#59B6B2" cx="236.998" cy="149.228" r="1.714"/>
<circle fill="#59B6B2" cx="241.199" cy="151.264" r="1.715"/>
<circle fill="#59B6B2" cx="238.521" cy="140.289" r="1.715"/>
<circle fill="#59B6B2" cx="250.673" cy="146.526" r="1.715"/>
<circle fill="#59B6B2" cx="252.947" cy="150.406" r="1.715"/>
<circle fill="#59B6B2" cx="251.66" cy="161.381" r="1.715"/>
<circle fill="#59B6B2" cx="240.876" cy="163.332" r="1.715"/>
<circle fill="#59B6B2" cx="235.39" cy="166.463" r="1.715"/>
<circle fill="#59B6B2" cx="231.404" cy="163.761" r="1.714"/>
<circle fill="#59B6B2" cx="228.06" cy="168.285" r="1.715"/>
<circle fill="#59B6B2" cx="246.902" cy="126.934" r="1.715"/>
<circle fill="#59B6B2" cx="252.197" cy="127.791" r="1.715"/>
<circle fill="#59B6B2" cx="271.253" cy="118.852" r="1.715"/>
<circle fill="#59B6B2" cx="272.431" cy="113.473" r="1.715"/>
<circle fill="#59B6B2" cx="272.751" cy="98.082" r="1.715"/>
<circle fill="#59B6B2" cx="247.994" cy="100.439" r="1.715"/>
<circle fill="#59B6B2" cx="245.08" cy="92.143" r="1.715"/>
<circle fill="#59B6B2" cx="244.222" cy="80.311" r="1.715"/>
<circle fill="#59B6B2" cx="242.83" cy="68.67" r="1.715"/>
<circle fill="#59B6B2" cx="242.056" cy="62.861" r="1.715"/>
<circle fill="#59B6B2" cx="242.83" cy="55.424" r="1.715"/>
<circle fill="#59B6B2" cx="246.58" cy="58.981" r="1.715"/>
<circle fill="#59B6B2" cx="237.876" cy="41.746" r="1.715"/>
<circle fill="#59B6B2" cx="236.46" cy="34.973" r="1.715"/>
<circle fill="#59B6B2" cx="249.816" cy="36.688" r="1.715"/>
<circle fill="#59B6B2" cx="249.708" cy="41.533" r="1.715"/>
<circle fill="#59B6B2" cx="252.197" cy="49.184" r="1.715"/>
<circle fill="#59B6B2" cx="252.197" cy="60.696" r="1.715"/>
<circle fill="#59B6B2" cx="259.291" cy="62.325" r="1.714"/>
<circle fill="#59B6B2" cx="254.234" cy="75.359" r="1.715"/>
<circle fill="#59B6B2" cx="264.244" cy="90.857" r="1.715"/>
<circle fill="#59B6B2" cx="267.16" cy="96.881" r="1.715"/>
<circle fill="#59B6B2" cx="271.253" cy="103.141" r="1.715"/>
</svg>
