<?xml version="1.0" encoding="utf-8"?>
<!-- Generator: Adobe Illustrator 16.0.3, SVG Export Plug-In . SVG Version: 6.00 Build 0)  -->
<!DOCTYPE svg PUBLIC "-//W3C//DTD SVG 1.1//EN" "http://www.w3.org/Graphics/SVG/1.1/DTD/svg11.dtd">
<svg version="1.1" id="Layer_3" xmlns="http://www.w3.org/2000/svg" xmlns:xlink="http://www.w3.org/1999/xlink" x="0px" y="0px"
	 width="258.145px" height="140px" viewBox="0 0 258.145 140" enable-background="new 0 0 258.145 140" xml:space="preserve">
<circle fill="#59B6B2" cx="189.64" cy="159.23" r="3.89"/>
<circle fill="#59B6B2" cx="209.384" cy="166.11" r="3.89"/>
<circle fill="#59B6B2" cx="247.673" cy="124.231" r="3.89"/>
<circle fill="#59B6B2" cx="254.255" cy="129.915" r="3.89"/>
<circle fill="#59B6B2" cx="242.291" cy="135.599" r="3.89"/>
<circle fill="#59B6B2" cx="231.82" cy="155.043" r="3.89"/>
<circle fill="#59B6B2" cx="233.015" cy="134.4" r="3.89"/>
<circle fill="#59B6B2" cx="233.015" cy="86.239" r="3.89"/>
<circle fill="#59B6B2" cx="222.245" cy="82.348" r="3.89"/>
<circle fill="#59B6B2" cx="183.36" cy="84.745" r="3.89"/>
<circle fill="#59B6B2" cx="197.117" cy="82.948" r="3.89"/>
<circle fill="#59B6B2" cx="209.983" cy="44.36" r="3.89"/>
<circle fill="#59B6B2" cx="245.279" cy="35.984" r="3.89"/>
<circle fill="#59B6B2" cx="227.034" cy="36.881" r="3.89"/>
<circle fill="#59B6B2" cx="241.988" cy="54.232" r="3.589"/>
<circle fill="#59B6B2" cx="245.279" cy="146.667" r="6.581"/>
<circle fill="#59B6B2" cx="188.144" cy="97.907" r="6.581"/>
<circle fill="#59B6B2" cx="193.827" cy="61.412" r="5.07"/>
<circle fill="#59B6B2" cx="202.202" cy="52.138" r="5.07"/>
<circle fill="#59B6B2" cx="227.929" cy="47.067" r="5.07"/>
<circle fill="#59B6B2" cx="210.579" cy="100.299" r="5.07"/>
<circle fill="#59B6B2" cx="231.222" cy="112.864" r="5.069"/>
<circle fill="#59B6B2" cx="246.479" cy="114.061" r="5.07"/>
<circle fill="#59B6B2" cx="178.573" cy="146.666" r="5.07"/>
<circle fill="#59B6B2" cx="183.658" cy="49.148" r="2.992"/>
<circle fill="#59B6B2" cx="192.631" cy="52.139" r="2.992"/>
<circle fill="#59B6B2" cx="195.92" cy="45.257" r="2.992"/>
<circle fill="#59B6B2" cx="198.913" cy="34.595" r="2.992"/>
<circle fill="#59B6B2" cx="210.579" cy="34.595" r="2.992"/>
<circle fill="#59B6B2" cx="211.775" cy="53.334" r="2.991"/>
<circle fill="#59B6B2" cx="185.156" cy="56.341" r="2.992"/>
<circle fill="#59B6B2" cx="217.758" cy="47.051" r="2.992"/>
<circle fill="#59B6B2" cx="188.148" cy="69.188" r="2.991"/>
<circle fill="#59B6B2" cx="191.437" cy="75.77" r="2.992"/>
<circle fill="#59B6B2" cx="182.758" cy="75.77" r="2.992"/>
<circle fill="#59B6B2" cx="234.212" cy="54.233" r="2.991"/>
<circle fill="#59B6B2" cx="214.767" cy="87.437" r="2.991"/>
<circle fill="#59B6B2" cx="224.64" cy="90.129" r="2.991"/>
<circle fill="#59B6B2" cx="217.758" cy="94.317" r="2.991"/>
<circle fill="#59B6B2" cx="233.016" cy="94.317" r="2.991"/>
<circle fill="#59B6B2" cx="226.135" cy="104.787" r="2.992"/>
<circle fill="#59B6B2" cx="234.212" cy="122.139" r="2.992"/>
<circle fill="#59B6B2" cx="171.99" cy="137.393" r="2.992"/>
<circle fill="#59B6B2" cx="187.844" cy="133.205" r="2.992"/>
<circle fill="#59B6B2" cx="194.724" cy="137.395" r="2.992"/>
<circle fill="#59B6B2" cx="188.757" cy="140.684" r="2.992"/>
<circle fill="#59B6B2" cx="198.898" cy="143.676" r="2.991"/>
<circle fill="#59B6B2" cx="198.317" cy="155.641" r="2.992"/>
<circle fill="#59B6B2" cx="212.075" cy="143.675" r="2.992"/>
<circle fill="#59B6B2" cx="234.81" cy="142.18" r="2.992"/>
<circle fill="#59B6B2" cx="227.932" cy="140.084" r="2.991"/>
<circle fill="#59B6B2" cx="180.365" cy="134.999" r="2.392"/>
<circle fill="#59B6B2" cx="182.462" cy="155.941" r="2.392"/>
<circle fill="#59B6B2" cx="187.847" cy="151.859" r="2.393"/>
<circle fill="#59B6B2" cx="192.632" cy="146.367" r="2.393"/>
<circle fill="#59B6B2" cx="203.103" cy="150.855" r="2.393"/>
<circle fill="#59B6B2" cx="209.384" cy="150.256" r="2.392"/>
<circle fill="#59B6B2" cx="198.016" cy="161.924" r="2.392"/>
<circle fill="#59B6B2" cx="204.298" cy="160.126" r="2.393"/>
<circle fill="#59B6B2" cx="214.469" cy="158.631" r="2.392"/>
<circle fill="#59B6B2" cx="219.255" cy="154.444" r="2.392"/>
<circle fill="#59B6B2" cx="224.64" cy="158.031" r="2.393"/>
<circle fill="#59B6B2" cx="219.255" cy="162.819" r="2.392"/>
<circle fill="#59B6B2" cx="229.723" cy="162.82" r="2.393"/>
<circle fill="#59B6B2" cx="230.025" cy="147.564" r="2.393"/>
<circle fill="#59B6B2" cx="223.741" cy="145.471" r="2.392"/>
<circle fill="#59B6B2" cx="252.159" cy="137.693" r="2.393"/>
<circle fill="#59B6B2" cx="225.837" cy="133.505" r="2.392"/>
<circle fill="#59B6B2" cx="227.932" cy="122.437" r="2.392"/>
<circle fill="#59B6B2" cx="238.998" cy="117.052" r="2.392"/>
<circle fill="#59B6B2" cx="254.255" cy="120.644" r="2.392"/>
<circle fill="#59B6B2" cx="248.569" cy="100.6" r="2.392"/>
<circle fill="#59B6B2" cx="244.384" cy="95.229" r="2.392"/>
<circle fill="#59B6B2" cx="238.999" cy="91.025" r="2.392"/>
<circle fill="#59B6B2" cx="238.699" cy="97.622" r="2.392"/>
<circle fill="#59B6B2" cx="242.291" cy="102.394" r="2.392"/>
<circle fill="#59B6B2" cx="239.595" cy="108.974" r="2.392"/>
<circle fill="#59B6B2" cx="235.707" cy="105.086" r="2.392"/>
<circle fill="#59B6B2" cx="219.255" cy="106.281" r="2.393"/>
<circle fill="#59B6B2" cx="226.734" cy="96.71" r="2.392"/>
<circle fill="#59B6B2" cx="241.985" cy="128.418" r="2.392"/>
<circle fill="#59B6B2" cx="196.819" cy="91.64" r="2.392"/>
<circle fill="#59B6B2" cx="190.538" cy="87.736" r="2.393"/>
<circle fill="#59B6B2" cx="181.263" cy="106.283" r="2.393"/>
<circle fill="#59B6B2" cx="202.202" cy="94.917" r="2.392"/>
<circle fill="#59B6B2" cx="209.083" cy="91.64" r="2.392"/>
<circle fill="#59B6B2" cx="203.103" cy="88.633" r="2.392"/>
<circle fill="#59B6B2" cx="204.597" cy="81.154" r="2.393"/>
<circle fill="#59B6B2" cx="199.811" cy="75.471" r="2.392"/>
<circle fill="#59B6B2" cx="195.906" cy="69.788" r="2.392"/>
<circle fill="#59B6B2" cx="202.202" cy="69.189" r="2.392"/>
<circle fill="#59B6B2" cx="186.052" cy="62.907" r="2.392"/>
<circle fill="#59B6B2" cx="189.64" cy="45.556" r="2.392"/>
<circle fill="#59B6B2" cx="184.556" cy="35.386" r="2.392"/>
<circle fill="#59B6B2" cx="192.631" cy="38.676" r="2.392"/>
<circle fill="#59B6B2" cx="204.597" cy="38.079" r="2.392"/>
<circle fill="#59B6B2" cx="216.863" cy="39.573" r="2.392"/>
<circle fill="#59B6B2" cx="235.109" cy="35.984" r="2.392"/>
<circle fill="#59B6B2" cx="241.091" cy="43.463" r="2.392"/>
<circle fill="#59B6B2" cx="246.178" cy="47.651" r="2.392"/>
<circle fill="#59B6B2" cx="218.953" cy="54.231" r="2.392"/>
<circle fill="#59B6B2" cx="239.899" cy="156.835" r="2.392"/>
<circle fill="#59B6B2" cx="247.674" cy="57.822" r="2.392"/>
<circle fill="#59B6B2" cx="195.325" cy="130.511" r="1.807"/>
<circle fill="#59B6B2" cx="182.758" cy="139.19" r="1.807"/>
<circle fill="#59B6B2" cx="186.649" cy="146.367" r="1.807"/>
<circle fill="#59B6B2" cx="193.514" cy="152.651" r="1.807"/>
<circle fill="#59B6B2" cx="197.715" cy="149.658" r="1.809"/>
<circle fill="#59B6B2" cx="204.597" cy="141.581" r="1.808"/>
<circle fill="#59B6B2" cx="206.392" cy="146.069" r="1.808"/>
<circle fill="#59B6B2" cx="209.383" cy="156.834" r="1.808"/>
<circle fill="#59B6B2" cx="202.205" cy="166.11" r="1.807"/>
<circle fill="#59B6B2" cx="216.863" cy="167.606" r="1.807"/>
<circle fill="#59B6B2" cx="224.341" cy="166.41" r="1.807"/>
<circle fill="#59B6B2" cx="237.507" cy="162.225" r="1.807"/>
<circle fill="#59B6B2" cx="213.571" cy="153.847" r="1.807"/>
<circle fill="#59B6B2" cx="215.366" cy="148.761" r="1.808"/>
<circle fill="#59B6B2" cx="225.24" cy="152.348" r="1.808"/>
<circle fill="#59B6B2" cx="220.751" cy="149.658" r="1.809"/>
<circle fill="#59B6B2" cx="217.759" cy="144.575" r="1.808"/>
<circle fill="#59B6B2" cx="222.248" cy="140.386" r="1.807"/>
<circle fill="#59B6B2" cx="236.308" cy="149.467" r="1.807"/>
<circle fill="#59B6B2" cx="230.622" cy="127.225" r="1.807"/>
<circle fill="#59B6B2" cx="236.605" cy="127.82" r="1.809"/>
<circle fill="#59B6B2" cx="246.775" cy="130.511" r="1.807"/>
<circle fill="#59B6B2" cx="248.867" cy="134.403" r="1.808"/>
<circle fill="#59B6B2" cx="241.985" cy="122.137" r="1.808"/>
<circle fill="#59B6B2" cx="224.64" cy="117.051" r="1.807"/>
<circle fill="#59B6B2" cx="224.042" cy="110.772" r="1.808"/>
<circle fill="#59B6B2" cx="218.356" cy="101.199" r="1.807"/>
<circle fill="#59B6B2" cx="222.532" cy="99.403" r="1.808"/>
<circle fill="#59B6B2" cx="232.115" cy="100.3" r="1.807"/>
<circle fill="#59B6B2" cx="247.375" cy="105.982" r="1.807"/>
<circle fill="#59B6B2" cx="252.459" cy="108.377" r="1.807"/>
<circle fill="#59B6B2" cx="202.502" cy="100.301" r="1.807"/>
<circle fill="#59B6B2" cx="197.715" cy="101.496" r="1.807"/>
<circle fill="#59B6B2" cx="180.964" cy="92.222" r="1.807"/>
<circle fill="#59B6B2" cx="190.24" cy="82.051" r="1.808"/>
<circle fill="#59B6B2" cx="207.591" cy="86.244" r="1.807"/>
<circle fill="#59B6B2" cx="211.763" cy="82.051" r="1.808"/>
<circle fill="#59B6B2" cx="228.815" cy="81.154" r="1.809"/>
<circle fill="#59B6B2" cx="215.964" cy="80.259" r="1.807"/>
<circle fill="#59B6B2" cx="205.783" cy="64.403" r="1.807"/>
<circle fill="#59B6B2" cx="202.505" cy="60.515" r="1.807"/>
<circle fill="#59B6B2" cx="182.161" cy="68.589" r="1.807"/>
<circle fill="#59B6B2" cx="181.563" cy="61.413" r="1.807"/>
<circle fill="#59B6B2" cx="186.948" cy="41.068" r="1.807"/>
<circle fill="#59B6B2" cx="190.835" cy="33.592" r="1.807"/>
<circle fill="#59B6B2" cx="199.811" cy="40.771" r="1.807"/>
<circle fill="#59B6B2" cx="202.802" cy="44.958" r="1.807"/>
<circle fill="#59B6B2" cx="220.751" cy="34.789" r="1.807"/>
<circle fill="#59B6B2" cx="221.947" cy="41.998" r="1.807"/>
<circle fill="#59B6B2" cx="224.042" cy="57.208" r="1.807"/>
<circle fill="#59B6B2" cx="228.529" cy="55.402" r="1.807"/>
<circle fill="#59B6B2" cx="236.906" cy="48.849" r="1.807"/>
<circle fill="#59B6B2" cx="235.099" cy="42.579" r="1.808"/>
<circle fill="#59B6B2" cx="248.867" cy="41.998" r="1.807"/>
<circle fill="#59B6B2" cx="249.469" cy="52.439" r="1.807"/>
<circle fill="#59B6B2" cx="206.692" cy="73.378" r="1.807"/>
<circle fill="#59B6B2" cx="6.567" cy="91.327" r="3.89"/>
<circle fill="#59B6B2" cx="22.721" cy="118.547" r="3.89"/>
<circle fill="#59B6B2" cx="37.977" cy="73.973" r="3.89"/>
<circle fill="#59B6B2" cx="54.43" cy="54.231" r="3.89"/>
<circle fill="#59B6B2" cx="37.079" cy="45.258" r="3.89"/>
<circle fill="#59B6B2" cx="46.051" cy="33.89" r="3.89"/>
<circle fill="#59B6B2" cx="56.224" cy="33.89" r="3.89"/>
<circle fill="#59B6B2" cx="36.781" cy="136.495" r="3.89"/>
<circle fill="#59B6B2" cx="21.525" cy="141.581" r="3.89"/>
<circle fill="#59B6B2" cx="5.071" cy="144.573" r="3.89"/>
<circle fill="#59B6B2" cx="16.139" cy="162.521" r="3.89"/>
<circle fill="#59B6B2" cx="28.704" cy="159.23" r="3.89"/>
<circle fill="#59B6B2" cx="75.968" cy="143.676" r="3.89"/>
<circle fill="#59B6B2" cx="38.166" cy="101.797" r="5.875"/>
<circle fill="#59B6B2" cx="61.906" cy="157.733" r="5.875"/>
<circle fill="#59B6B2" cx="78.959" cy="40.47" r="5.875"/>
<circle fill="#59B6B2" cx="21.226" cy="67.395" r="5.07"/>
<circle fill="#59B6B2" cx="29.303" cy="53.933" r="5.07"/>
<circle fill="#59B6B2" cx="20.329" cy="96.71" r="5.07"/>
<circle fill="#59B6B2" cx="5.071" cy="163.121" r="5.07"/>
<circle fill="#59B6B2" cx="76.267" cy="164.314" r="2.992"/>
<circle fill="#59B6B2" cx="75.968" cy="152.949" r="2.992"/>
<circle fill="#59B6B2" cx="63.405" cy="143.975" r="2.992"/>
<circle fill="#59B6B2" cx="35.584" cy="164.018" r="2.992"/>
<circle fill="#59B6B2" cx="3.875" cy="152.948" r="2.991"/>
<circle fill="#59B6B2" cx="21.525" cy="155.641" r="2.992"/>
<circle fill="#59B6B2" cx="18.234" cy="149.061" r="2.992"/>
<circle fill="#59B6B2" cx="18.234" cy="132.307" r="2.992"/>
<circle fill="#59B6B2" cx="24.517" cy="126.922" r="2.992"/>
<circle fill="#59B6B2" cx="25.416" cy="135" r="2.992"/>
<circle fill="#59B6B2" cx="30.199" cy="147.862" r="2.992"/>
<circle fill="#59B6B2" cx="40.671" cy="144.271" r="2.992"/>
<circle fill="#59B6B2" cx="42.161" cy="115.257" r="2.992"/>
<circle fill="#59B6B2" cx="30.797" cy="117.35" r="2.992"/>
<circle fill="#59B6B2" cx="34.374" cy="111.666" r="2.992"/>
<circle fill="#59B6B2" cx="24.233" cy="106.879" r="2.992"/>
<circle fill="#59B6B2" cx="3.875" cy="106.582" r="2.992"/>
<circle fill="#59B6B2" cx="54.13" cy="105.369" r="2.992"/>
<circle fill="#59B6B2" cx="60.412" cy="95.514" r="2.992"/>
<circle fill="#59B6B2" cx="50.838" cy="91.923" r="2.992"/>
<circle fill="#59B6B2" cx="44.856" cy="94.916" r="2.992"/>
<circle fill="#59B6B2" cx="41.865" cy="88.334" r="2.991"/>
<circle fill="#59B6B2" cx="27.805" cy="81.453" r="2.992"/>
<circle fill="#59B6B2" cx="29.601" cy="88.933" r="2.991"/>
<circle fill="#59B6B2" cx="38.576" cy="54.233" r="2.991"/>
<circle fill="#59B6B2" cx="44.259" cy="48.548" r="2.992"/>
<circle fill="#59B6B2" cx="20.03" cy="56.341" r="2.992"/>
<circle fill="#59B6B2" cx="37.679" cy="35.684" r="2.991"/>
<circle fill="#59B6B2" cx="70.582" cy="34.787" r="2.992"/>
<circle fill="#59B6B2" cx="58.321" cy="47.051" r="2.992"/>
<circle fill="#59B6B2" cx="32.891" cy="67.693" r="2.992"/>
<circle fill="#59B6B2" cx="18.234" cy="76.966" r="2.992"/>
<circle fill="#59B6B2" cx="35.582" cy="83.847" r="2.991"/>
<circle fill="#59B6B2" cx="69.687" cy="60.514" r="2.392"/>
<circle fill="#59B6B2" cx="73.574" cy="54.831" r="2.392"/>
<circle fill="#59B6B2" cx="62.506" cy="54.831" r="2.392"/>
<circle fill="#59B6B2" cx="68.787" cy="49.745" r="2.392"/>
<circle fill="#59B6B2" cx="59.815" cy="39.575" r="2.392"/>
<circle fill="#59B6B2" cx="64.301" cy="33.292" r="2.392"/>
<circle fill="#59B6B2" cx="64.602" cy="44.66" r="2.392"/>
<circle fill="#59B6B2" cx="52.036" cy="47.042" r="2.392"/>
<circle fill="#59B6B2" cx="52.036" cy="40.472" r="2.392"/>
<circle fill="#59B6B2" cx="46.951" cy="42.866" r="2.392"/>
<circle fill="#59B6B2" cx="32.292" cy="39.274" r="2.392"/>
<circle fill="#59B6B2" cx="45.755" cy="55.129" r="2.392"/>
<circle fill="#59B6B2" cx="49.045" cy="59.916" r="2.392"/>
<circle fill="#59B6B2" cx="42.762" cy="59.917" r="2.392"/>
<circle fill="#59B6B2" cx="36.481" cy="61.113" r="2.392"/>
<circle fill="#59B6B2" cx="27.806" cy="62.308" r="2.392"/>
<circle fill="#59B6B2" cx="29.899" cy="73.976" r="2.392"/>
<circle fill="#59B6B2" cx="19.13" cy="84.445" r="2.393"/>
<circle fill="#59B6B2" cx="14.046" cy="89.831" r="2.392"/>
<circle fill="#59B6B2" cx="23.321" cy="88.635" r="2.392"/>
<circle fill="#59B6B2" cx="41.569" cy="80.557" r="2.392"/>
<circle fill="#59B6B2" cx="40.969" cy="66.197" r="2.392"/>
<circle fill="#59B6B2" cx="65.498" cy="89.53" r="2.392"/>
<circle fill="#59B6B2" cx="66.394" cy="100.002" r="2.392"/>
<circle fill="#59B6B2" cx="62.207" cy="107.67" r="2.392"/>
<circle fill="#59B6B2" cx="54.13" cy="97.908" r="2.393"/>
<circle fill="#59B6B2" cx="36.481" cy="91.64" r="2.392"/>
<circle fill="#59B6B2" cx="29.601" cy="96.112" r="2.392"/>
<circle fill="#59B6B2" cx="29.004" cy="102.095" r="2.393"/>
<circle fill="#59B6B2" cx="11.655" cy="96.711" r="2.392"/>
<circle fill="#59B6B2" cx="5.071" cy="99.103" r="2.392"/>
<circle fill="#59B6B2" cx="16.738" cy="106.583" r="2.392"/>
<circle fill="#59B6B2" cx="39.773" cy="123.634" r="2.393"/>
<circle fill="#59B6B2" cx="34.687" cy="129.017" r="2.393"/>
<circle fill="#59B6B2" cx="18.234" cy="124.829" r="2.392"/>
<circle fill="#59B6B2" cx="45.457" cy="132.607" r="2.392"/>
<circle fill="#59B6B2" cx="45.158" cy="139.19" r="2.392"/>
<circle fill="#59B6B2" cx="13.146" cy="142.179" r="2.392"/>
<circle fill="#59B6B2" cx="29.001" cy="140.387" r="2.392"/>
<circle fill="#59B6B2" cx="51.74" cy="146.966" r="2.393"/>
<circle fill="#59B6B2" cx="45.154" cy="149.956" r="2.392"/>
<circle fill="#59B6B2" cx="57.423" cy="148.761" r="2.392"/>
<circle fill="#59B6B2" cx="69.687" cy="147.266" r="2.392"/>
<circle fill="#59B6B2" cx="71.48" cy="158.631" r="2.392"/>
<circle fill="#59B6B2" cx="69.386" cy="165.214" r="2.392"/>
<circle fill="#59B6B2" cx="46.951" cy="161.924" r="2.392"/>
<circle fill="#59B6B2" cx="52.336" cy="159.232" r="2.392"/>
<circle fill="#59B6B2" cx="46.951" cy="155.641" r="2.392"/>
<circle fill="#59B6B2" cx="41.267" cy="159.827" r="2.392"/>
<circle fill="#59B6B2" cx="36.481" cy="151.859" r="2.393"/>
<circle fill="#59B6B2" cx="15.242" cy="154.444" r="2.392"/>
<circle fill="#59B6B2" cx="23.321" cy="164.617" r="2.393"/>
<circle fill="#59B6B2" cx="56.226" cy="165.214" r="2.392"/>
<circle fill="#59B6B2" cx="46.653" cy="107.181" r="2.393"/>
<circle fill="#59B6B2" cx="11.053" cy="107.479" r="2.392"/>
<circle fill="#59B6B2" cx="73.573" cy="49.434" r="1.808"/>
<circle fill="#59B6B2" cx="78.959" cy="48.864" r="1.808"/>
<circle fill="#59B6B2" cx="68.19" cy="55.402" r="1.807"/>
<circle fill="#59B6B2" cx="64.002" cy="50.045" r="1.808"/>
<circle fill="#59B6B2" cx="71.179" cy="44.361" r="1.807"/>
<circle fill="#59B6B2" cx="67.293" cy="40.172" r="1.808"/>
<circle fill="#59B6B2" cx="42.166" cy="39.576" r="1.807"/>
<circle fill="#59B6B2" cx="27.509" cy="42.554" r="1.807"/>
<circle fill="#59B6B2" cx="30.498" cy="46.346" r="1.807"/>
<circle fill="#59B6B2" cx="23.616" cy="48.238" r="1.807"/>
<circle fill="#59B6B2" cx="46.051" cy="65.599" r="1.807"/>
<circle fill="#59B6B2" cx="24.815" cy="75.77" r="1.807"/>
<circle fill="#59B6B2" cx="9.262" cy="102.991" r="1.808"/>
<circle fill="#59B6B2" cx="14.344" cy="101.781" r="1.807"/>
<circle fill="#59B6B2" cx="47.549" cy="87.438" r="1.807"/>
<circle fill="#59B6B2" cx="57.123" cy="90.729" r="1.807"/>
<circle fill="#59B6B2" cx="61.01" cy="88.05" r="1.807"/>
<circle fill="#59B6B2" cx="67.291" cy="94.917" r="1.807"/>
<circle fill="#59B6B2" cx="59.813" cy="101.781" r="1.807"/>
<circle fill="#59B6B2" cx="68.49" cy="108.377" r="1.807"/>
<circle fill="#59B6B2" cx="49.941" cy="99.103" r="1.808"/>
<circle fill="#59B6B2" cx="46.65" cy="102.693" r="1.807"/>
<circle fill="#59B6B2" cx="29.303" cy="108.378" r="1.807"/>
<circle fill="#59B6B2" cx="26.296" cy="112.865" r="1.809"/>
<circle fill="#59B6B2" cx="20.926" cy="111.965" r="1.807"/>
<circle fill="#59B6B2" cx="17.337" cy="115.557" r="1.807"/>
<circle fill="#59B6B2" cx="41.269" cy="109.575" r="1.808"/>
<circle fill="#59B6B2" cx="36.781" cy="117.936" r="1.807"/>
<circle fill="#59B6B2" cx="30.498" cy="124.233" r="1.808"/>
<circle fill="#59B6B2" cx="29.899" cy="129.017" r="1.808"/>
<circle fill="#59B6B2" cx="31.396" cy="133.206" r="1.808"/>
<circle fill="#59B6B2" cx="39.773" cy="130.511" r="1.807"/>
<circle fill="#59B6B2" cx="45.755" cy="126.922" r="1.807"/>
<circle fill="#59B6B2" cx="45.158" cy="121.242" r="1.807"/>
<circle fill="#59B6B2" cx="12.537" cy="147.852" r="1.807"/>
<circle fill="#59B6B2" cx="9.258" cy="156.238" r="1.807"/>
<circle fill="#59B6B2" cx="24.813" cy="147.876" r="1.807"/>
<circle fill="#59B6B2" cx="27.496" cy="152.95" r="1.808"/>
<circle fill="#59B6B2" cx="33.49" cy="142.768" r="1.807"/>
<circle fill="#59B6B2" cx="35.582" cy="147.266" r="1.807"/>
<circle fill="#59B6B2" cx="35.883" cy="158.052" r="1.807"/>
<circle fill="#59B6B2" cx="41.267" cy="154.25" r="1.808"/>
<circle fill="#59B6B2" cx="29.301" cy="166.11" r="1.807"/>
<circle fill="#59B6B2" cx="41.868" cy="165.514" r="1.808"/>
<circle fill="#59B6B2" cx="50.838" cy="165.214" r="1.807"/>
<circle fill="#59B6B2" cx="64.002" cy="166.11" r="1.807"/>
<circle fill="#59B6B2" cx="77.464" cy="158.642" r="1.808"/>
<circle fill="#59B6B2" cx="69.386" cy="153.548" r="1.807"/>
<circle fill="#59B6B2" cx="69.984" cy="140.983" r="1.808"/>
<circle fill="#59B6B2" cx="58.006" cy="142.479" r="1.807"/>
<circle fill="#59B6B2" cx="63.405" cy="149.467" r="1.807"/>
<circle fill="#59B6B2" cx="51.14" cy="141.596" r="1.808"/>
<circle fill="#59B6B2" cx="51.748" cy="152.95" r="1.808"/>
<circle fill="#59B6B2" cx="102.291" cy="76.068" r="2.393"/>
<circle fill="#59B6B2" cx="103.489" cy="70.684" r="2.392"/>
<circle fill="#59B6B2" cx="107.375" cy="52.137" r="2.392"/>
<circle fill="#59B6B2" cx="122.933" cy="39.874" r="2.392"/>
<circle fill="#59B6B2" cx="135.198" cy="40.747" r="2.392"/>
<circle fill="#59B6B2" cx="153.145" cy="35.684" r="2.392"/>
<circle fill="#59B6B2" cx="136.692" cy="54.528" r="2.392"/>
<circle fill="#59B6B2" cx="133.402" cy="60.214" r="2.392"/>
<circle fill="#59B6B2" cx="127.12" cy="61.111" r="2.392"/>
<circle fill="#59B6B2" cx="131.008" cy="66.197" r="2.392"/>
<circle fill="#59B6B2" cx="118.744" cy="62.608" r="2.392"/>
<circle fill="#59B6B2" cx="149.555" cy="66.197" r="2.392"/>
<circle fill="#59B6B2" cx="151.352" cy="79.359" r="2.393"/>
<circle fill="#59B6B2" cx="131.608" cy="80.854" r="2.392"/>
<circle fill="#59B6B2" cx="126.821" cy="91.925" r="2.392"/>
<circle fill="#59B6B2" cx="144.771" cy="97.908" r="2.393"/>
<circle fill="#59B6B2" cx="152.951" cy="105.685" r="2.393"/>
<circle fill="#59B6B2" cx="136.992" cy="107.181" r="2.392"/>
<circle fill="#59B6B2" cx="130.86" cy="123.634" r="2.392"/>
<circle fill="#59B6B2" cx="125.623" cy="129.913" r="2.392"/>
<circle fill="#59B6B2" cx="141.48" cy="128.418" r="2.392"/>
<circle fill="#59B6B2" cx="145.667" cy="123.049" r="2.392"/>
<circle fill="#59B6B2" cx="136.692" cy="138.888" r="2.392"/>
<circle fill="#59B6B2" cx="143.274" cy="134.401" r="2.392"/>
<circle fill="#59B6B2" cx="127.119" cy="151.155" r="2.392"/>
<circle fill="#59B6B2" cx="136.991" cy="155.64" r="2.392"/>
<circle fill="#59B6B2" cx="137.291" cy="162.821" r="2.392"/>
<circle fill="#59B6B2" cx="132.205" cy="159.531" r="2.393"/>
<circle fill="#59B6B2" cx="142.376" cy="158.642" r="2.392"/>
<circle fill="#59B6B2" cx="141.18" cy="146.667" r="2.393"/>
<circle fill="#59B6B2" cx="147.46" cy="148.758" r="2.392"/>
<circle fill="#59B6B2" cx="137.292" cy="75.771" r="2.392"/>
<circle fill="#59B6B2" cx="148.659" cy="113.762" r="5.086"/>
<circle fill="#59B6B2" cx="128.019" cy="101.184" r="5.086"/>
<circle fill="#59B6B2" cx="145.369" cy="48.152" r="5.086"/>
<circle fill="#59B6B2" cx="120.537" cy="53.035" r="5.086"/>
<circle fill="#59B6B2" cx="111.564" cy="67.694" r="5.086"/>
<circle fill="#59B6B2" cx="149.856" cy="87.439" r="3.888"/>
<circle fill="#59B6B2" cx="139.683" cy="82.948" r="3.888"/>
<circle fill="#59B6B2" cx="140.58" cy="61.71" r="3.888"/>
<circle fill="#59B6B2" cx="128.317" cy="73.378" r="3.888"/>
<circle fill="#59B6B2" cx="127.719" cy="45.258" r="3.888"/>
<circle fill="#59B6B2" cx="144.171" cy="37.483" r="3.888"/>
<circle fill="#59B6B2" cx="94.515" cy="62.608" r="3.888"/>
<circle fill="#59B6B2" cx="127.719" cy="137.094" r="3.888"/>
<circle fill="#59B6B2" cx="150.753" cy="134.401" r="3.888"/>
<circle fill="#59B6B2" cx="150.155" cy="156.538" r="3.888"/>
<circle fill="#59B6B2" cx="151.755" cy="164.303" r="2.886"/>
<circle fill="#59B6B2" cx="125.623" cy="164.303" r="2.886"/>
<circle fill="#59B6B2" cx="130.709" cy="144.571" r="2.886"/>
<circle fill="#59B6B2" cx="153.145" cy="143.677" r="2.886"/>
<circle fill="#59B6B2" cx="145.069" cy="141.282" r="2.886"/>
<circle fill="#59B6B2" cx="136.395" cy="132.904" r="2.887"/>
<circle fill="#59B6B2" cx="151.755" cy="123.033" r="2.887"/>
<circle fill="#59B6B2" cx="136.692" cy="120.939" r="2.887"/>
<circle fill="#59B6B2" cx="133.105" cy="114.658" r="2.887"/>
<circle fill="#59B6B2" cx="139.683" cy="112.564" r="2.886"/>
<circle fill="#59B6B2" cx="126.223" cy="118.548" r="2.886"/>
<circle fill="#59B6B2" cx="126.223" cy="111.058" r="2.886"/>
<circle fill="#59B6B2" cx="143.871" cy="106.271" r="2.886"/>
<circle fill="#59B6B2" cx="151.351" cy="95.517" r="2.886"/>
<circle fill="#59B6B2" cx="134.6" cy="95.517" r="2.886"/>
<circle fill="#59B6B2" cx="141.778" cy="91.325" r="2.886"/>
<circle fill="#59B6B2" cx="133.25" cy="88.635" r="2.886"/>
<circle fill="#59B6B2" cx="125.623" cy="83.847" r="2.886"/>
<circle fill="#59B6B2" cx="108.573" cy="76.667" r="2.886"/>
<circle fill="#59B6B2" cx="123.23" cy="66.796" r="2.886"/>
<circle fill="#59B6B2" cx="111.564" cy="57.224" r="2.886"/>
<circle fill="#59B6B2" cx="103.787" cy="62.324" r="2.886"/>
<circle fill="#59B6B2" cx="101.692" cy="55.401" r="2.886"/>
<circle fill="#59B6B2" cx="111.564" cy="47.056" r="2.886"/>
<circle fill="#59B6B2" cx="127.719" cy="36.283" r="2.885"/>
<circle fill="#59B6B2" cx="135.198" cy="48.548" r="2.886"/>
<circle fill="#59B6B2" cx="129.11" cy="54.231" r="2.886"/>
<circle fill="#59B6B2" cx="151.755" cy="55.428" r="2.886"/>
<circle fill="#59B6B2" cx="150.753" cy="72.48" r="2.886"/>
<circle fill="#59B6B2" cx="144.468" cy="75.769" r="2.886"/>
<circle fill="#59B6B2" cx="141.582" cy="69.681" r="2.886"/>
<circle fill="#59B6B2" cx="119.043" cy="72.883" r="1.689"/>
<circle fill="#59B6B2" cx="115.451" cy="75.771" r="1.689"/>
<circle fill="#59B6B2" cx="105.88" cy="82.053" r="1.69"/>
<circle fill="#59B6B2" cx="98.701" cy="71.88" r="1.689"/>
<circle fill="#59B6B2" cx="99.9" cy="67.692" r="1.689"/>
<circle fill="#59B6B2" cx="117.546" cy="42.863" r="1.689"/>
<circle fill="#59B6B2" cx="120.837" cy="45.662" r="1.69"/>
<circle fill="#59B6B2" cx="133.595" cy="33.892" r="1.689"/>
<circle fill="#59B6B2" cx="138.188" cy="35.686" r="1.689"/>
<circle fill="#59B6B2" cx="139.281" cy="43.162" r="1.69"/>
<circle fill="#59B6B2" cx="153.145" cy="42.863" r="1.689"/>
<circle fill="#59B6B2" cx="153.745" cy="50.043" r="1.69"/>
<circle fill="#59B6B2" cx="144.768" cy="56.325" r="1.69"/>
<circle fill="#59B6B2" cx="148.059" cy="60.813" r="1.689"/>
<circle fill="#59B6B2" cx="154.042" cy="63.506" r="1.689"/>
<circle fill="#59B6B2" cx="135.198" cy="69.681" r="1.69"/>
<circle fill="#59B6B2" cx="145.968" cy="81.753" r="1.689"/>
<circle fill="#59B6B2" cx="135.496" cy="102.378" r="1.689"/>
<circle fill="#59B6B2" cx="139.383" cy="99.103" r="1.69"/>
<circle fill="#59B6B2" cx="149.856" cy="101.495" r="1.688"/>
<circle fill="#59B6B2" cx="142.375" cy="117.543" r="1.69"/>
<circle fill="#59B6B2" cx="131.714" cy="108.973" r="1.689"/>
<circle fill="#59B6B2" cx="124.727" cy="123.932" r="1.69"/>
<circle fill="#59B6B2" cx="130.86" cy="130.018" r="1.689"/>
<circle fill="#59B6B2" cx="136.498" cy="126.625" r="1.689"/>
<circle fill="#59B6B2" cx="148.658" cy="127.521" r="1.689"/>
<circle fill="#59B6B2" cx="154.641" cy="128.719" r="1.69"/>
<circle fill="#59B6B2" cx="125.025" cy="145.768" r="1.69"/>
<circle fill="#59B6B2" cx="125.623" cy="158.031" r="1.689"/>
<circle fill="#59B6B2" cx="132.548" cy="165.513" r="1.689"/>
<circle fill="#59B6B2" cx="131.607" cy="154.742" r="1.689"/>
<circle fill="#59B6B2" cx="132.805" cy="149.357" r="1.689"/>
<circle fill="#59B6B2" cx="136.094" cy="144.571" r="1.688"/>
<circle fill="#59B6B2" cx="138.082" cy="150.554" r="1.689"/>
<circle fill="#59B6B2" cx="142.975" cy="153.052" r="1.689"/>
<circle fill="#59B6B2" cx="142.182" cy="165.513" r="1.689"/>
<circle fill="#59B6B2" cx="146.264" cy="162.521" r="1.689"/>
<circle fill="#59B6B2" cx="154.641" cy="149.466" r="1.689"/>
</svg>
